<svg width="123" height="120" viewBox="0 0 123 120" fill="none" xmlns="http://www.w3.org/2000/svg">
<path fill-rule="evenodd" clip-rule="evenodd" d="M122.568 26.7103C121.319 27.3362 120.346 27.1599 118.06 25.8935C116.084 24.7993 115.004 24.5405 113.453 24.7895C112.338 24.9683 110.924 25.4654 109.651 26.126L108.793 26.5711L109.578 26.658C110.685 26.7806 111.661 27.3219 113.379 28.766C115.475 30.5284 115.945 30.7822 117.114 30.7822C118.396 30.7822 119.776 30.1355 121.106 28.9114C122.083 28.0129 123 26.9081 123 26.6308C123 26.5556 122.806 26.5913 122.568 26.7103ZM117.115 38.2734C116.365 34.1543 113.576 31.0283 109.421 29.6471C106.922 28.8168 104.942 28.668 101.231 29.0321C99.1615 29.2351 96.8315 29.0692 95.3059 28.6101C94.8821 28.4825 94.466 28.3783 94.3814 28.3783C94.2966 28.3783 94.7494 28.8035 95.3874 29.3233C98.192 31.6076 101.295 33.3799 103.191 33.7801C103.768 33.9019 104.84 34.0073 105.574 34.0142C107.322 34.0308 106.75 34.3063 104.711 34.4301C102.041 34.5922 100.449 33.9554 96.8615 31.2899C95.6527 30.3916 94.6378 29.6822 94.6061 29.7134C94.5259 29.792 95.8541 32.2163 96.8642 33.8352C98.5416 36.5232 99.8368 37.7442 101.571 38.272C102.555 38.5716 106.536 38.4768 109.181 38.091C111.722 37.7203 114.081 37.6635 115.054 37.9496C115.465 38.0705 116.001 38.4371 116.524 38.9558C116.978 39.4045 117.342 39.6883 117.334 39.5865C117.326 39.4846 117.228 38.8937 117.115 38.2734ZM110.205 21.0054C110.047 20.9141 108.477 20.63 107.458 20.5083C106.558 20.4011 104.983 20.6906 104.032 21.1384C103.375 21.4479 102.534 22.1468 100.828 23.8021C98.8411 25.7291 98.3429 26.1274 97.3003 26.6205L96.0862 27.1947L97.0234 27.389C100.115 28.0302 103.017 27.94 104.711 27.1502C105.858 26.6155 106.171 26.2379 107.306 24.0204C108.25 22.1733 108.896 21.4416 109.76 21.238C110.091 21.16 110.292 21.0553 110.205 21.0054ZM95.5256 36.496C94.92 32.9336 93.0968 29.53 90.4093 26.9457C88.9429 25.5356 88.5537 25.2288 86.9977 24.2558C82.0726 21.1761 76.0561 20.2991 69.7026 21.7348C67.4861 22.2356 66.0461 22.7098 62.9945 23.9434C56.7175 26.4812 52.2517 27.7059 47.3625 28.2303C43.3952 28.6558 38.1104 28.2325 34.5455 27.2036C32.9472 26.7423 32.6054 26.7844 33.9328 27.2791C35.5034 27.8643 37.303 28.3357 39.3294 28.6927C41.8049 29.1288 46.7513 29.2903 49.0151 29.009C50.9266 28.7713 54.9181 27.7824 60.1717 26.2446C66.5999 24.3631 67.3481 24.165 69.2839 23.8313C81.0882 21.7973 90.6322 27.3676 91.9071 37.0353C92.3662 40.5157 91.1591 44.4197 88.7343 47.2971C87.4355 48.8383 85.5469 50.3311 83.6439 51.3209C80.9051 52.7452 80.5296 52.8466 78.023 52.8392C76.2412 52.8341 75.5726 52.7651 74.4909 52.4751C70.5389 51.4159 67.5368 49.0423 65.7842 45.5911C64.7245 43.5047 64.2933 39.9667 64.8383 37.8314C65.982 33.3503 69.9901 30.5236 74.862 30.762C78.2975 30.9303 80.7059 32.5861 81.4835 35.3144C81.8346 36.5468 81.7452 38.2217 81.277 39.177C80.9521 39.8403 79.5373 41.4307 79.3969 41.2908C79.3626 41.2565 79.4089 40.9604 79.4998 40.6325C80.0803 38.5383 77.5162 36.6064 75.7391 37.7991C74.0744 38.9164 74.2484 41.6019 76.0495 42.5915C78.0773 43.7055 80.9623 42.3414 82.2343 39.6672C82.7006 38.6868 82.7326 38.5083 82.7326 36.8913C82.7326 35.209 82.7169 35.1313 82.1434 33.976C80.6797 31.0267 77.5638 29.477 73.4865 29.6701C69.3097 29.868 66.2092 31.8257 64.5237 35.3291C63.5109 37.4346 63.2729 38.5363 63.2897 41.0429C63.3013 42.79 63.3744 43.4212 63.7146 44.7061C64.9292 49.2933 67.9841 53.0207 72.0695 54.9007C76.1916 56.7975 81.8455 56.4835 86.5788 54.0947C91.0986 51.8139 94.5161 47.3296 95.4364 42.472C95.697 41.097 95.7461 37.7947 95.5256 36.496ZM72.0472 11.455C71.7464 10.9029 71.0585 10.5539 70.2711 10.5539C69.7775 10.5539 69.5288 10.6644 69.0858 11.0805C68.6167 11.5213 68.5252 11.7137 68.5252 12.261C68.5252 13.4794 69.2869 14.3064 70.4091 14.3064C71.8606 14.3064 72.7537 12.7518 72.0472 11.455ZM69.3632 15.5963C69.2299 15.2675 68.7634 15.3776 68.3152 15.8435C68.0809 16.087 67.6536 16.773 67.3657 17.368C66.744 18.6523 65.461 20.357 63.9159 21.9519C62.893 23.0078 62.857 23.0658 63.503 22.6169C65.4892 21.2371 68.1196 18.5745 69.0098 17.0426C69.4539 16.2785 69.5238 15.9927 69.3632 15.5963ZM63.9631 15.4009C63.7419 13.4672 63.3206 12.1967 61.5061 7.99047C60.6862 6.08968 60.6413 5.91956 60.7229 5.01975C60.7874 4.30974 60.9912 3.70997 61.5182 2.67866C62.0981 1.544 62.1576 1.357 61.8457 1.64875C61.2565 2.20006 59.9304 4.18044 59.4128 5.28211C58.8464 6.48744 58.7219 7.63727 58.4783 13.9155C58.2931 18.689 58.1728 19.8366 57.6976 21.3687C57.1731 23.0602 55.7296 24.9677 54.1969 25.9948C53.8713 26.2129 53.6321 26.4184 53.6652 26.4513C53.8162 26.6018 55.9748 25.6503 56.6663 25.1287C57.7879 24.2826 59.467 22.1294 60.2789 20.4961C61.5116 18.0165 61.9309 15.4095 61.3896 13.5886C61.1986 12.946 61.1972 12.8686 61.3812 13.1131C61.6777 13.5071 62.0887 15.3619 62.0887 16.3057C62.0887 18.8227 60.4116 22.1499 58.0521 24.3138L56.9866 25.2909L57.693 24.9355C59.0011 24.2776 60.5909 23.1482 61.5477 22.1976C63.4696 20.2877 64.2661 18.0467 63.9631 15.4009ZM59.5182 33.6074C58.6128 31.6708 55.7723 30.3064 51.5746 29.7922C49.8845 29.585 47.3802 29.5811 47.2533 29.7854C47.199 29.8732 47.3218 29.9418 47.5329 29.9418C48.2593 29.9418 49.806 30.8748 50.9215 31.9858C51.5231 32.585 52.5181 33.8108 53.1324 34.7097C54.601 36.8583 55.5924 37.6031 56.9838 37.6031C57.8709 37.6031 58.5825 37.3122 59.1351 36.7233C59.9785 35.8251 60.0984 34.8485 59.5182 33.6074ZM57.0605 11.9681C56.715 10.3314 55.6494 8.93125 53.8052 7.6909C53.3506 7.38507 51.8504 6.48353 50.4714 5.68753C46.7609 3.54517 45.8083 2.60189 45.6208 0.883713L45.5244 0L45.0284 0.859947C44.0445 2.56546 43.8061 3.53172 43.8134 5.7851C43.8194 7.62054 43.8629 7.93153 44.2607 8.99036C45.2678 11.6704 47.1606 14.0185 49.5925 15.6046C50.0328 15.8918 50.9961 16.5226 51.7332 17.0065C52.9679 17.8172 54.6067 19.3419 55.4688 20.4824L55.8235 20.9514L55.7202 20.2478C55.5186 18.8749 54.528 15.9239 53.6993 14.2282C52.8621 12.515 52.0184 11.5028 50.3931 10.2625C49.7473 9.76947 50.3134 9.96006 51.3974 10.6006C53.5032 11.8448 54.5547 13.5587 55.6632 17.5542C56.0274 18.8676 56.3505 19.9173 56.3808 19.887C56.4111 19.8568 56.5745 18.9231 56.7437 17.8118C57.1236 15.3183 57.2552 12.8905 57.0605 11.9681ZM53.4806 21.0617C52.3589 17.9322 48.6124 16.875 46.1851 19.0028C44.1868 20.7547 44.4061 23.9638 46.6172 25.3253C47.2687 25.7263 47.5428 25.7984 48.4185 25.7984C49.2648 25.7984 49.5851 25.7201 50.1926 25.3642C52.5234 23.9997 52.1851 20.5843 49.6526 19.9129C48.9945 19.7386 48.8287 19.751 48.165 20.025C47.2095 20.4194 46.7039 21.132 46.7039 22.0841C46.7039 22.9762 47.0948 23.6265 47.8353 23.9658C48.5903 24.3116 48.5954 24.5369 47.8457 24.4158C45.5208 24.0401 44.9919 20.6329 47.0301 19.1626C49.2661 17.5493 52.4128 18.7919 53.2363 21.6133C53.961 24.096 52.4313 26.6176 49.6418 27.5385L48.9802 27.7569L49.5995 27.6639C51.0507 27.4459 52.6721 26.1549 53.3134 24.7064C53.7925 23.6246 53.8613 22.1241 53.4806 21.0617ZM53.5373 75.0499C52.7558 70.1614 49.3776 66.0027 44.4276 63.8353C41.9417 62.7469 38.5523 62.3444 36.0196 62.8371C33.9921 63.2313 31.7571 64.3833 30.4031 65.7319C29.2319 66.8983 28.2437 68.6424 27.7812 70.3593C27.3988 71.7782 27.3145 74.3517 27.6057 75.7129C28.4548 79.6829 31.5238 82.1162 35.3008 81.8143C37.4757 81.6404 39.8112 79.8758 40.3614 77.9908C41.0471 75.6414 39.6701 73.7592 37.3722 73.905C36.3358 73.9708 35.7675 74.275 35.3355 74.9958C34.978 75.5923 35.0119 76.9582 35.4 77.5921C35.9706 78.5243 37.3666 79.0954 38.2565 78.7608C38.8942 78.5211 38.8 78.7643 37.9749 79.4876C36.9188 80.4133 35.7529 80.8094 34.3803 80.7087C30.7363 80.4413 28.4933 77.7492 28.4933 73.6431C28.4933 70.8909 29.4996 68.4829 31.4692 66.5224C32.8711 65.1269 34.0712 64.4871 36.0218 64.0956C41.0178 63.0929 46.5301 65.9581 48.975 70.8284C50.6865 74.2377 50.9487 78.8262 49.5934 81.6507C47.8352 85.3149 44.948 88.2848 41.6558 89.8155C39.9008 90.6316 38.781 90.9106 36.8137 91.0223C32.8676 91.246 29.3577 89.9334 26.3455 87.1076C21.9056 82.9424 20.1715 76.2568 21.6513 69.01C22.1866 66.3884 22.565 65.1968 24.2413 60.8516C27.1426 53.3316 28.4619 49.4731 28.877 47.2944C29.4848 44.1026 29.541 39.8265 29.0227 36.196C28.7803 34.499 28.2589 32.2361 28.0145 31.8207C27.8219 31.4933 27.8263 31.5343 28.1781 33.3392C29.828 41.8028 27.9997 50.7538 22.4387 61.4393C20.6437 64.8883 19.3729 68.6324 18.907 71.8447C18.6274 73.7717 18.6611 77.113 18.9781 78.8806C19.7612 83.2473 21.6485 86.8296 24.7857 89.9036C27.1807 92.2503 29.1249 93.374 32.418 94.3149C34.0987 94.7951 37.4416 94.9718 39.284 94.6778C45.6698 93.6589 50.7576 89.1721 52.809 82.7507C53.717 79.9088 53.9388 77.5619 53.5373 75.0499ZM51.0225 35.3449C50.3568 33.7321 48.9022 31.9326 47.7862 31.3413C47.4951 31.1872 47.5471 31.2933 48.0168 31.8127C48.8146 32.695 49.1413 33.4685 49.6123 35.589C50.0926 37.752 50.5159 38.3185 51.1669 37.6702C51.5212 37.3173 51.4653 36.4177 51.0225 35.3449ZM48.1179 33.7876C47.3772 31.478 45.3219 29.7495 43.066 29.5392L42.2297 29.4613L43.1892 29.8305C45.8929 30.8704 47.286 32.4963 47.4532 34.8069C47.5604 36.289 47.1912 37.2959 46.1697 38.3071C45.3134 39.1546 44.5522 39.4794 43.4219 39.4794C41.6957 39.4794 40.2989 37.8638 40.7735 36.416C41.1147 35.3756 42.6134 34.9461 42.7494 35.8498C42.8751 36.6853 43.7641 36.5998 43.955 35.7338C44.09 35.1217 43.7775 34.5 43.1092 34.0519C41.709 33.1131 39.6777 34.1261 39.173 36.0149C38.9441 36.8716 39.1733 38.0588 39.7295 38.8981L40.1214 39.4894L39.4765 39.0241C37.4593 37.5687 34.6436 38.4875 34.2251 40.7376C34.0957 41.4329 34.4957 42.4922 35.0161 42.8318C35.5777 43.1983 36.4312 43.1475 36.7248 42.7301C36.9862 42.3585 36.9138 42.2151 36.3166 41.9202C35.7651 41.648 35.7463 40.8977 36.2779 40.3684C37.1027 39.5469 38.7441 39.9313 39.4807 41.1181C40.4997 42.7605 39.6405 45.1746 37.7002 46.1201C35.841 47.026 33.7887 46.6993 32.1885 45.2426C31.1177 44.2679 30.6275 43.4664 30.2875 42.1335C29.941 40.7759 29.8428 40.7466 29.9583 42.0355C30.3881 46.833 36.1538 49.2421 39.6587 46.0885C40.6311 45.2135 41.0931 44.175 41.1729 42.6847C41.2354 41.5181 41.2065 41.3711 40.7453 40.5029C40.4135 39.8789 40.3438 39.6537 40.5336 39.8196C41.8236 40.9471 44.2469 41.0858 45.8135 40.1215C46.8281 39.4969 47.7701 38.2934 48.1152 37.1807C48.5031 35.9295 48.5039 34.9914 48.1179 33.7876ZM45.2135 17.7759C43.5663 15.8263 38.9317 16.222 36.2903 18.5378C35.7366 19.0233 35.342 19.6146 34.6563 20.9871C33.3438 23.6146 32.2528 24.6749 30.2594 25.2609C29.8925 25.3688 29.5922 25.5084 29.5922 25.5711C29.5922 25.7861 32.7758 26.0758 34.0596 25.9774C35.5948 25.8599 36.6166 25.5689 37.7185 24.9355C38.6035 24.4269 38.9201 24.0347 40.2674 21.7787C41.3815 19.9129 42.9257 18.3058 43.8331 18.0673C44.3627 17.9282 44.6053 17.9396 45.0497 18.1246C45.3552 18.2517 45.605 18.3294 45.605 18.2975C45.605 18.2654 45.4288 18.0307 45.2135 17.7759ZM37.4809 49.4304C37.2433 49.3094 36.3093 49.0944 35.4048 48.9527C33.5877 48.6682 32.4665 48.2299 31.5866 47.4605C30.6219 46.617 30.9332 47.2081 32.0277 48.2982C33.7897 50.0531 36.7843 51.2363 37.601 50.5002C38.0363 50.1079 37.9892 49.6895 37.4809 49.4304ZM37.6854 55.1703C37.3181 54.3294 36.4319 53.5047 34.8512 52.5326C32.0003 50.7793 30.4673 49.2414 29.8779 47.5437L29.6024 46.7499L29.5974 48.325C29.585 52.1075 30.8301 56.1197 32.5701 57.9056C33.5054 58.8654 34.3274 59.2271 35.3987 59.1498C36.4626 59.0732 37.1553 58.6382 37.6022 57.7659C37.9641 57.0594 38.0014 55.8936 37.6854 55.1703ZM37.2578 33.6943C36.9608 32.6447 35.8446 31.818 34.724 31.818C33.8783 31.818 32.8808 32.4367 32.4656 33.219C32.0301 34.0389 32.0134 34.6531 32.4031 35.5078C33.2083 37.2734 35.8554 37.5035 36.8896 35.8979C37.3317 35.2116 37.4636 34.422 37.2578 33.6943ZM33.7131 15.5588C32.2302 15.5618 30.4423 16.8529 29.744 18.4249C29.3508 19.3103 29.1299 20.827 29.1563 22.4603C29.1727 23.4852 29.1148 23.9086 28.9172 24.2091L28.6564 24.6054L29.399 24.2791C30.9885 23.5808 32.0541 22.6582 32.4995 21.595C32.7626 20.9666 32.831 19.371 32.6472 18.1502C32.4935 17.1295 32.8693 16.3992 33.7471 16.0125C34.1386 15.8401 34.4588 15.667 34.4588 15.6281C34.4588 15.5891 34.1232 15.5578 33.7131 15.5588ZM32.8277 113.581C32.1112 113.092 31.5307 112.17 31.3042 111.163C31.0899 110.209 31.169 108.202 31.5564 104.757C32.2199 98.8606 31.5494 96.8199 28.225 94.6178C26.7011 93.6082 22.6847 91.4319 22.6847 91.6156C22.6847 91.6683 23.4647 92.7118 24.4177 93.9345C27.1686 97.4634 27.8263 99.0676 27.6613 101.845C27.5376 103.926 27.3005 103.961 27.1989 101.912C27.1036 99.9918 26.728 98.7935 25.6397 96.9395C24.8292 95.5583 23.1388 93.2904 22.0852 92.1707L21.2763 91.3108L21.5066 91.9867C22.1198 93.7854 22.2521 95.2404 22.1353 98.8939C22.0083 102.867 22.1519 104.097 23.0231 106.495C24.2355 109.832 27.084 112.603 30.2202 113.496C31.0841 113.742 33.2265 114.089 33.3182 113.998C33.345 113.971 33.1243 113.783 32.8277 113.581ZM32.3106 28.5147C31.7786 27.6609 30.6662 27.3587 29.7647 27.823C29.126 28.152 28.8073 28.7304 28.8073 29.5611C28.8073 30.1768 28.8875 30.3657 29.341 30.8174C29.7946 31.2691 29.9842 31.349 30.6024 31.349C31.0141 31.349 31.5017 31.237 31.7251 31.0913C32.5365 30.5617 32.8171 29.3273 32.3106 28.5147ZM28.8878 15.8717C28.4181 15.4834 27.9109 15.8174 27.4051 16.8478C26.7799 18.1213 26.5266 19.8713 26.7551 21.3381C27.0435 23.1893 27.1873 23.3011 27.2635 21.7332C27.3286 20.3939 27.3751 20.2402 28.2266 18.5467C29.1574 16.6956 29.2807 16.1964 28.8878 15.8717ZM28.8043 25.4557C28.5999 24.9447 27.9735 24.5928 27.4859 24.7147C26.6496 24.9238 26.3212 26.0586 26.9234 26.6584C27.7545 27.4861 29.2373 26.5378 28.8043 25.4557ZM27.2332 47.2561C25.981 49.7517 23.275 50.8388 20.9569 49.7776C19.2968 49.0176 18.3863 47.6731 18.3742 45.9639C18.3572 43.5416 20.5704 41.7456 22.6143 42.523C23.8802 43.0046 24.7429 44.2512 24.49 45.2337C24.3876 45.6311 24.3634 45.6077 24.0672 44.8229C23.6893 43.8215 23.0895 43.3896 22.0753 43.3889C21.1508 43.3881 20.4359 43.8532 20.0078 44.7338C18.8823 47.0496 21.596 49.4035 24.0355 48.2274C25.1867 47.6723 25.8298 46.5847 25.847 45.1643C25.8799 42.4132 22.7885 40.6341 20.2042 41.9166C17.5875 43.2153 17.0044 46.6221 19.0173 48.8519C20.8949 50.9317 23.9537 51.0635 26.0504 49.1549C26.8413 48.435 27.7084 47.0663 27.7084 46.5378C27.7084 46.412 27.4945 46.7352 27.2332 47.2561ZM27.3002 27.5991C27.2225 27.6005 26.9912 27.9875 26.7864 28.4589C26.3341 29.4996 25.3931 30.5961 24.5138 31.1074C24.1554 31.3158 23.1204 31.7478 22.2138 32.0676C20.2309 32.7666 19.6357 33.1214 18.7877 34.1096C16.561 36.7041 16.0647 40.7928 17.7881 42.345C18.1024 42.6282 18.1048 42.6249 18.021 42.0028C17.9743 41.6572 17.9814 41.1957 18.0365 40.9771C18.2949 39.9513 19.9225 38.762 22.8606 37.4521C25.4648 36.291 26.2853 35.3449 27.0029 32.6749C27.2854 31.6239 27.5214 27.5949 27.3002 27.5991ZM26.3074 11.998C25.9681 10.6676 24.6904 9.61577 23.4138 9.61577C22.6047 9.61577 21.6607 10.1352 21.1943 10.8372C19.8778 12.8185 20.6538 16.4006 23.2303 20.2353C24.0855 21.5081 25.6754 23.4192 25.7867 23.3083C25.8322 23.2631 25.7958 23.1365 25.706 23.0269C25.3749 22.6232 25.0396 21.0973 25.0396 19.9952C25.0396 18.7395 25.3166 17.2519 25.9134 15.3036C26.3642 13.8311 26.495 12.7339 26.3074 11.998ZM25.8079 26.844C25.4502 26.9681 24.8871 26.96 23.694 26.8133C22.7995 26.7034 21.7025 26.6566 21.2562 26.7092C19.5858 26.9063 17.7246 28.1303 17.0991 29.443C16.7643 30.1458 16.5905 31.4467 16.8531 31.285C16.9522 31.2241 17.0332 31.0969 17.0332 31.0027C17.0332 30.6454 17.8222 29.8211 18.2428 29.7388C18.4841 29.6918 19.388 29.792 20.2514 29.9617C22.3854 30.3808 23.5797 30.1208 24.7149 28.9902C25.192 28.5151 26.2955 26.9526 26.2955 26.7522C26.2955 26.7095 26.076 26.7508 25.8079 26.844ZM25.4509 51.0479C24.4254 52.3387 22.5238 53.5971 20.9539 54.0241C19.5128 54.4159 18.2222 54.4558 12.438 54.2877C5.98988 54.1004 5.4748 54.1365 3.73898 54.8978C2.71762 55.3459 0.17112 56.979 0.297493 57.105C0.342392 57.1496 0.635803 57.0353 0.949623 56.8509C1.84791 56.3231 3.29109 55.8966 4.17902 55.8966C4.89739 55.8966 5.37119 56.0853 8.22632 57.5079C13.5983 60.1847 15.8379 60.6102 18.76 59.5091C20.523 58.8449 23.0337 56.4676 24.2474 54.3132L24.6325 53.6294L23.8105 54.4479C21.194 57.0533 17.1721 58.5269 14.3 57.9323C13.3112 57.7276 11.9144 57.1901 12.0418 57.0633C12.0838 57.0212 12.3942 57.1086 12.7311 57.2573C13.568 57.6266 16.2654 57.6282 17.6301 57.2601C21.1591 56.3084 24.4093 54.0527 25.484 51.809C26.1262 50.4683 26.1151 50.212 25.4509 51.0479ZM24.0683 22.8257C22.0623 20.976 20.5302 19.9164 18.5246 18.9912C15.7774 17.7241 13.5683 17.7205 12.303 18.9808C11.2138 20.0654 11.1777 21.5257 12.2111 22.6979C13.2798 23.9103 14.4732 24.0881 17.2715 23.4522C20.4171 22.7375 22.761 22.7723 24.3052 23.5569C24.6396 23.7269 24.9436 23.8352 24.9812 23.798C25.0185 23.7607 24.6077 23.3232 24.0683 22.8257ZM23.9014 24.857C21.962 24.3054 18.9836 24.5839 17.9214 25.4161C17.3685 25.8492 17.3382 26.611 17.8687 26.7436C18.24 26.8363 18.8423 26.6335 20.9579 25.7029C21.9992 25.2449 22.2942 25.1852 23.5089 25.1861C24.2644 25.1868 24.8826 25.1758 24.8826 25.1616C24.8826 25.1475 24.441 25.0104 23.9014 24.857ZM24.2666 113.357C24.1089 112.721 23.706 111.975 23.3744 111.704C22.7841 111.221 20.7772 108.687 20.4037 107.953C20.1863 107.526 19.9924 106.896 19.9729 106.554C19.9535 106.212 19.9163 105.931 19.8905 105.931C19.7309 105.928 18.7128 108.401 18.4486 109.434C17.8911 111.612 18.1029 112.97 19.3045 114.92C20.7186 117.215 20.9072 117.968 20.4153 119.357C20.2897 119.711 20.2367 120.001 20.2976 120C20.5361 119.996 21.924 118.785 22.6245 117.969C23.8832 116.503 24.5691 114.576 24.2666 113.357ZM21.1103 60.0154C19.6838 61.2984 17.1431 62.9569 15.8005 63.4816C14.5393 63.9744 13.8934 64.4743 13.8934 64.9576C13.8934 65.2744 14.0887 65.348 14.7569 65.2834C15.6845 65.1937 18.2092 63.3542 20.2288 61.2966C21.9003 59.5937 22.4213 58.8363 21.1103 60.0154ZM20.7134 18.335C20.5006 17.928 20.016 16.7948 19.6365 15.8169C18.4393 12.7318 17.802 11.7392 16.6663 11.1917C14.412 10.1047 12.0904 12.0127 13.0074 14.1985C13.2623 14.8063 14.5603 16.0024 15.5865 16.5752C15.9936 16.8026 17.0685 17.3092 17.9751 17.701C18.8817 18.0928 19.9591 18.5811 20.3692 18.7861C20.7792 18.9909 21.1116 19.1399 21.1075 19.1169C21.1036 19.094 20.9262 18.7422 20.7134 18.335ZM20.8681 96.3141C20.8279 96.1421 20.677 95.3858 20.5326 94.6333C20.3882 93.8809 20.2128 93.2652 20.143 93.2652C20.0731 93.2652 20.016 93.3613 20.016 93.4788C20.016 93.5962 19.761 94.1999 19.4494 94.8203C19.0137 95.6874 18.4371 96.4109 16.9558 97.9484C15.8961 99.0486 14.8501 100.257 14.6316 100.633C14.0873 101.571 13.7364 102.845 13.7363 103.887C13.7361 104.864 14.1876 107.337 14.3663 107.337C14.43 107.337 14.527 107.113 14.582 106.84C14.7294 106.106 15.7853 105.199 17.7057 104.157C20.374 102.709 20.801 101.971 20.8877 98.6594C20.9169 97.5415 20.9081 96.4861 20.8681 96.3141ZM19.3288 51.2059C18.2417 50.1926 17.0666 48.589 16.2925 47.0626C15.4311 45.3638 14.4198 43.888 13.366 42.7918C9.79745 39.0796 5.18625 38.0344 1.10598 40.0127L0 40.549L0.627953 40.5648C2.40317 40.6098 3.50946 41.7776 5.36019 45.5608C7.0577 49.0306 7.79366 50.2661 8.73968 51.2333C10.2896 52.8183 12.1359 53.2212 16.4837 52.9233C18.9601 52.7538 19.3902 52.6969 19.218 52.5618C19.1819 52.5337 18.2695 52.2083 17.1902 51.839C16.1109 51.4696 14.7138 50.9258 14.0857 50.6304C12.1626 49.7264 10.5212 47.9297 9.82227 45.9637C9.63184 45.4282 9.57799 45.3686 10.9168 47.1723C11.8656 48.4505 12.6705 49.0783 14.6498 50.0839C16.1668 50.8546 19.764 52.1968 20.083 52.1111C20.1756 52.0862 19.8362 51.6789 19.3288 51.2059ZM12.1038 64.7149C11.6573 64.2703 11.4582 64.1843 10.8871 64.1888C10.0656 64.1955 9.5816 64.4401 9.17531 65.0537C8.28205 66.4034 9.43167 68.1116 11.0846 67.891C12.0887 67.7568 12.6375 67.1032 12.6375 66.0414C12.6375 65.3458 12.5708 65.1801 12.1038 64.7149Z" fill="#6B745D"/>
</svg>
