<svg width="120" height="123" viewBox="0 0 120 123" fill="none" xmlns="http://www.w3.org/2000/svg">
<path fill-rule="evenodd" clip-rule="evenodd" d="M93.2897 122.568C92.6638 121.319 92.8401 120.346 94.1065 118.06C95.2007 116.084 95.4595 115.004 95.2105 113.453C95.0317 112.338 94.5346 110.924 93.874 109.651L93.4289 108.793L93.342 109.578C93.2194 110.685 92.6781 111.661 91.234 113.379C89.4716 115.475 89.2178 115.945 89.2178 117.114C89.2178 118.396 89.8645 119.776 91.0886 121.106C91.9871 122.083 93.0919 123 93.3692 123C93.4444 123 93.4087 122.806 93.2897 122.568ZM81.7266 117.115C85.8457 116.365 88.9717 113.576 90.3529 109.421C91.1832 106.922 91.332 104.942 90.9679 101.231C90.7649 99.1615 90.9308 96.8315 91.3899 95.3059C91.5175 94.8821 91.6217 94.466 91.6217 94.3814C91.6217 94.2966 91.1965 94.7494 90.6767 95.3874C88.3924 98.192 86.6201 101.295 86.2199 103.191C86.0981 103.768 85.9927 104.84 85.9858 105.574C85.9692 107.322 85.6937 106.75 85.5699 104.711C85.4078 102.041 86.0446 100.449 88.7101 96.8615C89.6084 95.6527 90.3178 94.6378 90.2866 94.6061C90.208 94.5259 87.7837 95.8541 86.1648 96.8642C83.4768 98.5416 82.2558 99.8368 81.728 101.571C81.4284 102.555 81.5232 106.536 81.909 109.181C82.2797 111.722 82.3365 114.081 82.0504 115.054C81.9295 115.465 81.5629 116.001 81.0442 116.524C80.5955 116.978 80.3117 117.342 80.4135 117.334C80.5154 117.326 81.1063 117.228 81.7266 117.115ZM98.9946 110.205C99.0859 110.047 99.37 108.477 99.4917 107.458C99.5989 106.558 99.3094 104.983 98.8616 104.032C98.5521 103.375 97.8532 102.534 96.1979 100.828C94.2709 98.8411 93.8726 98.3429 93.3795 97.3003L92.8053 96.0862L92.611 97.0234C91.9698 100.115 92.06 103.017 92.8498 104.711C93.3845 105.858 93.7621 106.171 95.9796 107.306C97.8267 108.25 98.5584 108.896 98.762 109.76C98.84 110.091 98.9447 110.292 98.9946 110.205ZM83.504 95.5256C87.0664 94.92 90.47 93.0968 93.0543 90.4093C94.4644 88.9429 94.7712 88.5537 95.7442 86.9977C98.8239 82.0726 99.7009 76.0561 98.2652 69.7026C97.7644 67.4861 97.2902 66.0461 96.0566 62.9945C93.5188 56.7175 92.2941 52.2517 91.7697 47.3625C91.3442 43.3952 91.7675 38.1104 92.7964 34.5455C93.2577 32.9472 93.2156 32.6054 92.7209 33.9328C92.1357 35.5034 91.6643 37.303 91.3073 39.3294C90.8712 41.8049 90.7097 46.7513 90.991 49.0151C91.2287 50.9266 92.2176 54.9181 93.7554 60.1717C95.6369 66.5999 95.835 67.3481 96.1687 69.2839C98.2027 81.0882 92.6324 90.6322 82.9647 91.9071C79.4843 92.3662 75.5803 91.1591 72.7029 88.7343C71.1617 87.4355 69.6689 85.5469 68.6791 83.6439C67.2548 80.9051 67.1534 80.5296 67.1608 78.023C67.1659 76.2412 67.2349 75.5726 67.5249 74.4909C68.5841 70.5389 70.9577 67.5368 74.4089 65.7842C76.4953 64.7245 80.0333 64.2933 82.1686 64.8383C86.6497 65.982 89.4764 69.9901 89.238 74.862C89.0697 78.2975 87.4139 80.7059 84.6856 81.4835C83.4532 81.8346 81.7783 81.7452 80.823 81.277C80.1597 80.9521 78.5693 79.5373 78.7092 79.3969C78.7435 79.3626 79.0396 79.4089 79.3675 79.4998C81.4617 80.0803 83.3936 77.5162 82.2009 75.7391C81.0836 74.0744 78.3981 74.2484 77.4085 76.0495C76.2945 78.0773 77.6586 80.9623 80.3328 82.2343C81.3132 82.7006 81.4917 82.7326 83.1087 82.7326C84.791 82.7326 84.8687 82.7169 86.024 82.1434C88.9733 80.6797 90.523 77.5638 90.3299 73.4865C90.132 69.3097 88.1743 66.2092 84.6709 64.5237C82.5654 63.5109 81.4637 63.2729 78.9571 63.2897C77.21 63.3013 76.5788 63.3744 75.2939 63.7146C70.7067 64.9292 66.9793 67.9841 65.0993 72.0695C63.2025 76.1916 63.5165 81.8455 65.9053 86.5788C68.1861 91.0986 72.6704 94.5161 77.528 95.4364C78.903 95.697 82.2053 95.7461 83.504 95.5256ZM108.545 72.0472C109.097 71.7464 109.446 71.0585 109.446 70.2711C109.446 69.7775 109.336 69.5288 108.92 69.0858C108.479 68.6167 108.286 68.5252 107.739 68.5252C106.521 68.5252 105.694 69.2869 105.694 70.4091C105.694 71.8606 107.248 72.7537 108.545 72.0472ZM104.404 69.3632C104.732 69.2299 104.622 68.7634 104.156 68.3152C103.913 68.0809 103.227 67.6536 102.632 67.3657C101.348 66.744 99.643 65.461 98.0481 63.9159C96.9922 62.893 96.9342 62.857 97.3831 63.503C98.7629 65.4892 101.425 68.1196 102.957 69.0098C103.722 69.4539 104.007 69.5238 104.404 69.3632ZM104.599 63.9631C106.533 63.7419 107.803 63.3206 112.01 61.5061C113.91 60.6862 114.08 60.6413 114.98 60.7229C115.69 60.7874 116.29 60.9912 117.321 61.5182C118.456 62.0981 118.643 62.1576 118.351 61.8457C117.8 61.2565 115.82 59.9304 114.718 59.4128C113.513 58.8464 112.363 58.7219 106.084 58.4783C101.311 58.2931 100.163 58.1728 98.6313 57.6976C96.9398 57.1731 95.0323 55.7296 94.0052 54.1969C93.7871 53.8713 93.5816 53.6321 93.5487 53.6652C93.3982 53.8162 94.3497 55.9748 94.8713 56.6663C95.7174 57.7879 97.8706 59.467 99.5039 60.2789C101.983 61.5116 104.591 61.9309 106.411 61.3896C107.054 61.1986 107.131 61.1972 106.887 61.3812C106.493 61.6777 104.638 62.0887 103.694 62.0887C101.177 62.0887 97.8501 60.4116 95.6862 58.0521L94.7091 56.9866L95.0645 57.693C95.7224 59.0011 96.8518 60.5909 97.8024 61.5477C99.7123 63.4696 101.953 64.2661 104.599 63.9631ZM86.3926 59.5182C88.3292 58.6128 89.6936 55.7723 90.2078 51.5746C90.415 49.8845 90.4189 47.3802 90.2146 47.2533C90.1268 47.199 90.0582 47.3218 90.0582 47.5329C90.0582 48.2593 89.1252 49.806 88.0142 50.9215C87.415 51.5231 86.1892 52.5181 85.2903 53.1324C83.1417 54.601 82.3969 55.5924 82.3969 56.9838C82.3969 57.8709 82.6878 58.5825 83.2767 59.1351C84.1749 59.9785 85.1515 60.0984 86.3926 59.5182ZM108.032 57.0605C109.669 56.715 111.069 55.6494 112.309 53.8052C112.615 53.3506 113.516 51.8504 114.312 50.4714C116.455 46.7609 117.398 45.8083 119.116 45.6208L120 45.5244L119.14 45.0284C117.435 44.0445 116.468 43.8061 114.215 43.8134C112.379 43.8194 112.068 43.8629 111.01 44.2607C108.33 45.2678 105.981 47.1606 104.395 49.5925C104.108 50.0328 103.477 50.9961 102.994 51.7332C102.183 52.9679 100.658 54.6067 99.5176 55.4688L99.0486 55.8235L99.7522 55.7202C101.125 55.5186 104.076 54.528 105.772 53.6993C107.485 52.8621 108.497 52.0184 109.738 50.3931C110.231 49.7473 110.04 50.3134 109.399 51.3974C108.155 53.5032 106.441 54.5547 102.446 55.6632C101.132 56.0274 100.083 56.3505 100.113 56.3808C100.143 56.4111 101.077 56.5745 102.188 56.7437C104.682 57.1236 107.11 57.2552 108.032 57.0605ZM98.9383 53.4806C102.068 52.3589 103.125 48.6124 100.997 46.1851C99.2453 44.1868 96.0362 44.4061 94.6747 46.6172C94.2737 47.2687 94.2016 47.5428 94.2016 48.4185C94.2016 49.2648 94.2799 49.5851 94.6358 50.1926C96.0003 52.5234 99.4157 52.1851 100.087 49.6526C100.261 48.9945 100.249 48.8287 99.975 48.165C99.5806 47.2095 98.868 46.7039 97.9159 46.7039C97.0238 46.7039 96.3735 47.0948 96.0342 47.8353C95.6884 48.5903 95.4631 48.5954 95.5842 47.8457C95.9599 45.5208 99.3671 44.9919 100.837 47.0301C102.451 49.2661 101.208 52.4128 98.3867 53.2363C95.904 53.961 93.3824 52.4313 92.4615 49.6418L92.2431 48.9802L92.3361 49.5995C92.5541 51.0507 93.8451 52.6721 95.2936 53.3134C96.3754 53.7925 97.8759 53.8613 98.9383 53.4806ZM44.9501 53.5373C49.8386 52.7558 53.9973 49.3776 56.1647 44.4276C57.2531 41.9417 57.6556 38.5523 57.1629 36.0196C56.7687 33.9921 55.6167 31.7571 54.2681 30.4031C53.1017 29.2319 51.3576 28.2437 49.6407 27.7812C48.2218 27.3988 45.6483 27.3145 44.2871 27.6057C40.3171 28.4548 37.8838 31.5238 38.1857 35.3008C38.3596 37.4757 40.1242 39.8112 42.0092 40.3614C44.3586 41.0471 46.2408 39.6701 46.095 37.3722C46.0292 36.3358 45.725 35.7675 45.0042 35.3355C44.4077 34.978 43.0418 35.0119 42.4079 35.4C41.4757 35.9706 40.9046 37.3666 41.2392 38.2565C41.4789 38.8942 41.2357 38.8 40.5124 37.9749C39.5867 36.9188 39.1906 35.7529 39.2913 34.3803C39.5587 30.7363 42.2508 28.4933 46.3569 28.4933C49.1091 28.4933 51.5171 29.4996 53.4776 31.4692C54.8731 32.8711 55.5129 34.0712 55.9044 36.0218C56.9071 41.0178 54.0419 46.5301 49.1716 48.975C45.7623 50.6865 41.1738 50.9487 38.3493 49.5934C34.6851 47.8352 31.7152 44.948 30.1845 41.6558C29.3684 39.9008 29.0894 38.781 28.9777 36.8137C28.754 32.8676 30.0666 29.3577 32.8924 26.3455C37.0576 21.9056 43.7432 20.1715 50.99 21.6513C53.6116 22.1866 54.8032 22.565 59.1484 24.2413C66.6684 27.1426 70.5269 28.4619 72.7056 28.877C75.8974 29.4848 80.1735 29.541 83.804 29.0227C85.501 28.7803 87.7639 28.2589 88.1793 28.0145C88.5067 27.8219 88.4657 27.8263 86.6608 28.1781C78.1972 29.828 69.2462 27.9997 58.5607 22.4387C55.1117 20.6437 51.3676 19.3729 48.1553 18.907C46.2283 18.6274 42.887 18.6611 41.1194 18.9781C36.7527 19.7612 33.1704 21.6485 30.0964 24.7857C27.7497 27.1807 26.626 29.1249 25.6851 32.418C25.2049 34.0987 25.0282 37.4416 25.3222 39.284C26.3411 45.6698 30.8279 50.7576 37.2493 52.809C40.0912 53.717 42.4381 53.9388 44.9501 53.5373ZM84.6551 51.0225C86.2679 50.3568 88.0674 48.9022 88.6587 47.7862C88.8128 47.4951 88.7067 47.5471 88.1873 48.0168C87.305 48.8146 86.5315 49.1413 84.411 49.6123C82.248 50.0926 81.6815 50.5159 82.3298 51.1669C82.6827 51.5212 83.5823 51.4653 84.6551 51.0225ZM86.2124 48.1179C88.522 47.3772 90.2505 45.3219 90.4608 43.066L90.5387 42.2297L90.1695 43.1892C89.1296 45.8929 87.5037 47.286 85.1931 47.4532C83.711 47.5604 82.7041 47.1912 81.6929 46.1697C80.8454 45.3134 80.5206 44.5522 80.5206 43.4219C80.5206 41.6957 82.1362 40.2989 83.584 40.7735C84.6244 41.1147 85.0539 42.6134 84.1502 42.7494C83.3147 42.8751 83.4002 43.7641 84.2662 43.955C84.8783 44.09 85.5 43.7775 85.9481 43.1092C86.8869 41.709 85.8739 39.6777 83.9851 39.173C83.1284 38.9441 81.9412 39.1733 81.1019 39.7295L80.5106 40.1214L80.9759 39.4765C82.4313 37.4593 81.5125 34.6436 79.2624 34.2251C78.5671 34.0957 77.5078 34.4957 77.1682 35.0161C76.8017 35.5777 76.8525 36.4312 77.2699 36.7248C77.6415 36.9862 77.7849 36.9138 78.0798 36.3166C78.352 35.7651 79.1023 35.7463 79.6316 36.2779C80.4531 37.1027 80.0687 38.7441 78.8819 39.4807C77.2395 40.4997 74.8254 39.6405 73.8799 37.7002C72.974 35.841 73.3007 33.7887 74.7574 32.1885C75.7321 31.1177 76.5336 30.6275 77.8665 30.2875C79.2241 29.941 79.2534 29.8428 77.9645 29.9583C73.167 30.3881 70.7579 36.1538 73.9115 39.6587C74.7865 40.6311 75.825 41.0931 77.3153 41.1729C78.4819 41.2354 78.6289 41.2065 79.4971 40.7453C80.1211 40.4135 80.3463 40.3438 80.1804 40.5336C79.0529 41.8236 78.9142 44.2469 79.8785 45.8135C80.5031 46.8281 81.7066 47.7701 82.8193 48.1152C84.0705 48.5031 85.0086 48.5039 86.2124 48.1179ZM102.224 45.2135C104.174 43.5663 103.778 38.9317 101.462 36.2903C100.977 35.7366 100.385 35.342 99.0129 34.6563C96.3854 33.3438 95.3251 32.2528 94.7391 30.2594C94.6312 29.8925 94.4916 29.5922 94.4289 29.5922C94.2139 29.5922 93.9242 32.7758 94.0226 34.0596C94.1401 35.5948 94.4311 36.6166 95.0645 37.7185C95.5731 38.6035 95.9653 38.9201 98.2213 40.2674C100.087 41.3815 101.694 42.9257 101.933 43.8331C102.072 44.3627 102.06 44.6053 101.875 45.0497C101.748 45.3552 101.671 45.605 101.703 45.605C101.735 45.605 101.969 45.4288 102.224 45.2135ZM70.5696 37.4809C70.6906 37.2433 70.9056 36.3093 71.0473 35.4048C71.3318 33.5877 71.7701 32.4665 72.5395 31.5866C73.383 30.6219 72.7919 30.9332 71.7018 32.0277C69.9469 33.7897 68.7637 36.7843 69.4998 37.601C69.8921 38.0363 70.3105 37.9892 70.5696 37.4809ZM64.8297 37.6854C65.6706 37.3181 66.4953 36.4319 67.4674 34.8512C69.2207 32.0003 70.7586 30.4673 72.4563 29.8779L73.2501 29.6024L71.675 29.5974C67.8925 29.585 63.8803 30.8301 62.0944 32.5701C61.1346 33.5054 60.7729 34.3274 60.8502 35.3987C60.9268 36.4626 61.3618 37.1553 62.2341 37.6022C62.9406 37.9641 64.1064 38.0014 64.8297 37.6854ZM86.3057 37.2578C87.3553 36.9608 88.182 35.8446 88.182 34.724C88.182 33.8783 87.5633 32.8808 86.781 32.4656C85.9611 32.0301 85.3469 32.0134 84.4922 32.4031C82.7266 33.2083 82.4965 35.8554 84.1021 36.8896C84.7884 37.3317 85.578 37.4636 86.3057 37.2578ZM104.441 33.7131C104.438 32.2302 103.147 30.4423 101.575 29.744C100.69 29.3508 99.173 29.1299 97.5397 29.1563C96.5148 29.1727 96.0914 29.1148 95.7909 28.9172L95.3946 28.6564L95.7209 29.399C96.4192 30.9885 97.3418 32.0541 98.405 32.4995C99.0334 32.7626 100.629 32.831 101.85 32.6472C102.87 32.4935 103.601 32.8693 103.987 33.7471C104.16 34.1386 104.333 34.4588 104.372 34.4588C104.411 34.4588 104.442 34.1232 104.441 33.7131ZM6.41896 32.8277C6.90788 32.1112 7.82959 31.5307 8.83729 31.3042C9.79121 31.0899 11.7983 31.169 15.2428 31.5564C21.1394 32.2199 23.1801 31.5494 25.3822 28.225C26.3918 26.7011 28.5681 22.6847 28.3844 22.6847C28.3317 22.6847 27.2882 23.4647 26.0655 24.4177C22.5366 27.1686 20.9324 27.8263 18.1546 27.6613C16.0735 27.5376 16.0393 27.3005 18.0875 27.1989C20.0082 27.1036 21.2065 26.728 23.0605 25.6397C24.4417 24.8292 26.7096 23.1388 27.8293 22.0852L28.6892 21.2763L28.0133 21.5066C26.2146 22.1198 24.7596 22.2521 21.1061 22.1353C17.1331 22.0083 15.9026 22.1519 13.5051 23.0231C10.168 24.2355 7.3968 27.084 6.50371 30.2202C6.25761 31.0841 5.91097 33.2265 6.00243 33.3182C6.02917 33.345 6.21664 33.1243 6.41896 32.8277ZM91.4853 32.3106C92.3391 31.7786 92.6413 30.6662 92.177 29.7647C91.848 29.126 91.2696 28.8073 90.4389 28.8073C89.8232 28.8073 89.6343 28.8875 89.1826 29.341C88.7309 29.7946 88.651 29.9842 88.651 30.6024C88.651 31.0141 88.763 31.5017 88.9087 31.7251C89.4383 32.5365 90.6727 32.8171 91.4853 32.3106ZM104.128 28.8878C104.517 28.4181 104.183 27.9109 103.152 27.4051C101.879 26.7799 100.129 26.5266 98.6619 26.7551C96.8107 27.0435 96.6989 27.1873 98.2668 27.2635C99.6061 27.3286 99.7598 27.3751 101.453 28.2266C103.304 29.1574 103.804 29.2807 104.128 28.8878ZM94.5443 28.8043C95.0553 28.5999 95.4072 27.9735 95.2853 27.4859C95.0762 26.6496 93.9414 26.3212 93.3416 26.9234C92.5139 27.7545 93.4622 29.2373 94.5443 28.8043ZM72.7439 27.2332C70.2483 25.981 69.1612 23.275 70.2224 20.9569C70.9824 19.2968 72.3269 18.3863 74.0361 18.3742C76.4584 18.3572 78.2544 20.5704 77.477 22.6143C76.9954 23.8802 75.7488 24.7429 74.7663 24.49C74.3689 24.3876 74.3923 24.3634 75.1771 24.0672C76.1785 23.6893 76.6104 23.0895 76.6111 22.0753C76.6119 21.1508 76.1468 20.4359 75.2662 20.0078C72.9504 18.8823 70.5965 21.596 71.7726 24.0355C72.3277 25.1867 73.4153 25.8298 74.8357 25.847C77.5868 25.8799 79.3659 22.7885 78.0834 20.2042C76.7847 17.5875 73.3779 17.0044 71.1481 19.0173C69.0683 20.8949 68.9365 23.9537 70.8451 26.0504C71.565 26.8413 72.9337 27.7084 73.4622 27.7084C73.588 27.7084 73.2648 27.4945 72.7439 27.2332ZM92.4009 27.3002C92.3995 27.2225 92.0125 26.9912 91.5411 26.7864C90.5004 26.3341 89.4039 25.3931 88.8926 24.5138C88.6842 24.1554 88.2522 23.1204 87.9324 22.2138C87.2334 20.2309 86.8786 19.6357 85.8904 18.7877C83.2959 16.561 79.2072 16.0647 77.655 17.7881C77.3718 18.1024 77.3751 18.1048 77.9972 18.021C78.3428 17.9743 78.8043 17.9814 79.0229 18.0365C80.0487 18.2949 81.238 19.9225 82.5479 22.8606C83.709 25.4648 84.6551 26.2853 87.3251 27.0029C88.3761 27.2854 92.4051 27.5214 92.4009 27.3002ZM108.002 26.3074C109.332 25.9681 110.384 24.6904 110.384 23.4138C110.384 22.6047 109.865 21.6607 109.163 21.1943C107.181 19.8778 103.599 20.6538 99.7647 23.2303C98.4919 24.0855 96.5808 25.6754 96.6917 25.7867C96.7369 25.8322 96.8635 25.7958 96.9731 25.706C97.3768 25.3749 98.9027 25.0396 100.005 25.0396C101.26 25.0396 102.748 25.3166 104.696 25.9134C106.169 26.3642 107.266 26.495 108.002 26.3074ZM93.156 25.8079C93.0319 25.4502 93.04 24.8871 93.1867 23.694C93.2966 22.7995 93.3434 21.7025 93.2908 21.2562C93.0937 19.5858 91.8697 17.7246 90.557 17.0991C89.8542 16.7643 88.5533 16.5905 88.715 16.8531C88.7759 16.9522 88.9031 17.0332 88.9973 17.0332C89.3546 17.0332 90.1789 17.8222 90.2612 18.2428C90.3082 18.4841 90.208 19.388 90.0383 20.2514C89.6192 22.3854 89.8792 23.5797 91.0098 24.7149C91.4849 25.192 93.0474 26.2955 93.2478 26.2955C93.2905 26.2955 93.2492 26.076 93.156 25.8079ZM68.9521 25.4509C67.6613 24.4254 66.4029 22.5238 65.9759 20.9539C65.5841 19.5128 65.5442 18.2222 65.7123 12.438C65.8996 5.98988 65.8635 5.4748 65.1022 3.73898C64.6541 2.71762 63.021 0.17112 62.895 0.297493C62.8504 0.342392 62.9647 0.635803 63.1491 0.949623C63.6769 1.84791 64.1034 3.29109 64.1034 4.17902C64.1034 4.89739 63.9147 5.37119 62.4921 8.22632C59.8153 13.5983 59.3898 15.8379 60.4909 18.76C61.1551 20.523 63.5324 23.0337 65.6868 24.2474L66.3706 24.6325L65.5521 23.8105C62.9467 21.194 61.4731 17.1721 62.0677 14.3C62.2724 13.3112 62.8099 11.9144 62.9367 12.0418C62.9788 12.0838 62.8914 12.3942 62.7427 12.7311C62.3734 13.568 62.3718 16.2654 62.7399 17.6301C63.6916 21.1591 65.9473 24.4093 68.191 25.484C69.5317 26.1262 69.788 26.1151 68.9521 25.4509ZM97.1743 24.0683C99.024 22.0623 100.084 20.5302 101.009 18.5246C102.276 15.7774 102.279 13.5683 101.019 12.303C99.9346 11.2138 98.4743 11.1777 97.3021 12.2111C96.0897 13.2798 95.9119 14.4732 96.5478 17.2715C97.2625 20.4171 97.2277 22.761 96.4431 24.3052C96.2731 24.6396 96.1648 24.9436 96.202 24.9812C96.2393 25.0185 96.6768 24.6077 97.1743 24.0683ZM95.143 23.9014C95.6946 21.962 95.4161 18.9836 94.5839 17.9214C94.1508 17.3685 93.389 17.3382 93.2564 17.8687C93.1637 18.24 93.3665 18.8423 94.2971 20.9579C94.7551 21.9992 94.8148 22.2942 94.8139 23.5089C94.8132 24.2644 94.8242 24.8826 94.8384 24.8826C94.8525 24.8826 94.9896 24.441 95.143 23.9014ZM6.64333 24.2666C7.27876 24.1089 8.02534 23.706 8.29646 23.3744C8.77897 22.7841 11.3127 20.7772 12.0468 20.4037C12.4741 20.1863 13.1037 19.9924 13.4461 19.9729C13.7884 19.9535 14.0689 19.9163 14.0694 19.8905C14.072 19.7309 11.5987 18.7128 10.5663 18.4486C8.38778 17.8911 7.02984 18.1029 5.07979 19.3045C2.78498 20.7186 2.03167 20.9072 0.643402 20.4153C0.288635 20.2897 -0.000930786 20.2367 0 20.2976C0.00360107 20.5361 1.21487 21.924 2.03089 22.6245C3.49733 23.8832 5.42377 24.5691 6.64333 24.2666ZM59.9846 21.1103C58.7016 19.6838 57.0431 17.1431 56.5184 15.8005C56.0256 14.5393 55.5257 13.8934 55.0424 13.8934C54.7256 13.8934 54.652 14.0887 54.7166 14.7569C54.8063 15.6845 56.6458 18.2092 58.7034 20.2288C60.4063 21.9003 61.1637 22.4213 59.9846 21.1103ZM101.665 20.7134C102.072 20.5006 103.205 20.016 104.183 19.6365C107.268 18.4393 108.261 17.802 108.808 16.6663C109.895 14.412 107.987 12.0904 105.801 13.0074C105.194 13.2623 103.998 14.5603 103.425 15.5865C103.197 15.9936 102.691 17.0685 102.299 17.9751C101.907 18.8817 101.419 19.9591 101.214 20.3692C101.009 20.7792 100.86 21.1116 100.883 21.1075C100.906 21.1036 101.258 20.9262 101.665 20.7134ZM23.6859 20.8681C23.8579 20.8279 24.6142 20.677 25.3667 20.5326C26.1191 20.3882 26.7348 20.2128 26.7348 20.143C26.7348 20.0731 26.6387 20.016 26.5212 20.016C26.4038 20.016 25.8001 19.761 25.1797 19.4494C24.3126 19.0137 23.5891 18.4371 22.0516 16.9558C20.9514 15.8961 19.7433 14.8501 19.367 14.6316C18.4295 14.0873 17.1547 13.7364 16.1134 13.7363C15.1362 13.7361 12.663 14.1876 12.663 14.3663C12.663 14.43 12.8869 14.527 13.1605 14.582C13.8944 14.7294 14.8013 15.7853 15.8432 17.7057C17.291 20.374 18.0289 20.801 21.3406 20.8877C22.4585 20.9169 23.5139 20.9081 23.6859 20.8681ZM68.7941 19.3288C69.8074 18.2417 71.411 17.0666 72.9374 16.2925C74.6362 15.4311 76.112 14.4198 77.2082 13.366C80.9204 9.79745 81.9656 5.18625 79.9873 1.10598L79.451 0L79.4352 0.627953C79.3902 2.40317 78.2224 3.50946 74.4392 5.36019C70.9694 7.0577 69.7339 7.79366 68.7667 8.73968C67.1817 10.2896 66.7788 12.1359 67.0767 16.4837C67.2462 18.9601 67.3031 19.3902 67.4382 19.218C67.4663 19.1819 67.7917 18.2695 68.161 17.1902C68.5304 16.1109 69.0742 14.7138 69.3696 14.0857C70.2736 12.1626 72.0703 10.5212 74.0363 9.82227C74.5718 9.63184 74.6314 9.57799 72.8277 10.9168C71.5495 11.8656 70.9217 12.6705 69.9161 14.6498C69.1454 16.1668 67.8032 19.764 67.8889 20.083C67.9138 20.1756 68.3211 19.8362 68.7941 19.3288ZM55.2851 12.1038C55.7297 11.6573 55.8157 11.4582 55.8112 10.8871C55.8045 10.0656 55.5599 9.5816 54.9463 9.17531C53.5966 8.28205 51.8884 9.43167 52.109 11.0846C52.2432 12.0887 52.8968 12.6375 53.9586 12.6375C54.6542 12.6375 54.8199 12.5708 55.2851 12.1038Z" fill="#6B745D"/>
</svg>
