<svg width="123" height="120" viewBox="0 0 123 120" fill="none" xmlns="http://www.w3.org/2000/svg">
<path fill-rule="evenodd" clip-rule="evenodd" d="M0.431717 93.2897C1.6815 92.6638 2.65388 92.8401 4.94041 94.1065C6.91594 95.2007 7.99586 95.4595 9.54675 95.2105C10.6621 95.0317 12.076 94.5346 13.3495 93.874L14.2074 93.4289L13.4225 93.342C12.3149 93.2194 11.3389 92.6781 9.62147 91.234C7.52537 89.4716 7.05535 89.2178 5.88626 89.2178C4.60398 89.2178 3.22406 89.8645 1.8939 91.0886C0.917437 91.9871 0 93.0919 0 93.3692C0 93.4444 0.194194 93.4087 0.431717 93.2897ZM5.88532 81.7266C6.63541 85.8457 9.42367 88.9717 13.5795 90.3529C16.0779 91.1832 18.0582 91.332 21.7686 90.9679C23.8385 90.7649 26.1685 90.9308 27.6941 91.3899C28.1179 91.5175 28.534 91.6217 28.6186 91.6217C28.7034 91.6217 28.2506 91.1965 27.6126 90.6767C24.808 88.3924 21.705 86.6201 19.8094 86.2199C19.2323 86.0981 18.1596 85.9927 17.4257 85.9858C15.6779 85.9692 16.25 85.6937 18.2891 85.5699C20.9591 85.4078 22.551 86.0446 26.1385 88.7101C27.3473 89.6084 28.3622 90.3178 28.3939 90.2866C28.4741 90.208 27.1459 87.7837 26.1358 86.1648C24.4584 83.4768 23.1632 82.2558 21.4288 81.728C20.4445 81.4284 16.4636 81.5232 13.8192 81.909C11.278 82.2798 8.91864 82.3365 7.9461 82.0504C7.53542 81.9295 6.99946 81.5629 6.47575 81.0442C6.02237 80.5955 5.658 80.3117 5.66569 80.4135C5.67354 80.5154 5.77229 81.1063 5.88532 81.7266ZM12.7947 98.9946C12.9526 99.0859 14.5231 99.37 15.5418 99.4917C16.4423 99.5989 18.0172 99.3094 18.9682 98.8616C19.6252 98.5521 20.4659 97.8532 22.1723 96.1979C24.1589 94.2709 24.6571 93.8726 25.6997 93.3795L26.9138 92.8053L25.9766 92.611C22.8846 91.9698 19.9835 92.06 18.2889 92.8498C17.1417 93.3845 16.8286 93.7621 15.6944 95.9796C14.7498 97.8267 14.1043 98.5584 13.24 98.762C12.9088 98.84 12.7085 98.9447 12.7947 98.9946ZM27.4744 83.504C28.08 87.0664 29.9032 90.47 32.5907 93.0543C34.0571 94.4644 34.4463 94.7712 36.0023 95.7442C40.9274 98.8239 46.9439 99.7009 53.2974 98.2652C55.5139 97.7644 56.9539 97.2902 60.0055 96.0566C66.2825 93.5188 70.7483 92.2941 75.6375 91.7697C79.6048 91.3442 84.8896 91.7675 88.4545 92.7964C90.0528 93.2577 90.3946 93.2156 89.0672 92.7209C87.4966 92.1357 85.697 91.6643 83.6706 91.3073C81.1951 90.8712 76.2487 90.7097 73.9849 90.991C72.0734 91.2287 68.0819 92.2176 62.8283 93.7554C56.4001 95.6369 55.6519 95.835 53.7161 96.1687C41.9118 98.2027 32.3678 92.6324 31.0929 82.9647C30.6338 79.4843 31.8409 75.5803 34.2657 72.7029C35.5645 71.1617 37.4531 69.6689 39.3561 68.6791C42.0949 67.2548 42.4704 67.1534 44.977 67.1608C46.7588 67.1659 47.4274 67.2349 48.5091 67.5249C52.4611 68.5841 55.4632 70.9577 57.2158 74.4089C58.2755 76.4953 58.7067 80.0333 58.1617 82.1686C57.018 86.6497 53.0099 89.4764 48.138 89.238C44.7025 89.0697 42.2941 87.4139 41.5165 84.6856C41.1654 83.4532 41.2548 81.7783 41.723 80.823C42.0479 80.1597 43.4627 78.5693 43.6031 78.7092C43.6374 78.7435 43.5911 79.0396 43.5002 79.3675C42.9197 81.4617 45.4838 83.3936 47.2609 82.2009C48.9256 81.0836 48.7516 78.3981 46.9505 77.4085C44.9227 76.2945 42.0377 77.6586 40.7657 80.3328C40.2994 81.3132 40.2674 81.4917 40.2674 83.1087C40.2674 84.791 40.2831 84.8687 40.8566 86.024C42.3203 88.9733 45.4362 90.523 49.5135 90.3299C53.6903 90.132 56.7908 88.1743 58.4763 84.6709C59.4891 82.5654 59.7271 81.4637 59.7103 78.9571C59.6987 77.21 59.6256 76.5788 59.2854 75.2939C58.0708 70.7067 55.0159 66.9793 50.9305 65.0993C46.8084 63.2025 41.1545 63.5165 36.4212 65.9053C31.9014 68.1861 28.4839 72.6704 27.5636 77.528C27.303 78.903 27.2539 82.2053 27.4744 83.504ZM50.9528 108.545C51.2536 109.097 51.9415 109.446 52.7289 109.446C53.2225 109.446 53.4712 109.336 53.9142 108.92C54.3833 108.479 54.4748 108.286 54.4748 107.739C54.4748 106.521 53.7131 105.694 52.5909 105.694C51.1394 105.694 50.2463 107.248 50.9528 108.545ZM53.6368 104.404C53.7701 104.732 54.2366 104.622 54.6848 104.156C54.9191 103.913 55.3464 103.227 55.6343 102.632C56.256 101.348 57.539 99.643 59.0841 98.0481C60.107 96.9922 60.143 96.9342 59.497 97.3831C57.5108 98.7629 54.8804 101.425 53.9902 102.957C53.5461 103.722 53.4762 104.007 53.6368 104.404ZM59.0369 104.599C59.2581 106.533 59.6794 107.803 61.4939 112.01C62.3138 113.91 62.3587 114.08 62.2771 114.98C62.2126 115.69 62.0088 116.29 61.4818 117.321C60.9019 118.456 60.8424 118.643 61.1543 118.351C61.7435 117.8 63.0696 115.82 63.5872 114.718C64.1536 113.513 64.2781 112.363 64.5217 106.084C64.7069 101.311 64.8272 100.163 65.3024 98.6313C65.8269 96.9398 67.2704 95.0323 68.8031 94.0052C69.1287 93.7871 69.3679 93.5816 69.3348 93.5487C69.1838 93.3982 67.0252 94.3497 66.3337 94.8713C65.2121 95.7174 63.533 97.8706 62.7211 99.5039C61.4884 101.983 61.0691 104.591 61.6104 106.411C61.8014 107.054 61.8028 107.131 61.6188 106.887C61.3223 106.493 60.9113 104.638 60.9113 103.694C60.9113 101.177 62.5884 97.8501 64.9479 95.6862L66.0134 94.7091L65.307 95.0645C63.9989 95.7224 62.4091 96.8518 61.4523 97.8024C59.5304 99.7123 58.7339 101.953 59.0369 104.599ZM63.4818 86.3926C64.3872 88.3292 67.2277 89.6936 71.4254 90.2078C73.1155 90.415 75.6198 90.4189 75.7467 90.2146C75.801 90.1268 75.6782 90.0582 75.4671 90.0582C74.7407 90.0582 73.194 89.1252 72.0785 88.0142C71.4769 87.415 70.4819 86.1892 69.8676 85.2903C68.399 83.1417 67.4076 82.3969 66.0162 82.3969C65.1291 82.3969 64.4175 82.6878 63.8649 83.2767C63.0215 84.1749 62.9016 85.1515 63.4818 86.3926ZM65.9395 108.032C66.285 109.669 67.3506 111.069 69.1948 112.309C69.6494 112.615 71.1496 113.516 72.5286 114.312C76.2391 116.455 77.1917 117.398 77.3792 119.116L77.4756 120L77.9716 119.14C78.9555 117.435 79.1939 116.468 79.1866 114.215C79.1806 112.379 79.1371 112.068 78.7393 111.01C77.7322 108.33 75.8394 105.981 73.4075 104.395C72.9672 104.108 72.0039 103.477 71.2668 102.994C70.0321 102.183 68.3933 100.658 67.5312 99.5176L67.1765 99.0486L67.2798 99.7522C67.4814 101.125 68.472 104.076 69.3007 105.772C70.1379 107.485 70.9816 108.497 72.6069 109.738C73.2527 110.231 72.6866 110.04 71.6026 109.399C69.4968 108.155 68.4453 106.441 67.3368 102.446C66.9726 101.132 66.6495 100.083 66.6192 100.113C66.5889 100.143 66.4255 101.077 66.2563 102.188C65.8764 104.682 65.7448 107.11 65.9395 108.032ZM69.5194 98.9383C70.6411 102.068 74.3876 103.125 76.8149 100.997C78.8132 99.2453 78.5939 96.0362 76.3828 94.6747C75.7313 94.2737 75.4572 94.2016 74.5815 94.2016C73.7352 94.2016 73.4149 94.2799 72.8074 94.6358C70.4766 96.0003 70.8149 99.4157 73.3474 100.087C74.0055 100.261 74.1713 100.249 74.835 99.975C75.7905 99.5806 76.2961 98.868 76.2961 97.9159C76.2961 97.0238 75.9052 96.3735 75.1647 96.0342C74.4097 95.6884 74.4046 95.4631 75.1543 95.5842C77.4792 95.9599 78.0081 99.3671 75.9699 100.837C73.7339 102.451 70.5872 101.208 69.7637 98.3867C69.039 95.904 70.5687 93.3824 73.3582 92.4615L74.0198 92.2431L73.4005 92.3361C71.9493 92.5541 70.3279 93.8451 69.6866 95.2936C69.2075 96.3754 69.1387 97.8759 69.5194 98.9383ZM69.4627 44.9501C70.2442 49.8386 73.6225 53.9973 78.5724 56.1647C81.0583 57.2531 84.4477 57.6556 86.9804 57.1629C89.0079 56.7687 91.2429 55.6167 92.5969 54.2681C93.7681 53.1017 94.7563 51.3576 95.2188 49.6407C95.6012 48.2218 95.6855 45.6484 95.3943 44.2871C94.5452 40.3171 91.4762 37.8838 87.6992 38.1857C85.5243 38.3596 83.1888 40.1242 82.6386 42.0092C81.9529 44.3586 83.33 46.2408 85.6278 46.095C86.6642 46.0292 87.2325 45.725 87.6645 45.0042C88.022 44.4077 87.9881 43.0418 87.6 42.4079C87.0294 41.4757 85.6334 40.9046 84.7435 41.2392C84.1058 41.4789 84.2 41.2357 85.0251 40.5124C86.0812 39.5867 87.2471 39.1906 88.6197 39.2913C92.2637 39.5587 94.5067 42.2508 94.5067 46.3569C94.5067 49.1091 93.5004 51.5171 91.5308 53.4776C90.1289 54.8731 88.9288 55.5129 86.9782 55.9044C81.9822 56.9071 76.4699 54.0419 74.025 49.1716C72.3135 45.7623 72.0513 41.1738 73.4066 38.3493C75.1648 34.6851 78.052 31.7152 81.3442 30.1845C83.0992 29.3685 84.219 29.0893 86.1863 28.9777C90.1324 28.754 93.6423 30.0666 96.6545 32.8924C101.094 37.0576 102.828 43.7432 101.349 50.99C100.813 53.6116 100.435 54.8032 98.7587 59.1484C95.8574 66.6684 94.5381 70.5269 94.123 72.7056C93.5152 75.8974 93.459 80.1735 93.9773 83.804C94.2197 85.501 94.7411 87.7639 94.9855 88.1793C95.1781 88.5067 95.1737 88.4657 94.8219 86.6608C93.172 78.1972 95.0003 69.2462 100.561 58.5607C102.356 55.1117 103.627 51.3676 104.093 48.1553C104.373 46.2283 104.339 42.887 104.022 41.1194C103.239 36.7527 101.352 33.1704 98.2143 30.0964C95.8193 27.7497 93.8751 26.626 90.582 25.6851C88.9013 25.2049 85.5584 25.0282 83.716 25.3222C77.3302 26.3411 72.2424 30.8279 70.191 37.2493C69.283 40.0912 69.0612 42.4381 69.4627 44.9501ZM71.9775 84.6551C72.6432 86.2679 74.0978 88.0674 75.2138 88.6587C75.5049 88.8128 75.4529 88.7067 74.9832 88.1873C74.1854 87.305 73.8587 86.5315 73.3877 84.411C72.9074 82.248 72.4841 81.6815 71.8331 82.3298C71.4788 82.6827 71.5347 83.5823 71.9775 84.6551ZM74.8821 86.2124C75.6228 88.522 77.6781 90.2505 79.934 90.4608L80.7703 90.5387L79.8108 90.1695C77.1071 89.1296 75.714 87.5037 75.5468 85.1931C75.4396 83.711 75.8088 82.7041 76.8303 81.6929C77.6865 80.8454 78.4478 80.5206 79.5781 80.5206C81.3043 80.5206 82.701 82.1362 82.2265 83.584C81.8853 84.6244 80.3866 85.0539 80.2506 84.1502C80.1249 83.3147 79.2359 83.4002 79.045 84.2662C78.91 84.8783 79.2225 85.5 79.8908 85.9481C81.291 86.8869 83.3223 85.8739 83.827 83.9851C84.0559 83.1284 83.8267 81.9412 83.2705 81.1019L82.8786 80.5106L83.5235 80.9759C85.5407 82.4313 88.3564 81.5125 88.7749 79.2624C88.9043 78.5671 88.5043 77.5078 87.9839 77.1682C87.4223 76.8017 86.5688 76.8525 86.2752 77.2699C86.0138 77.6415 86.0862 77.7849 86.6834 78.0798C87.2349 78.352 87.2537 79.1023 86.7221 79.6316C85.8973 80.4531 84.2559 80.0687 83.5193 78.8819C82.5003 77.2395 83.3595 74.8254 85.2998 73.8799C87.159 72.974 89.2113 73.3007 90.8115 74.7574C91.8823 75.7321 92.3725 76.5336 92.7125 77.8665C93.059 79.2241 93.1572 79.2534 93.0417 77.9645C92.6119 73.167 86.8462 70.7579 83.3413 73.9115C82.3689 74.7865 81.9069 75.825 81.8271 77.3153C81.7646 78.4819 81.7935 78.6289 82.2547 79.4971C82.5865 80.1211 82.6562 80.3463 82.4664 80.1804C81.1764 79.0529 78.7531 78.9142 77.1865 79.8785C76.1719 80.5031 75.2299 81.7066 74.8848 82.8193C74.4969 84.0705 74.4961 85.0086 74.8821 86.2124ZM77.7865 102.224C79.4337 104.174 84.0683 103.778 86.7097 101.462C87.2634 100.977 87.658 100.385 88.3437 99.0129C89.6562 96.3854 90.7472 95.3251 92.7406 94.7391C93.1075 94.6312 93.4078 94.4916 93.4078 94.4289C93.4078 94.2139 90.2242 93.9242 88.9404 94.0226C87.4052 94.1401 86.3834 94.4311 85.2815 95.0645C84.3965 95.5731 84.0799 95.9653 82.7326 98.2213C81.6185 100.087 80.0743 101.694 79.1669 101.933C78.6373 102.072 78.3947 102.06 77.9503 101.875C77.6448 101.748 77.395 101.671 77.395 101.703C77.395 101.735 77.5712 101.969 77.7865 102.224ZM85.5191 70.5696C85.7567 70.6906 86.6908 70.9056 87.5952 71.0473C89.4123 71.3318 90.5335 71.7701 91.4134 72.5395C92.3781 73.383 92.0668 72.7919 90.9723 71.7018C89.2103 69.9469 86.2157 68.7637 85.399 69.4998C84.9637 69.8921 85.0108 70.3105 85.5191 70.5696ZM85.3146 64.8297C85.6819 65.6706 86.5681 66.4953 88.1488 67.4674C90.9997 69.2207 92.5327 70.7586 93.1221 72.4563L93.3976 73.2501L93.4026 71.675C93.415 67.8925 92.1699 63.8803 90.4299 62.0944C89.4946 61.1346 88.6726 60.7729 87.6013 60.8502C86.5374 60.9268 85.8447 61.3618 85.3978 62.2341C85.0359 62.9406 84.9986 64.1064 85.3146 64.8297ZM85.7422 86.3057C86.0392 87.3553 87.1554 88.182 88.276 88.182C89.1217 88.182 90.1192 87.5633 90.5344 86.781C90.9699 85.9611 90.9866 85.3469 90.5969 84.4922C89.7917 82.7266 87.1446 82.4965 86.1104 84.1021C85.6683 84.7884 85.5364 85.578 85.7422 86.3057ZM89.2869 104.441C90.7698 104.438 92.5577 103.147 93.256 101.575C93.6492 100.69 93.8701 99.173 93.8437 97.5397C93.8272 96.5148 93.8852 96.0914 94.0828 95.7909L94.3436 95.3946L93.601 95.7209C92.0115 96.4192 90.9459 97.3418 90.5005 98.405C90.2374 99.0334 90.169 100.629 90.3528 101.85C90.5065 102.87 90.1307 103.601 89.2529 103.987C88.8614 104.16 88.5412 104.333 88.5412 104.372C88.5412 104.411 88.8768 104.442 89.2869 104.441ZM90.1723 6.41896C90.8888 6.90788 91.4693 7.82959 91.6958 8.83729C91.9101 9.79121 91.831 11.7983 91.4436 15.2428C90.7801 21.1394 91.4506 23.1801 94.775 25.3822C96.2989 26.3918 100.315 28.5681 100.315 28.3844C100.315 28.3317 99.5353 27.2882 98.5823 26.0655C95.8314 22.5366 95.1737 20.9324 95.3387 18.1546C95.4624 16.0735 95.6995 16.0393 95.8011 18.0875C95.8964 20.0082 96.272 21.2065 97.3603 23.0605C98.1708 24.4417 99.8612 26.7096 100.915 27.8293L101.724 28.6892L101.493 28.0133C100.88 26.2146 100.748 24.7596 100.865 21.1061C100.992 17.1331 100.848 15.9026 99.9769 13.5051C98.7645 10.168 95.916 7.3968 92.7798 6.50371C91.9159 6.25761 89.7735 5.91096 89.6818 6.00243C89.655 6.02917 89.8757 6.21664 90.1723 6.41896ZM90.6894 91.4853C91.2214 92.3391 92.3338 92.6413 93.2353 92.177C93.874 91.848 94.1927 91.2696 94.1927 90.4389C94.1927 89.8232 94.1125 89.6343 93.659 89.1826C93.2054 88.7309 93.0158 88.651 92.3976 88.651C91.9859 88.651 91.4983 88.763 91.2749 88.9087C90.4635 89.4383 90.1829 90.6727 90.6894 91.4853ZM94.1122 104.128C94.5819 104.517 95.0891 104.183 95.5949 103.152C96.2201 101.879 96.4734 100.129 96.2449 98.6619C95.9565 96.8107 95.8127 96.6989 95.7365 98.2668C95.6714 99.6061 95.6249 99.7598 94.7734 101.453C93.8426 103.304 93.7192 103.804 94.1122 104.128ZM94.1957 94.5443C94.4001 95.0553 95.0265 95.4072 95.5141 95.2853C96.3504 95.0762 96.6788 93.9414 96.0766 93.3416C95.2455 92.5139 93.7627 93.4622 94.1957 94.5443ZM95.7668 72.7439C97.019 70.2483 99.725 69.1612 102.043 70.2224C103.703 70.9824 104.614 72.3269 104.626 74.0361C104.643 76.4584 102.43 78.2544 100.386 77.477C99.1198 76.9954 98.2571 75.7488 98.51 74.7663C98.6124 74.3689 98.6366 74.3923 98.9328 75.1771C99.3107 76.1785 99.9105 76.6104 100.925 76.6111C101.849 76.6119 102.564 76.1468 102.992 75.2662C104.118 72.9504 101.404 70.5965 98.9645 71.7726C97.8133 72.3277 97.1702 73.4153 97.153 74.8357C97.1201 77.5868 100.211 79.3659 102.796 78.0834C105.412 76.7847 105.996 73.3779 103.983 71.1481C102.105 69.0683 99.0463 68.9365 96.9496 70.8451C96.1587 71.565 95.2916 72.9337 95.2916 73.4622C95.2916 73.588 95.5055 73.2648 95.7668 72.7439ZM95.6998 92.4009C95.7775 92.3994 96.0088 92.0125 96.2136 91.5411C96.6659 90.5004 97.6069 89.4039 98.4862 88.8926C98.8446 88.6842 99.8796 88.2522 100.786 87.9324C102.769 87.2334 103.364 86.8786 104.212 85.8904C106.439 83.2959 106.935 79.2072 105.212 77.655C104.898 77.3718 104.895 77.3751 104.979 77.9972C105.026 78.3428 105.019 78.8043 104.964 79.0229C104.705 80.0487 103.077 81.238 100.139 82.5479C97.5352 83.709 96.7147 84.6551 95.9971 87.3251C95.7146 88.3761 95.4786 92.4051 95.6998 92.4009ZM96.6926 108.002C97.0319 109.332 98.3096 110.384 99.5862 110.384C100.395 110.384 101.339 109.865 101.806 109.163C103.122 107.181 102.346 103.599 99.7697 99.7647C98.9145 98.4919 97.3246 96.5808 97.2133 96.6917C97.1678 96.7369 97.2042 96.8635 97.294 96.9731C97.6251 97.3768 97.9604 98.9027 97.9604 100.005C97.9604 101.261 97.6833 102.748 97.0866 104.696C96.6358 106.169 96.505 107.266 96.6926 108.002ZM97.1921 93.156C97.5498 93.0319 98.1129 93.04 99.306 93.1867C100.2 93.2966 101.298 93.3434 101.744 93.2908C103.414 93.0937 105.275 91.8697 105.901 90.557C106.236 89.8542 106.41 88.5533 106.147 88.715C106.048 88.7759 105.967 88.9031 105.967 88.9973C105.967 89.3546 105.178 90.1789 104.757 90.2612C104.516 90.3082 103.612 90.208 102.749 90.0383C100.615 89.6192 99.4203 89.8792 98.2851 91.0098C97.808 91.4849 96.7045 93.0474 96.7045 93.2478C96.7045 93.2905 96.924 93.2492 97.1921 93.156ZM97.5491 68.9521C98.5746 67.6613 100.476 66.4029 102.046 65.9759C103.487 65.5841 104.778 65.5442 110.562 65.7123C117.01 65.8996 117.525 65.8635 119.261 65.1022C120.282 64.6541 122.829 63.021 122.703 62.895C122.658 62.8504 122.364 62.9647 122.05 63.1491C121.152 63.6769 119.709 64.1034 118.821 64.1034C118.103 64.1034 117.629 63.9147 114.774 62.4921C109.402 59.8153 107.162 59.3898 104.24 60.4909C102.477 61.1551 99.9663 63.5324 98.7526 65.6868L98.3675 66.3706L99.1895 65.5521C101.806 62.9467 105.828 61.4731 108.7 62.0677C109.689 62.2724 111.086 62.8099 110.958 62.9367C110.916 62.9788 110.606 62.8914 110.269 62.7427C109.432 62.3734 106.735 62.3718 105.37 62.7399C101.841 63.6916 98.5907 65.9473 97.516 68.191C96.8738 69.5317 96.8849 69.788 97.5491 68.9521ZM98.9317 97.1743C100.938 99.024 102.47 100.084 104.475 101.009C107.223 102.276 109.432 102.279 110.697 101.019C111.786 99.9346 111.822 98.4743 110.789 97.3021C109.72 96.0897 108.527 95.9119 105.729 96.5478C102.583 97.2625 100.239 97.2277 98.6948 96.4431C98.3604 96.2731 98.0564 96.1648 98.0188 96.202C97.9815 96.2393 98.3923 96.6768 98.9317 97.1743ZM99.0986 95.143C101.038 95.6946 104.016 95.4161 105.079 94.5839C105.631 94.1508 105.662 93.389 105.131 93.2564C104.76 93.1637 104.158 93.3665 102.042 94.2971C101.001 94.7551 100.706 94.8148 99.4911 94.8139C98.7356 94.8132 98.1174 94.8242 98.1174 94.8384C98.1174 94.8525 98.559 94.9896 99.0986 95.143ZM98.7334 6.64333C98.8911 7.27876 99.294 8.02534 99.6256 8.29646C100.216 8.77897 102.223 11.3127 102.596 12.0468C102.814 12.4741 103.008 13.1037 103.027 13.4461C103.047 13.7884 103.084 14.0689 103.109 14.0694C103.269 14.072 104.287 11.5987 104.551 10.5663C105.109 8.38778 104.897 7.02984 103.696 5.07979C102.281 2.78498 102.093 2.03167 102.585 0.643402C102.71 0.288635 102.763 -0.000938416 102.702 0C102.464 0.00359344 101.076 1.21488 100.376 2.03089C99.1168 3.49734 98.4309 5.42377 98.7334 6.64333ZM101.89 59.9846C103.316 58.7016 105.857 57.0431 107.199 56.5184C108.461 56.0256 109.107 55.5257 109.107 55.0424C109.107 54.7256 108.911 54.652 108.243 54.7166C107.315 54.8063 104.791 56.6458 102.771 58.7034C101.1 60.4063 100.579 61.1637 101.89 59.9846ZM102.287 101.665C102.499 102.072 102.984 103.205 103.363 104.183C104.561 107.268 105.198 108.261 106.334 108.808C108.588 109.895 110.91 107.987 109.993 105.801C109.738 105.194 108.44 103.998 107.413 103.425C107.006 103.197 105.931 102.691 105.025 102.299C104.118 101.907 103.041 101.419 102.631 101.214C102.221 101.009 101.888 100.86 101.893 100.883C101.896 100.906 102.074 101.258 102.287 101.665ZM102.132 23.6859C102.172 23.8579 102.323 24.6142 102.467 25.3667C102.612 26.1191 102.787 26.7348 102.857 26.7348C102.927 26.7348 102.984 26.6387 102.984 26.5212C102.984 26.4038 103.239 25.8001 103.551 25.1797C103.986 24.3126 104.563 23.5891 106.044 22.0516C107.104 20.9514 108.15 19.7433 108.368 19.367C108.913 18.4295 109.264 17.1547 109.264 16.1134C109.264 15.1362 108.812 12.663 108.634 12.663C108.57 12.663 108.473 12.8869 108.418 13.1605C108.271 13.8944 107.215 14.8013 105.294 15.8432C102.626 17.291 102.199 18.0289 102.112 21.3406C102.083 22.4585 102.092 23.5139 102.132 23.6859ZM103.671 68.7941C104.758 69.8074 105.933 71.411 106.707 72.9374C107.569 74.6362 108.58 76.112 109.634 77.2082C113.203 80.9204 117.814 81.9656 121.894 79.9873L123 79.451L122.372 79.4352C120.597 79.3902 119.491 78.2224 117.64 74.4392C115.942 70.9694 115.206 69.7339 114.26 68.7667C112.71 67.1817 110.864 66.7788 106.516 67.0767C104.04 67.2462 103.61 67.3031 103.782 67.4382C103.818 67.4663 104.731 67.7917 105.81 68.161C106.889 68.5304 108.286 69.0742 108.914 69.3696C110.837 70.2736 112.479 72.0703 113.178 74.0363C113.368 74.5718 113.422 74.6314 112.083 72.8277C111.134 71.5495 110.33 70.9217 108.35 69.9161C106.833 69.1454 103.236 67.8032 102.917 67.8889C102.824 67.9138 103.164 68.3211 103.671 68.7941ZM110.896 55.2851C111.343 55.7297 111.542 55.8157 112.113 55.8112C112.934 55.8045 113.418 55.5599 113.825 54.9463C114.718 53.5966 113.568 51.8884 111.915 52.109C110.911 52.2432 110.362 52.8968 110.362 53.9586C110.362 54.6542 110.429 54.8199 110.896 55.2851Z" fill="#6B745D"/>
</svg>
