<svg width="101" height="87" viewBox="0 0 101 87" fill="none" xmlns="http://www.w3.org/2000/svg">
<circle cx="61" cy="47" r="40" fill="#D4D1C0"/>
<path d="M21.3954 7.25624C20.6437 8.01889 19.6175 8.44828 18.5466 8.44828H15.5037C13.2946 8.44828 11.5037 10.2391 11.5037 12.4483V14.5157C11.5037 15.9899 10.6929 17.3447 9.39354 18.0411L7.14347 19.2473C5.45586 20.1519 4.64605 22.1257 5.21197 23.9549L5.86263 26.0581C6.21976 27.2124 6.03592 28.4664 5.36245 29.4697L3.74848 31.874C2.64128 33.5234 2.91236 35.7355 4.38509 37.0687L6.27077 38.7758C7.13721 39.5602 7.61725 40.6843 7.5847 41.8526L7.48922 45.2795C7.4345 47.2436 8.81443 48.9566 10.7452 49.3214L12.8443 49.7179C13.9884 49.9341 14.9815 50.638 15.5644 51.6459L17.6314 55.22C18.4625 56.657 20.0947 57.4314 21.7334 57.166L25.4684 56.5612C26.728 56.3573 28.0093 56.7665 28.9174 57.6628L31.0125 59.7303C32.4379 61.137 34.684 61.2728 36.2685 60.048L38.8803 58.0291C39.7909 57.3252 40.9605 57.0477 42.0902 57.2674L45.2436 57.8806C47.1462 58.2506 49.0403 57.2033 49.7386 55.3952L50.6342 53.076C51.1386 51.7698 52.2893 50.8225 53.6681 50.5783L55.8799 50.1866C57.7902 49.8482 59.1824 48.1879 59.1824 46.2479V42.3193C59.1824 41.1452 59.6982 40.0304 60.5932 39.2703L62.4969 37.6537C64.0565 36.3293 64.3652 34.0415 63.2124 32.3511L61.8648 30.375C61.0971 29.2492 60.9553 27.81 61.4886 26.556L62.2345 24.8019C63.1843 22.5684 61.9423 20.0106 59.5998 19.3758L58.4355 19.0602C56.7274 18.5973 55.5265 17.067 55.483 15.2978L55.4106 12.35C55.3572 10.1798 53.5826 8.44828 51.4118 8.44828H47.5488C46.3363 8.44828 45.1893 7.89835 44.4301 6.95305L42.5584 4.62257C41.2805 3.03152 39.0098 2.65749 37.2892 3.75462L35.6806 4.7803C34.3689 5.61668 32.6912 5.61668 31.3795 4.7803L29.4753 3.56612C27.8843 2.55164 25.8006 2.78702 24.476 4.13087L21.3954 7.25624Z" stroke="#241E1F" stroke-width="2" stroke-miterlimit="10"/>
<path d="M25.7443 25.3636V37H23.6193L18.5568 29.6761H18.4716V37H16.0114V25.3636H18.1705L23.1932 32.6818H23.2955V25.3636H25.7443ZM27.777 37V25.3636H35.6179V27.392H30.2372V30.1648H35.2145V32.1932H30.2372V34.9716H35.6406V37H27.777ZM40.1932 37L36.8636 25.3636H39.5511L41.4773 33.4489H41.5739L43.6989 25.3636H46L48.1193 33.4659H48.2216L50.1477 25.3636H52.8352L49.5057 37H47.108L44.892 29.392H44.8011L42.5909 37H40.1932Z" fill="#241E1F"/>
<path d="M25.7443 25.3636H25.8693V25.2386H25.7443V25.3636ZM25.7443 37V37.125H25.8693V37H25.7443ZM23.6193 37L23.5165 37.0711L23.5538 37.125H23.6193V37ZM18.5568 29.6761L18.6596 29.6051L18.6224 29.5511H18.5568V29.6761ZM18.4716 29.6761V29.5511H18.3466V29.6761H18.4716ZM18.4716 37V37.125H18.5966V37H18.4716ZM16.0114 37H15.8864V37.125H16.0114V37ZM16.0114 25.3636V25.2386H15.8864V25.3636H16.0114ZM18.1705 25.3636L18.2735 25.2929L18.2363 25.2386H18.1705V25.3636ZM23.1932 32.6818L23.0901 32.7526L23.1274 32.8068H23.1932V32.6818ZM23.2955 32.6818V32.8068H23.4205V32.6818H23.2955ZM23.2955 25.3636V25.2386H23.1705V25.3636H23.2955ZM25.6193 25.3636V37H25.8693V25.3636H25.6193ZM25.7443 36.875H23.6193V37.125H25.7443V36.875ZM23.7221 36.9289L18.6596 29.6051L18.454 29.7472L23.5165 37.0711L23.7221 36.9289ZM18.5568 29.5511H18.4716V29.8011H18.5568V29.5511ZM18.3466 29.6761V37H18.5966V29.6761H18.3466ZM18.4716 36.875H16.0114V37.125H18.4716V36.875ZM16.1364 37V25.3636H15.8864V37H16.1364ZM16.0114 25.4886H18.1705V25.2386H16.0114V25.4886ZM18.0674 25.4344L23.0901 32.7526L23.2962 32.6111L18.2735 25.2929L18.0674 25.4344ZM23.1932 32.8068H23.2955V32.5568H23.1932V32.8068ZM23.4205 32.6818V25.3636H23.1705V32.6818H23.4205ZM23.2955 25.4886H25.7443V25.2386H23.2955V25.4886ZM27.777 37H27.652V37.125H27.777V37ZM27.777 25.3636V25.2386H27.652V25.3636H27.777ZM35.6179 25.3636H35.7429V25.2386H35.6179V25.3636ZM35.6179 27.392V27.517H35.7429V27.392H35.6179ZM30.2372 27.392V27.267H30.1122V27.392H30.2372ZM30.2372 30.1648H30.1122V30.2898H30.2372V30.1648ZM35.2145 30.1648H35.3395V30.0398H35.2145V30.1648ZM35.2145 32.1932V32.3182H35.3395V32.1932H35.2145ZM30.2372 32.1932V32.0682H30.1122V32.1932H30.2372ZM30.2372 34.9716H30.1122V35.0966H30.2372V34.9716ZM35.6406 34.9716H35.7656V34.8466H35.6406V34.9716ZM35.6406 37V37.125H35.7656V37H35.6406ZM27.902 37V25.3636H27.652V37H27.902ZM27.777 25.4886H35.6179V25.2386H27.777V25.4886ZM35.4929 25.3636V27.392H35.7429V25.3636H35.4929ZM35.6179 27.267H30.2372V27.517H35.6179V27.267ZM30.1122 27.392V30.1648H30.3622V27.392H30.1122ZM30.2372 30.2898H35.2145V30.0398H30.2372V30.2898ZM35.0895 30.1648V32.1932H35.3395V30.1648H35.0895ZM35.2145 32.0682H30.2372V32.3182H35.2145V32.0682ZM30.1122 32.1932V34.9716H30.3622V32.1932H30.1122ZM30.2372 35.0966H35.6406V34.8466H30.2372V35.0966ZM35.5156 34.9716V37H35.7656V34.9716H35.5156ZM35.6406 36.875H27.777V37.125H35.6406V36.875ZM40.1932 37L40.073 37.0344L40.0989 37.125H40.1932V37ZM36.8636 25.3636V25.2386H36.6979L36.7435 25.398L36.8636 25.3636ZM39.5511 25.3636L39.6727 25.3347L39.6499 25.2386H39.5511V25.3636ZM41.4773 33.4489L41.3557 33.4778L41.3786 33.5739H41.4773V33.4489ZM41.5739 33.4489V33.5739H41.6703L41.6948 33.4806L41.5739 33.4489ZM43.6989 25.3636V25.2386H43.6025L43.578 25.3319L43.6989 25.3636ZM46 25.3636L46.1209 25.332L46.0965 25.2386H46V25.3636ZM48.1193 33.4659L47.9984 33.4975L48.0228 33.5909H48.1193V33.4659ZM48.2216 33.4659V33.5909H48.3204L48.3432 33.4948L48.2216 33.4659ZM50.1477 25.3636V25.2386H50.049L50.0261 25.3347L50.1477 25.3636ZM52.8352 25.3636L52.9554 25.398L53.001 25.2386H52.8352V25.3636ZM49.5057 37V37.125H49.5999L49.6259 37.0344L49.5057 37ZM47.108 37L46.9879 37.035L47.0142 37.125H47.108V37ZM44.892 29.392L45.0121 29.3571L44.9858 29.267H44.892V29.392ZM44.8011 29.392V29.267H44.7073L44.6811 29.3572L44.8011 29.392ZM42.5909 37V37.125H42.6848L42.7109 37.0349L42.5909 37ZM40.3134 36.9656L36.9838 25.3292L36.7435 25.398L40.073 37.0344L40.3134 36.9656ZM36.8636 25.4886H39.5511V25.2386H36.8636V25.4886ZM39.4295 25.3926L41.3557 33.4778L41.5989 33.4199L39.6727 25.3347L39.4295 25.3926ZM41.4773 33.5739H41.5739V33.3239H41.4773V33.5739ZM41.6948 33.4806L43.8198 25.3954L43.578 25.3319L41.453 33.4171L41.6948 33.4806ZM43.6989 25.4886H46V25.2386H43.6989V25.4886ZM45.8791 25.3953L47.9984 33.4975L48.2402 33.4343L46.1209 25.332L45.8791 25.3953ZM48.1193 33.5909H48.2216V33.3409H48.1193V33.5909ZM48.3432 33.4948L50.2693 25.3925L50.0261 25.3347L48.1 33.437L48.3432 33.4948ZM50.1477 25.4886H52.8352V25.2386H50.1477V25.4886ZM52.715 25.3292L49.3855 36.9656L49.6259 37.0344L52.9554 25.398L52.715 25.3292ZM49.5057 36.875H47.108V37.125H49.5057V36.875ZM47.228 36.965L45.0121 29.3571L44.772 29.427L46.9879 37.035L47.228 36.965ZM44.892 29.267H44.8011V29.517H44.892V29.267ZM44.6811 29.3572L42.4709 36.9651L42.7109 37.0349L44.9212 29.4269L44.6811 29.3572ZM42.5909 36.875H40.1932V37.125H42.5909V36.875Z" fill="#241E1F"/>
</svg>
