<svg width="100" height="89" viewBox="0 0 100 89" fill="none" xmlns="http://www.w3.org/2000/svg">
<circle cx="60" cy="49" r="40" fill="#EDCECB"/>
<g clip-path="url(#clip0_8_4)">
<path d="M16.6061 50.8352H2.11462C2.11462 50.8352 -2.00705 56.5958 7.14422 60.539C17.98 61.1448 41.6108 60.539 41.6108 60.539C41.6108 60.539 50.4634 55.3843 45.4219 50.0751C36.5812 49.9325 23.0096 50.0751 23.0096 50.0751" stroke="#241E1F" stroke-width="3" stroke-miterlimit="10"/>
<path d="M15.0769 50.8353C15.0769 50.8353 1.93536 44.7659 1.19466 32.3422V25.3464C1.18934 23.6855 1.46393 22.0355 2.00703 20.4648C3.1116 17.1541 5.02429 14.1671 7.57402 11.7711C10.1238 9.37501 13.2311 7.64459 16.618 6.73451C18.5151 6.19273 20.4747 5.89731 22.4481 5.85559C23.5591 5.85559 24.5268 5.85559 25.3511 5.85559C27.6874 5.98298 29.9799 6.53865 32.113 7.49464C35.7858 9.26709 39.0422 11.7883 41.6705 14.8943C43.5448 17.0784 44.9632 19.6115 45.8431 22.346C46.723 25.0805 47.0468 27.9617 46.7957 30.8219C46.1267 38.9579 43.7731 43.1269 40.3922 45.241" stroke="#241E1F" stroke-width="3" stroke-miterlimit="10"/>
<path d="M24.1685 44.0058C32.7921 44.0058 39.783 37.0555 39.783 28.482C39.783 19.9085 32.7921 12.9583 24.1685 12.9583C15.5448 12.9583 8.55396 19.9085 8.55396 28.482C8.55396 37.0555 15.5448 44.0058 24.1685 44.0058Z" stroke="#241E1F" stroke-width="3" stroke-miterlimit="10"/>
<path d="M64.489 27.0329L63.8797 57.9141C63.8797 57.9141 60.5227 62.6651 56.8669 57.9141C55.8037 50.7877 56.413 28.2206 55.947 20.6785C55.9864 20.126 56.2352 19.6091 56.6433 19.232C57.0514 18.855 57.5882 18.6461 58.1453 18.6474H64.489L69.4469 8.19535C69.8116 7.44311 69.8989 6.58743 69.6936 5.77772C69.4884 4.968 69.0036 4.25567 68.3239 3.76507C65.5762 1.82905 60.439 -0.403897 53.4262 2.57733C52.7445 2.86756 52.1642 3.35159 51.7582 3.96863C51.3522 4.58568 51.1387 5.30824 51.1444 6.04554C51.1865 7.73136 51.4681 9.4028 51.9807 11.0103" stroke="#241E1F" stroke-width="3" stroke-miterlimit="10"/>
<path d="M56.2576 1.69849L57.9421 10.654" stroke="#241E1F" stroke-width="3" stroke-miterlimit="10"/>
<path d="M65.1102 2.09045L63.4257 8.53988" stroke="#241E1F" stroke-width="3" stroke-miterlimit="10"/>
</g>
<defs>
<clipPath id="clip0_8_4">
<rect width="71" height="62" fill="white"/>
</clipPath>
</defs>
</svg>
