<svg width="98" height="80" viewBox="0 0 98 80" fill="none" xmlns="http://www.w3.org/2000/svg">
<circle cx="58" cy="40" r="40" fill="#D4D1C0"/>
<g clip-path="url(#clip0_8_5)">
<path d="M1.11536 44.4488V11.1479C1.11536 10.0433 2.01079 9.14788 3.11536 9.14788H15.5894C16.3087 9.14788 16.9726 8.76159 17.3281 8.13623L19.6022 4.13555C19.9577 3.51019 20.6216 3.1239 21.3409 3.1239H35.3821C36.0251 3.1239 36.6289 3.43306 37.0048 3.95476L40.3447 8.59035C40.7281 9.12256 41.3482 9.43291 42.004 9.42087L54.8479 9.18524C55.9666 9.16472 56.8846 10.066 56.8846 11.1849V43.8761C56.8846 44.9807 55.9892 45.8761 54.8846 45.8761H2.54268C1.75439 45.8761 1.11536 45.2371 1.11536 44.4488V44.4488Z" stroke="#241E1F" stroke-width="3" stroke-miterlimit="10" stroke-linejoin="round"/>
<path d="M29.145 40.1331C36.9313 40.1331 43.2434 34.2258 43.2434 26.9388C43.2434 19.6518 36.9313 13.7445 29.145 13.7445C21.3586 13.7445 15.0465 19.6518 15.0465 26.9388C15.0465 34.2258 21.3586 40.1331 29.145 40.1331Z" stroke="#241E1F" stroke-width="3" stroke-miterlimit="10"/>
<path d="M28.855 34.4014C33.3395 34.4014 36.975 31.0603 36.975 26.9389C36.975 22.8174 33.3395 19.4763 28.855 19.4763C24.3704 19.4763 20.735 22.8174 20.735 26.9389C20.735 31.0603 24.3704 34.4014 28.855 34.4014Z" stroke="#241E1F" stroke-width="3" stroke-miterlimit="10"/>
</g>
<defs>
<clipPath id="clip0_8_5">
<rect y="2" width="58" height="45" rx="4" fill="white"/>
</clipPath>
</defs>
</svg>
