<svg width="100" height="93" viewBox="0 0 100 93" fill="none" xmlns="http://www.w3.org/2000/svg">
<circle cx="60" cy="53" r="40" fill="#EDCECB"/>
<g clip-path="url(#clip0_8_6)">
<path d="M25.9241 51.2002H51.9443C52.4362 51.2002 52.9232 51.1023 53.3775 50.9119C53.8318 50.7216 54.2443 50.4426 54.5915 50.0911C54.9387 49.7395 55.2137 49.3223 55.4006 48.8633C55.5876 48.4043 55.6829 47.9126 55.6811 47.4163V38.9199" stroke="#241E1F" stroke-width="3" stroke-miterlimit="10"/>
<path d="M55.6261 32.7936V27.9564C55.6261 26.736 55.1456 25.5655 54.2902 24.7025C53.4348 23.8396 52.2747 23.3547 51.065 23.3547H1.37378V48.9548C1.37378 49.9253 1.7559 50.856 2.43607 51.5422C3.11625 52.2285 4.03876 52.614 5.00068 52.614H13.7657" stroke="#241E1F" stroke-width="3" stroke-miterlimit="10"/>
<path d="M45.5697 33.0293L1.37378 33.2649" stroke="#241E1F" stroke-width="3" stroke-miterlimit="10"/>
<path d="M38.5495 41.2761H1.37378" stroke="#241E1F" stroke-width="3" stroke-miterlimit="10"/>
<path d="M53.9914 23.3548L28.4932 16.0365" stroke="#241E1F" stroke-width="3" stroke-miterlimit="10"/>
<path d="M19.9616 13.2089L12.8727 12.0724C11.7141 11.8812 10.5259 12.1121 9.52055 12.7238C6.7729 14.4148 1.37378 18.2679 1.37378 23.3547" stroke="#241E1F" stroke-width="3" stroke-miterlimit="10"/>
<path d="M24.77 8.67659C24.77 8.67659 26.8582 -0.235635 32.4772 1.64938" stroke="#241E1F" stroke-width="3" stroke-miterlimit="10"/>
<path d="M23.4786 17.9215C26.0583 17.9215 28.1496 15.8116 28.1496 13.209C28.1496 10.6063 26.0583 8.49646 23.4786 8.49646C20.8989 8.49646 18.8076 10.6063 18.8076 13.209C18.8076 15.8116 20.8989 17.9215 23.4786 17.9215Z" stroke="#241E1F" stroke-width="3" stroke-miterlimit="10"/>
</g>
<defs>
<clipPath id="clip0_8_6">
<rect width="57" height="54" fill="white"/>
</clipPath>
</defs>
</svg>
