<svg width="95" height="89" viewBox="0 0 95 89" fill="none" xmlns="http://www.w3.org/2000/svg">
<circle cx="55" cy="49" r="40" fill="#EDCECB"/>
<g clip-path="url(#clip0_8_7)">
<path d="M28.255 12.029L23.8838 8.36536C23.8838 8.36536 15.3842 5.09247 15.6756 13.0426C16.1551 15.1275 17.3291 16.9847 19.0026 18.3061C19.4126 18.6807 19.662 19.2006 19.6982 19.7565C19.7345 20.3124 19.5547 20.8607 19.1969 21.2859C15.1292 26.1707 1.76061 39.7629 1.18992 50.5952C1.15484 51.3019 1.31004 52.0051 1.63914 52.6306C1.96825 53.2561 2.45907 53.7806 3.05984 54.1489C7.30962 56.7501 13.1865 55.8098 13.1865 55.8098C13.1865 55.8098 32.104 64.7003 42.8014 55.9686C44.5485 56.4906 46.3879 56.6233 48.1913 56.3575C49.9947 56.0918 51.7188 55.434 53.2437 54.4298C53.6869 54.1267 54.0537 53.7238 54.3151 53.2532C54.5764 52.7826 54.7251 52.2572 54.7494 51.7187C54.9436 47.2979 53.778 34.3407 35.771 21.1882C35.5728 21.0398 35.4094 20.8496 35.2923 20.6308C35.1753 20.4119 35.1074 20.1699 35.0935 19.9218C35.0796 19.6737 35.12 19.4256 35.2119 19.195C35.3038 18.9643 35.4449 18.7568 35.6253 18.587C37.3495 16.9383 38.5395 15.7049 39.268 14.85C39.6071 14.2405 39.8225 13.5694 39.9017 12.8755C39.9809 12.1816 39.9223 11.4788 39.7294 10.8078C39.2799 9.73543 38.4547 8.86632 37.4102 8.36536C35.6982 7.37617 33.7918 7.75475 28.255 12.029Z" stroke="#241E1F" stroke-width="3" stroke-miterlimit="10"/>
<path d="M19.0997 37.6747C19.0997 37.6747 12.7493 48.5924 13.2107 55.761" stroke="#241E1F" stroke-width="3" stroke-miterlimit="10"/>
<path d="M37.8595 37.6747C37.8595 37.6747 44.987 45.6248 42.8257 55.9197" stroke="#241E1F" stroke-width="3" stroke-miterlimit="10"/>
<path d="M19.1119 0V7.73033" stroke="#241E1F" stroke-width="3" stroke-miterlimit="10"/>
<path d="M36.4631 0V7.92573" stroke="#241E1F" stroke-width="3" stroke-miterlimit="10"/>
</g>
<defs>
<clipPath id="clip0_8_7">
<rect width="56" height="61" fill="white"/>
</clipPath>
</defs>
</svg>
