<svg width="95" height="84" viewBox="0 0 95 84" fill="none" xmlns="http://www.w3.org/2000/svg">
<circle cx="55" cy="44" r="40" fill="#D4D1C0"/>
<g clip-path="url(#clip0_8_8)">
<path d="M27.6238 52.553H4.33565C3.90798 52.5591 3.48388 52.4742 3.09149 52.3038C2.6991 52.1334 2.3474 51.8815 2.05968 51.5646C1.77196 51.2478 1.55482 50.8733 1.42266 50.4661C1.29051 50.0589 1.24635 49.6282 1.29312 49.2026C1.42497 47.7459 2.00572 46.3663 2.95505 45.2545C3.90439 44.1428 5.17537 43.3538 6.59221 42.9967C11.0569 41.6048 15.3886 39.8167 19.5357 37.6539L19.7005 33.9227L11.7645 32.8567C10.9638 32.7518 10.2349 32.3401 9.73123 31.7081C9.2276 31.0761 8.9885 30.2731 9.06427 29.4682C9.8249 21.346 13.1464 -0.355393 26.9773 1.35788C43.9775 3.46457 41.0617 24.5315 41.0617 24.5315" stroke="#241E1F" stroke-width="3" stroke-miterlimit="10"/>
<path d="M33.1257 33.7705C33.1257 33.7705 25.3672 45.2685 19.7004 33.9228" stroke="#241E1F" stroke-width="3" stroke-miterlimit="10"/>
<path d="M57.7323 55.472V30.3567C57.7323 30.3567 54.8419 25.5087 52.2304 30.3567C51.7106 35.0396 52.0275 48.86 52.2304 54.1775C52.2378 54.9954 52.523 55.7866 53.0391 56.4208C53.5551 57.055 54.2714 57.4947 55.0701 57.6675C56.1476 57.8832 57.3266 57.5152 57.7323 55.472Z" stroke="#241E1F" stroke-width="3" stroke-miterlimit="10"/>
<path d="M46.2467 29.8744H53.0417" stroke="#241E1F" stroke-width="3" stroke-miterlimit="10"/>
<path d="M46.8932 34.9H51.9387" stroke="#241E1F" stroke-width="3" stroke-miterlimit="10"/>
<path d="M46.8932 39.9256H51.9387" stroke="#241E1F" stroke-width="3" stroke-miterlimit="10"/>
<path d="M46.8932 44.7862H51.9768" stroke="#241E1F" stroke-width="3" stroke-miterlimit="10"/>
<path d="M34.4315 57.7309C35.7688 57.7309 36.8528 55.7025 36.8528 53.2003C36.8528 50.6981 35.7688 48.6696 34.4315 48.6696C33.0942 48.6696 32.0101 50.6981 32.0101 53.2003C32.0101 55.7025 33.0942 57.7309 34.4315 57.7309Z" stroke="#241E1F" stroke-width="3" stroke-miterlimit="10"/>
<path d="M45.0423 57.7309C46.3796 57.7309 47.4637 55.7025 47.4637 53.2003C47.4637 50.6981 46.3796 48.6696 45.0423 48.6696C43.7051 48.6696 42.621 50.6981 42.621 53.2003C42.621 55.7025 43.7051 57.7309 45.0423 57.7309Z" stroke="#241E1F" stroke-width="3" stroke-miterlimit="10"/>
<path d="M36.8528 51.9058V34.6969C36.8496 34.0337 36.9834 33.3769 37.2458 32.7679C38.1459 30.712 40.4025 26.6382 42.3167 32.7679C42.5183 33.3867 42.621 34.0334 42.621 34.6842V50.9794" stroke="#241E1F" stroke-width="3" stroke-miterlimit="10"/>
<path d="M36.8528 46.0807H42.6209" stroke="#241E1F" stroke-width="3" stroke-miterlimit="10"/>
</g>
<defs>
<clipPath id="clip0_8_8">
<rect width="59" height="59" fill="white"/>
</clipPath>
</defs>
</svg>
