<svg width="102" height="80" viewBox="0 0 102 80" fill="none" xmlns="http://www.w3.org/2000/svg">
<circle cx="62" cy="40" r="40" fill="#EDCECB"/>
<g clip-path="url(#clip0_8_9)">
<path d="M25.4932 7.5H36.3386C36.7549 7.5 37.1672 7.58261 37.5517 7.74313C37.9362 7.90365 38.2854 8.13888 38.5792 8.43536C38.873 8.73183 39.1056 9.08372 39.2638 9.47078C39.4219 9.85784 39.5024 10.2725 39.5007 10.6909V44.0444H24.4871" stroke="#241E1F" stroke-width="3" stroke-miterlimit="10"/>
<path d="M3.80237 22.5879V41.8647C3.80237 42.7109 4.1369 43.5225 4.73237 44.121C5.32783 44.7194 6.13547 45.0556 6.97759 45.0556H10.1397" stroke="#241E1F" stroke-width="3" stroke-miterlimit="10"/>
<path d="M39.5007 44.0576H45.0149" stroke="#241E1F" stroke-width="3" stroke-miterlimit="10"/>
<path d="M57.6896 45.0555H61.688C62.4851 45.0555 63.2495 44.7373 63.8131 44.1709C64.3767 43.6045 64.6934 42.8363 64.6934 42.0353V28.6545C64.6988 27.7357 64.3845 26.8438 63.8048 26.1333L57.9771 18.9242L55.1547 15.5232C54.7324 14.9987 54.1988 14.5755 53.5929 14.2847C52.9871 13.9939 52.3242 13.8428 51.6528 13.8424H39.4746" stroke="#241E1F" stroke-width="3" stroke-miterlimit="10"/>
<path d="M14.491 5.1626V15.5626L10.1528 19.5808" stroke="#241E1F" stroke-width="3" stroke-miterlimit="10"/>
<path d="M64.6934 30.4667H49.928C49.523 30.4667 49.122 30.3865 48.7479 30.2307C48.3737 30.075 48.0338 29.8468 47.7474 29.559C47.4611 29.2712 47.2339 28.9296 47.079 28.5536C46.924 28.1776 46.8442 27.7746 46.8442 27.3676V21.3404C46.8442 21.0209 46.9073 20.7045 47.0297 20.4097C47.1522 20.1148 47.3316 19.8472 47.5576 19.6225C47.7837 19.3978 48.0518 19.2204 48.3465 19.1005C48.6413 18.9807 48.9567 18.9207 49.2746 18.9242H57.9771" stroke="#241E1F" stroke-width="3" stroke-miterlimit="10"/>
<path d="M14.6478 28.3919C22.0159 28.3919 27.9889 22.554 27.9889 15.3525C27.9889 8.15105 22.0159 2.31311 14.6478 2.31311C7.27966 2.31311 1.30664 8.15105 1.30664 15.3525C1.30664 22.554 7.27966 28.3919 14.6478 28.3919Z" stroke="#241E1F" stroke-width="3" stroke-miterlimit="10"/>
<path d="M17.5224 51.6737C21.0441 51.6737 23.899 48.8047 23.899 45.2656C23.899 41.7265 21.0441 38.8575 17.5224 38.8575C14.0008 38.8575 11.1459 41.7265 11.1459 45.2656C11.1459 48.8047 14.0008 51.6737 17.5224 51.6737Z" stroke="#241E1F" stroke-width="3" stroke-miterlimit="10"/>
<path d="M51.313 51.4636C54.8346 51.4636 57.6895 48.5946 57.6895 45.0555C57.6895 41.5165 54.8346 38.6475 51.313 38.6475C47.7913 38.6475 44.9364 41.5165 44.9364 45.0555C44.9364 48.5946 47.7913 51.4636 51.313 51.4636Z" stroke="#241E1F" stroke-width="3" stroke-miterlimit="10"/>
</g>
<defs>
<clipPath id="clip0_8_9">
<rect width="66" height="52" fill="white" transform="translate(0 1)"/>
</clipPath>
</defs>
</svg>
