<svg width="101" height="85" viewBox="0 0 101 85" fill="none" xmlns="http://www.w3.org/2000/svg">
<circle cx="61" cy="45" r="40" fill="#D4D1C0"/>
<g clip-path="url(#clip0_8_10)">
<path d="M2.24489 51.9786L7.68615 57.6256C8.04096 57.9956 8.46748 58.2881 8.93917 58.4848C9.41087 58.6815 9.91764 58.7783 10.428 58.7691C10.9384 58.7598 11.4414 58.6448 11.9058 58.4312C12.3702 58.2175 12.786 57.9098 13.1274 57.5271L14.0912 56.4445C14.5129 55.9703 15.0336 55.5964 15.6159 55.3496C16.1982 55.1028 16.8275 54.9893 17.4585 55.0174L36.9788 55.8294C37.8847 55.8685 38.7892 55.7231 39.6381 55.4018C40.4871 55.0805 41.2631 54.5899 41.9198 53.9594L56.3648 40.1681C57.1666 39.4058 57.647 38.3619 57.7068 37.2524C57.8044 35.3332 57.3774 32.7742 54.1444 33.6846C53.2675 33.9299 52.4688 34.4004 51.8264 35.0502C47.1415 39.6883 43.3594 43.6621 41.4562 45.6059C41.0422 46.0475 40.5428 46.3987 39.9888 46.6378C39.4348 46.877 38.838 46.9989 38.2354 46.9961H28.8413C28.3261 46.993 27.8172 46.882 27.3468 46.6702C26.8763 46.4585 26.4547 46.1505 26.1084 45.7658L25.5716 45.1999C25.4526 45.0744 25.3717 44.9172 25.3384 44.7469C25.3051 44.5766 25.3208 44.4002 25.3836 44.2385C25.4465 44.0769 25.5538 43.9367 25.693 43.8346C25.8323 43.7325 25.9976 43.6726 26.1694 43.6621L33.7701 43.0715C34.239 43.0352 34.6997 42.9274 35.1365 42.7517C36.6859 42.0873 39.8458 40.2173 36.6249 36.7972C36.2228 36.3788 35.7411 36.0466 35.2086 35.8204C34.6761 35.5942 34.1039 35.4787 33.5261 35.4808C24.5712 35.4808 17.8733 35.6653 14.9697 35.7515C13.9318 35.7903 12.9487 36.2309 12.2246 36.9817L2.24489 46.8238C1.57793 47.5132 1.20459 48.4381 1.20459 49.4012C1.20459 50.3643 1.57793 51.2893 2.24489 51.9786Z" stroke="#1D1D1B" stroke-width="3" stroke-miterlimit="10"/>
<path d="M40.224 27.4103C39.5835 27.999 38.7481 28.3254 37.8815 28.3254C37.0149 28.3254 36.1796 27.999 35.5391 27.4103L22.9851 16.055C22.3645 15.5 21.8626 14.8231 21.5102 14.0658C21.1578 13.3085 20.9622 12.4867 20.9355 11.6506C20.8257 8.50114 21.7407 2.91575 27.9018 1.51325C33.7579 0.172261 36.1857 3.22331 37.1861 5.11792C37.2824 5.29823 37.4217 5.45148 37.5915 5.56376C37.7613 5.67604 37.9562 5.7438 38.1586 5.76091C38.3609 5.77801 38.5643 5.74391 38.7503 5.66171C38.9362 5.57951 39.0989 5.45181 39.2236 5.29017C40.834 3.18642 43.2862 1.93154 47.5319 1.93154C53.2903 4.23213 54.059 6.27438 53.2904 12.7087C50.2647 17.6789 43.7376 24.1132 40.224 27.4103Z" stroke="#1D1D1B" stroke-width="3" stroke-miterlimit="10"/>
<path d="M47.5319 1.98071C51.2651 2.54663 54.059 6.32352 53.2903 12.7578" stroke="#1D1D1B" stroke-width="3" stroke-miterlimit="10"/>
</g>
<defs>
<clipPath id="clip0_8_10">
<rect width="59" height="60" fill="white"/>
</clipPath>
</defs>
</svg>
