<svg width="40" height="40" viewBox="0 0 40 40" fill="none" xmlns="http://www.w3.org/2000/svg">
<circle cx="20" cy="20" r="20" fill="#EABBC4" fill-opacity="0.8"/>
<mask id="path-2-inside-1_116_4" fill="white">
<path d="M12.5 30C12.1 30 11.75 29.85 11.45 29.55C11.15 29.25 11 28.9 11 28.5V15.25C11 14.85 11.15 14.5 11.45 14.2C11.75 13.9 12.1 13.75 12.5 13.75H15.25C15.25 12.4333 15.6917 11.3125 16.575 10.3875C17.4583 9.4625 18.5583 9 19.875 9C21.1917 9 22.3333 9.46312 23.3 10.3894C24.2667 11.3156 24.75 12.4358 24.75 13.75H27.5C27.9 13.75 28.25 13.9 28.55 14.2C28.85 14.5 29 14.85 29 15.25V28.5C29 28.9 28.85 29.25 28.55 29.55C28.25 29.85 27.9 30 27.5 30H12.5ZM12.5 28.5H27.5V15.25H12.5V28.5ZM20 21.25C21.3167 21.25 22.4583 20.7667 23.425 19.8C24.3917 18.8333 24.875 17.6917 24.875 16.375H23.375C23.375 17.2917 23.0417 18.0833 22.375 18.75C21.7083 19.4167 20.9167 19.75 20 19.75C19.0833 19.75 18.2917 19.4167 17.625 18.75C16.9583 18.0833 16.625 17.2917 16.625 16.375H15.125C15.125 17.6917 15.6083 18.8333 16.575 19.8C17.5417 20.7667 18.6833 21.25 20 21.25ZM16.75 13.75H23.25C23.25 12.8333 22.9375 12.0625 22.3125 11.4375C21.6875 10.8125 20.9167 10.5 20 10.5C19.0833 10.5 18.3125 10.8125 17.6875 11.4375C17.0625 12.0625 16.75 12.8333 16.75 13.75Z"/>
</mask>
<path d="M12.5 30C12.1 30 11.75 29.85 11.45 29.55C11.15 29.25 11 28.9 11 28.5V15.25C11 14.85 11.15 14.5 11.45 14.2C11.75 13.9 12.1 13.75 12.5 13.75H15.25C15.25 12.4333 15.6917 11.3125 16.575 10.3875C17.4583 9.4625 18.5583 9 19.875 9C21.1917 9 22.3333 9.46312 23.3 10.3894C24.2667 11.3156 24.75 12.4358 24.75 13.75H27.5C27.9 13.75 28.25 13.9 28.55 14.2C28.85 14.5 29 14.85 29 15.25V28.5C29 28.9 28.85 29.25 28.55 29.55C28.25 29.85 27.9 30 27.5 30H12.5ZM12.5 28.5H27.5V15.25H12.5V28.5ZM20 21.25C21.3167 21.25 22.4583 20.7667 23.425 19.8C24.3917 18.8333 24.875 17.6917 24.875 16.375H23.375C23.375 17.2917 23.0417 18.0833 22.375 18.75C21.7083 19.4167 20.9167 19.75 20 19.75C19.0833 19.75 18.2917 19.4167 17.625 18.75C16.9583 18.0833 16.625 17.2917 16.625 16.375H15.125C15.125 17.6917 15.6083 18.8333 16.575 19.8C17.5417 20.7667 18.6833 21.25 20 21.25ZM16.75 13.75H23.25C23.25 12.8333 22.9375 12.0625 22.3125 11.4375C21.6875 10.8125 20.9167 10.5 20 10.5C19.0833 10.5 18.3125 10.8125 17.6875 11.4375C17.0625 12.0625 16.75 12.8333 16.75 13.75Z" fill="#FBF1F1"/>
<path d="M15.25 13.75V15.75H17.25V13.75H15.25ZM24.75 13.75H22.75V15.75H24.75V13.75ZM12.5 28.5H10.5V30.5H12.5V28.5ZM27.5 28.5V30.5H29.5V28.5H27.5ZM27.5 15.25H29.5V13.25H27.5V15.25ZM12.5 15.25V13.25H10.5V15.25H12.5ZM24.875 16.375H26.875V14.375H24.875V16.375ZM23.375 16.375V14.375H21.375V16.375H23.375ZM16.625 16.375H18.625V14.375H16.625V16.375ZM15.125 16.375V14.375H13.125V16.375H15.125ZM16.75 13.75H14.75V15.75H16.75V13.75ZM23.25 13.75V15.75H25.25V13.75H23.25ZM12.5 28C12.5569 28 12.6389 28.0122 12.7253 28.0492C12.8095 28.0853 12.8548 28.1264 12.8642 28.1358L10.0358 30.9642C10.6856 31.614 11.5349 32 12.5 32V28ZM12.8642 28.1358C12.8736 28.1452 12.9147 28.1905 12.9508 28.2747C12.9878 28.3611 13 28.4431 13 28.5H9C9 29.4651 9.38596 30.3144 10.0358 30.9642L12.8642 28.1358ZM13 28.5V15.25H9V28.5H13ZM13 15.25C13 15.3069 12.9878 15.3889 12.9508 15.4753C12.9147 15.5595 12.8736 15.6048 12.8642 15.6142L10.0358 12.7858C9.38596 13.4356 9 14.2849 9 15.25H13ZM12.8642 15.6142C12.8548 15.6236 12.8095 15.6647 12.7253 15.7008C12.6389 15.7378 12.5569 15.75 12.5 15.75V11.75C11.5349 11.75 10.6856 12.136 10.0358 12.7858L12.8642 15.6142ZM12.5 15.75H15.25V11.75H12.5V15.75ZM17.25 13.75C17.25 12.931 17.5048 12.3097 18.0214 11.7688L15.1286 9.00624C13.8785 10.3153 13.25 11.9357 13.25 13.75H17.25ZM18.0214 11.7688C18.515 11.2519 19.0866 11 19.875 11V7C18.03 7 16.4016 7.67315 15.1286 9.00624L18.0214 11.7688ZM19.875 11C20.6664 11 21.315 11.2573 21.9163 11.8335L24.6837 8.94529C23.3517 7.66898 21.7169 7 19.875 7V11ZM21.9163 11.8335C22.4976 12.3905 22.75 12.9925 22.75 13.75H26.75C26.75 11.8792 26.0357 10.2408 24.6837 8.94529L21.9163 11.8335ZM24.75 15.75H27.5V11.75H24.75V15.75ZM27.5 15.75C27.4431 15.75 27.3611 15.7378 27.2747 15.7008C27.1905 15.6647 27.1452 15.6236 27.1358 15.6142L29.9642 12.7858C29.3144 12.136 28.4651 11.75 27.5 11.75V15.75ZM27.1358 15.6142C27.1264 15.6048 27.0853 15.5595 27.0492 15.4753C27.0122 15.3889 27 15.3069 27 15.25H31C31 14.2849 30.614 13.4356 29.9642 12.7858L27.1358 15.6142ZM27 15.25V28.5H31V15.25H27ZM27 28.5C27 28.4431 27.0122 28.3611 27.0492 28.2747C27.0853 28.1905 27.1264 28.1452 27.1358 28.1358L29.9642 30.9642C30.614 30.3144 31 29.4651 31 28.5H27ZM27.1358 28.1358C27.1452 28.1264 27.1905 28.0853 27.2747 28.0492C27.3611 28.0122 27.4431 28 27.5 28V32C28.4651 32 29.3144 31.614 29.9642 30.9642L27.1358 28.1358ZM27.5 28H12.5V32H27.5V28ZM12.5 30.5H27.5V26.5H12.5V30.5ZM29.5 28.5V15.25H25.5V28.5H29.5ZM27.5 13.25H12.5V17.25H27.5V13.25ZM10.5 15.25V28.5H14.5V15.25H10.5ZM20 23.25C21.8693 23.25 23.5135 22.5399 24.8392 21.2142L22.0108 18.3858C21.4032 18.9934 20.764 19.25 20 19.25V23.25ZM24.8392 21.2142C26.1649 19.8885 26.875 18.2443 26.875 16.375H22.875C22.875 17.139 22.6184 17.7782 22.0108 18.3858L24.8392 21.2142ZM24.875 14.375H23.375V18.375H24.875V14.375ZM21.375 16.375C21.375 16.7445 21.2643 17.0322 20.9608 17.3358L23.7892 20.1642C24.819 19.1344 25.375 17.8388 25.375 16.375H21.375ZM20.9608 17.3358C20.6572 17.6393 20.3695 17.75 20 17.75V21.75C21.4638 21.75 22.7594 21.194 23.7892 20.1642L20.9608 17.3358ZM20 17.75C19.6305 17.75 19.3428 17.6393 19.0392 17.3358L16.2108 20.1642C17.2406 21.194 18.5362 21.75 20 21.75V17.75ZM19.0392 17.3358C18.7357 17.0322 18.625 16.7445 18.625 16.375H14.625C14.625 17.8388 15.181 19.1344 16.2108 20.1642L19.0392 17.3358ZM16.625 14.375H15.125V18.375H16.625V14.375ZM13.125 16.375C13.125 18.2443 13.8351 19.8885 15.1608 21.2142L17.9892 18.3858C17.3816 17.7782 17.125 17.139 17.125 16.375H13.125ZM15.1608 21.2142C16.4865 22.5399 18.1307 23.25 20 23.25V19.25C19.236 19.25 18.5968 18.9934 17.9892 18.3858L15.1608 21.2142ZM16.75 15.75H23.25V11.75H16.75V15.75ZM25.25 13.75C25.25 12.3249 24.742 11.0386 23.7267 10.0233L20.8983 12.8517C21.133 13.0864 21.25 13.3418 21.25 13.75H25.25ZM23.7267 10.0233C22.7114 9.00796 21.4251 8.5 20 8.5V12.5C20.4082 12.5 20.6636 12.617 20.8983 12.8517L23.7267 10.0233ZM20 8.5C18.5749 8.5 17.2886 9.00796 16.2733 10.0233L19.1017 12.8517C19.3364 12.617 19.5918 12.5 20 12.5V8.5ZM16.2733 10.0233C15.258 11.0386 14.75 12.3249 14.75 13.75H18.75C18.75 13.3418 18.867 13.0864 19.1017 12.8517L16.2733 10.0233Z" fill="#FBF1F1" mask="url(#path-2-inside-1_116_4)"/>
</svg>
