<svg width="120" height="123" viewBox="0 0 120 123" fill="none" xmlns="http://www.w3.org/2000/svg">
<path fill-rule="evenodd" clip-rule="evenodd" d="M26.7103 0.431717C27.3362 1.6815 27.1599 2.65388 25.8935 4.94041C24.7993 6.91594 24.5405 7.99586 24.7895 9.54675C24.9683 10.6621 25.4654 12.076 26.126 13.3495L26.5711 14.2074L26.658 13.4225C26.7806 12.3149 27.3219 11.3389 28.766 9.62147C30.5284 7.52537 30.7822 7.05535 30.7822 5.88626C30.7822 4.60398 30.1355 3.22406 28.9114 1.8939C28.0129 0.917437 26.9081 0 26.6308 0C26.5556 0 26.5913 0.194194 26.7103 0.431717ZM38.2734 5.88532C34.1543 6.63541 31.0283 9.42367 29.6471 13.5795C28.8168 16.0779 28.668 18.0582 29.0321 21.7686C29.2351 23.8385 29.0692 26.1685 28.6101 27.6941C28.4825 28.1179 28.3783 28.534 28.3783 28.6186C28.3783 28.7034 28.8035 28.2506 29.3233 27.6126C31.6076 24.808 33.3799 21.705 33.7801 19.8094C33.9019 19.2323 34.0073 18.1596 34.0142 17.4257C34.0308 15.6779 34.3063 16.25 34.4301 18.2891C34.5922 20.9591 33.9554 22.551 31.2899 26.1385C30.3916 27.3473 29.6822 28.3622 29.7134 28.3939C29.792 28.4741 32.2163 27.1459 33.8352 26.1358C36.5232 24.4584 37.7442 23.1632 38.272 21.4288C38.5716 20.4445 38.4768 16.4636 38.091 13.8192C37.7203 11.278 37.6635 8.91864 37.9496 7.9461C38.0705 7.53542 38.4371 6.99946 38.9558 6.47575C39.4045 6.02237 39.6883 5.658 39.5865 5.66569C39.4846 5.67354 38.8937 5.77229 38.2734 5.88532ZM21.0054 12.7947C20.9141 12.9526 20.63 14.5231 20.5083 15.5418C20.4011 16.4423 20.6906 18.0172 21.1384 18.9682C21.4479 19.6252 22.1468 20.4659 23.8021 22.1723C25.7291 24.1589 26.1274 24.6571 26.6205 25.6997L27.1947 26.9138L27.389 25.9766C28.0302 22.8846 27.94 19.9835 27.1502 18.2889C26.6155 17.1417 26.2379 16.8286 24.0204 15.6944C22.1733 14.7498 21.4416 14.1043 21.238 13.24C21.16 12.9088 21.0553 12.7085 21.0054 12.7947ZM36.496 27.4744C32.9336 28.08 29.53 29.9032 26.9457 32.5907C25.5356 34.0571 25.2288 34.4463 24.2558 36.0023C21.1761 40.9274 20.2991 46.9439 21.7348 53.2974C22.2356 55.5139 22.7098 56.9539 23.9434 60.0055C26.4812 66.2825 27.7059 70.7483 28.2303 75.6375C28.6558 79.6048 28.2325 84.8896 27.2036 88.4545C26.7423 90.0528 26.7844 90.3946 27.2791 89.0672C27.8643 87.4966 28.3357 85.697 28.6927 83.6706C29.1288 81.1951 29.2903 76.2487 29.009 73.9849C28.7713 72.0734 27.7824 68.0819 26.2446 62.8283C24.3631 56.4001 24.165 55.6519 23.8313 53.7161C21.7973 41.9118 27.3676 32.3678 37.0353 31.0929C40.5157 30.6338 44.4197 31.8409 47.2971 34.2657C48.8383 35.5645 50.3311 37.4531 51.3209 39.3561C52.7452 42.0949 52.8466 42.4704 52.8392 44.977C52.8341 46.7588 52.7651 47.4274 52.4751 48.5091C51.4159 52.4611 49.0423 55.4632 45.5911 57.2158C43.5047 58.2755 39.9667 58.7067 37.8314 58.1617C33.3503 57.018 30.5236 53.0099 30.762 48.138C30.9303 44.7025 32.5861 42.2941 35.3144 41.5165C36.5468 41.1654 38.2217 41.2548 39.177 41.723C39.8403 42.0479 41.4307 43.4627 41.2908 43.6031C41.2565 43.6374 40.9604 43.5911 40.6325 43.5002C38.5383 42.9197 36.6064 45.4838 37.7991 47.2609C38.9164 48.9256 41.6019 48.7516 42.5915 46.9505C43.7055 44.9227 42.3414 42.0377 39.6672 40.7657C38.6868 40.2994 38.5083 40.2674 36.8913 40.2674C35.209 40.2674 35.1313 40.2831 33.976 40.8566C31.0267 42.3203 29.477 45.4362 29.6701 49.5135C29.868 53.6903 31.8257 56.7908 35.3291 58.4763C37.4346 59.4891 38.5363 59.7271 41.0429 59.7103C42.79 59.6987 43.4212 59.6256 44.7061 59.2854C49.2933 58.0708 53.0207 55.0159 54.9007 50.9305C56.7975 46.8084 56.4835 41.1545 54.0947 36.4212C51.8139 31.9014 47.3296 28.4839 42.472 27.5636C41.097 27.303 37.7947 27.2539 36.496 27.4744ZM11.455 50.9528C10.9029 51.2536 10.5539 51.9415 10.5539 52.7289C10.5539 53.2225 10.6644 53.4712 11.0805 53.9142C11.5213 54.3833 11.7137 54.4748 12.261 54.4748C13.4794 54.4748 14.3064 53.7131 14.3064 52.5909C14.3064 51.1394 12.7518 50.2463 11.455 50.9528ZM15.5963 53.6368C15.2675 53.7701 15.3776 54.2366 15.8435 54.6848C16.087 54.9191 16.773 55.3464 17.368 55.6343C18.6523 56.256 20.357 57.539 21.9519 59.0841C23.0078 60.107 23.0658 60.143 22.6169 59.497C21.2371 57.5108 18.5745 54.8804 17.0426 53.9902C16.2785 53.5461 15.9927 53.4762 15.5963 53.6368ZM15.4009 59.0369C13.4672 59.2581 12.1967 59.6794 7.99047 61.4939C6.08968 62.3138 5.91956 62.3587 5.01975 62.2771C4.30974 62.2126 3.70997 62.0088 2.67866 61.4818C1.544 60.9019 1.357 60.8424 1.64875 61.1543C2.20006 61.7435 4.18044 63.0696 5.28211 63.5872C6.48744 64.1536 7.63727 64.2781 13.9155 64.5217C18.689 64.7069 19.8366 64.8272 21.3687 65.3024C23.0602 65.8269 24.9677 67.2704 25.9948 68.8031C26.2129 69.1287 26.4184 69.3679 26.4513 69.3348C26.6018 69.1838 25.6503 67.0252 25.1287 66.3337C24.2826 65.2121 22.1294 63.533 20.4961 62.7211C18.0165 61.4884 15.4095 61.0691 13.5886 61.6104C12.946 61.8014 12.8686 61.8028 13.1131 61.6188C13.5071 61.3223 15.3619 60.9113 16.3057 60.9113C18.8227 60.9113 22.1499 62.5884 24.3138 64.9479L25.2909 66.0134L24.9355 65.307C24.2776 63.9989 23.1482 62.4091 22.1976 61.4523C20.2877 59.5304 18.0467 58.7339 15.4009 59.0369ZM33.6074 63.4818C31.6708 64.3872 30.3064 67.2277 29.7922 71.4254C29.585 73.1155 29.5811 75.6198 29.7854 75.7467C29.8732 75.801 29.9418 75.6782 29.9418 75.4671C29.9418 74.7407 30.8748 73.194 31.9858 72.0785C32.585 71.4769 33.8108 70.4819 34.7097 69.8676C36.8583 68.399 37.6031 67.4076 37.6031 66.0162C37.6031 65.1291 37.3122 64.4175 36.7233 63.8649C35.8251 63.0215 34.8485 62.9016 33.6074 63.4818ZM11.9681 65.9395C10.3314 66.285 8.93125 67.3506 7.6909 69.1948C7.38507 69.6494 6.48353 71.1496 5.68753 72.5286C3.54517 76.2391 2.60189 77.1917 0.883713 77.3792L0 77.4756L0.859947 77.9716C2.56546 78.9555 3.53172 79.1939 5.7851 79.1866C7.62054 79.1806 7.93153 79.1371 8.99036 78.7393C11.6704 77.7322 14.0185 75.8394 15.6046 73.4075C15.8918 72.9672 16.5226 72.0039 17.0065 71.2668C17.8172 70.0321 19.3419 68.3933 20.4824 67.5312L20.9514 67.1765L20.2478 67.2798C18.8749 67.4814 15.9239 68.472 14.2282 69.3007C12.515 70.1379 11.5028 70.9816 10.2625 72.6069C9.76947 73.2527 9.96006 72.6866 10.6006 71.6026C11.8448 69.4968 13.5587 68.4453 17.5542 67.3368C18.8676 66.9726 19.9173 66.6495 19.887 66.6192C19.8568 66.5889 18.9231 66.4255 17.8118 66.2563C15.3183 65.8764 12.8905 65.7448 11.9681 65.9395ZM21.0617 69.5194C17.9322 70.6411 16.875 74.3876 19.0028 76.8149C20.7547 78.8132 23.9638 78.5939 25.3253 76.3828C25.7263 75.7313 25.7984 75.4572 25.7984 74.5815C25.7984 73.7352 25.7201 73.4149 25.3642 72.8074C23.9997 70.4766 20.5843 70.8149 19.9129 73.3474C19.7386 74.0055 19.751 74.1713 20.025 74.835C20.4194 75.7905 21.132 76.2961 22.0841 76.2961C22.9762 76.2961 23.6265 75.9052 23.9658 75.1647C24.3116 74.4097 24.5369 74.4046 24.4158 75.1543C24.0401 77.4792 20.6329 78.0081 19.1626 75.9699C17.5493 73.7339 18.7919 70.5872 21.6133 69.7637C24.096 69.039 26.6176 70.5687 27.5385 73.3582L27.7569 74.0198L27.6639 73.4005C27.4459 71.9493 26.1549 70.3279 24.7064 69.6866C23.6246 69.2075 22.1241 69.1387 21.0617 69.5194ZM75.0499 69.4627C70.1614 70.2442 66.0027 73.6224 63.8353 78.5724C62.7469 81.0583 62.3444 84.4477 62.8371 86.9804C63.2313 89.0079 64.3833 91.2429 65.7319 92.5969C66.8983 93.7681 68.6424 94.7563 70.3593 95.2188C71.7782 95.6012 74.3517 95.6855 75.7129 95.3943C79.6829 94.5452 82.1162 91.4762 81.8143 87.6992C81.6404 85.5243 79.8758 83.1888 77.9908 82.6386C75.6414 81.9529 73.7592 83.3299 73.905 85.6278C73.9708 86.6642 74.275 87.2325 74.9958 87.6645C75.5923 88.022 76.9582 87.9881 77.5921 87.6C78.5243 87.0294 79.0954 85.6334 78.7608 84.7435C78.5211 84.1058 78.7643 84.2 79.4876 85.0251C80.4133 86.0812 80.8094 87.2471 80.7087 88.6197C80.4413 92.2637 77.7492 94.5067 73.6431 94.5067C70.8909 94.5067 68.4829 93.5004 66.5224 91.5308C65.1269 90.1289 64.4871 88.9288 64.0956 86.9782C63.0929 81.9822 65.9581 76.4699 70.8284 74.025C74.2377 72.3135 78.8262 72.0513 81.6507 73.4066C85.3149 75.1648 88.2848 78.052 89.8155 81.3442C90.6316 83.0992 90.9106 84.219 91.0223 86.1863C91.246 90.1324 89.9334 93.6423 87.1076 96.6545C82.9424 101.094 76.2568 102.828 69.01 101.349C66.3884 100.813 65.1968 100.435 60.8516 98.7587C53.3316 95.8574 49.4731 94.5381 47.2944 94.123C44.1026 93.5152 39.8265 93.459 36.196 93.9773C34.499 94.2197 32.2361 94.7411 31.8207 94.9855C31.4933 95.1781 31.5343 95.1737 33.3392 94.8219C41.8028 93.172 50.7538 95.0003 61.4393 100.561C64.8883 102.356 68.6324 103.627 71.8447 104.093C73.7717 104.373 77.113 104.339 78.8806 104.022C83.2473 103.239 86.8296 101.352 89.9036 98.2143C92.2503 95.8193 93.374 93.8751 94.3149 90.582C94.7951 88.9013 94.9718 85.5584 94.6778 83.716C93.6589 77.3302 89.1721 72.2424 82.7507 70.191C79.9088 69.283 77.5619 69.0612 75.0499 69.4627ZM35.3449 71.9775C33.7321 72.6432 31.9326 74.0978 31.3413 75.2138C31.1872 75.5049 31.2933 75.4529 31.8127 74.9832C32.695 74.1854 33.4685 73.8587 35.589 73.3877C37.752 72.9074 38.3185 72.4841 37.6702 71.8331C37.3173 71.4788 36.4177 71.5347 35.3449 71.9775ZM33.7876 74.8821C31.478 75.6228 29.7495 77.6781 29.5392 79.934L29.4613 80.7703L29.8305 79.8108C30.8704 77.1071 32.4963 75.714 34.8069 75.5468C36.289 75.4396 37.2959 75.8088 38.3071 76.8303C39.1546 77.6866 39.4794 78.4478 39.4794 79.5781C39.4794 81.3043 37.8638 82.7011 36.416 82.2265C35.3756 81.8853 34.9461 80.3866 35.8498 80.2506C36.6853 80.1249 36.5998 79.2359 35.7338 79.045C35.1217 78.91 34.5 79.2225 34.0519 79.8908C33.1131 81.291 34.1261 83.3223 36.0149 83.827C36.8716 84.0559 38.0588 83.8267 38.8981 83.2705L39.4894 82.8786L39.0241 83.5235C37.5687 85.5407 38.4875 88.3564 40.7376 88.7749C41.4329 88.9043 42.4922 88.5043 42.8318 87.9839C43.1983 87.4223 43.1475 86.5688 42.7301 86.2752C42.3585 86.0138 42.2151 86.0862 41.9202 86.6834C41.648 87.2349 40.8977 87.2537 40.3684 86.7221C39.5469 85.8973 39.9313 84.2559 41.1181 83.5193C42.7605 82.5003 45.1746 83.3595 46.1201 85.2998C47.026 87.159 46.6993 89.2113 45.2426 90.8115C44.2679 91.8823 43.4664 92.3725 42.1335 92.7125C40.7759 93.059 40.7466 93.1572 42.0355 93.0417C46.833 92.6119 49.2421 86.8462 46.0885 83.3413C45.2135 82.3689 44.175 81.9069 42.6847 81.8271C41.5181 81.7646 41.3711 81.7935 40.5029 82.2547C39.8789 82.5865 39.6537 82.6562 39.8196 82.4664C40.9471 81.1764 41.0858 78.7531 40.1215 77.1865C39.4969 76.1719 38.2934 75.2299 37.1807 74.8848C35.9295 74.4969 34.9914 74.4961 33.7876 74.8821ZM17.7759 77.7865C15.8263 79.4337 16.222 84.0683 18.5378 86.7097C19.0233 87.2634 19.6146 87.658 20.9871 88.3437C23.6146 89.6562 24.6749 90.7472 25.2609 92.7406C25.3688 93.1075 25.5084 93.4078 25.5711 93.4078C25.7861 93.4078 26.0758 90.2242 25.9774 88.9404C25.8599 87.4052 25.5689 86.3834 24.9355 85.2815C24.4269 84.3965 24.0347 84.0799 21.7787 82.7326C19.9129 81.6185 18.3058 80.0743 18.0673 79.1669C17.9282 78.6373 17.9396 78.3947 18.1246 77.9503C18.2517 77.6448 18.3294 77.395 18.2975 77.395C18.2654 77.395 18.0307 77.5712 17.7759 77.7865ZM49.4304 85.5191C49.3094 85.7567 49.0944 86.6907 48.9527 87.5952C48.6682 89.4123 48.2299 90.5335 47.4605 91.4134C46.617 92.3781 47.2081 92.0668 48.2982 90.9723C50.0531 89.2103 51.2363 86.2157 50.5002 85.399C50.1079 84.9637 49.6895 85.0108 49.4304 85.5191ZM55.1703 85.3146C54.3294 85.6819 53.5047 86.5681 52.5326 88.1488C50.7793 90.9997 49.2414 92.5327 47.5437 93.1221L46.7499 93.3976L48.325 93.4026C52.1075 93.415 56.1197 92.1699 57.9056 90.4299C58.8654 89.4946 59.2271 88.6726 59.1498 87.6013C59.0732 86.5374 58.6382 85.8447 57.7659 85.3978C57.0594 85.0359 55.8936 84.9986 55.1703 85.3146ZM33.6943 85.7422C32.6447 86.0392 31.818 87.1554 31.818 88.276C31.818 89.1217 32.4367 90.1192 33.219 90.5344C34.0389 90.9699 34.6531 90.9866 35.5078 90.5969C37.2734 89.7917 37.5035 87.1446 35.8979 86.1104C35.2116 85.6683 34.422 85.5364 33.6943 85.7422ZM15.5588 89.2869C15.5618 90.7698 16.8529 92.5577 18.4249 93.256C19.3103 93.6492 20.827 93.8701 22.4603 93.8437C23.4852 93.8273 23.9086 93.8852 24.2091 94.0828L24.6054 94.3436L24.2791 93.601C23.5808 92.0115 22.6582 90.9459 21.595 90.5005C20.9666 90.2374 19.371 90.169 18.1502 90.3528C17.1295 90.5065 16.3992 90.1307 16.0125 89.2529C15.8401 88.8614 15.667 88.5412 15.6281 88.5412C15.5891 88.5412 15.5578 88.8768 15.5588 89.2869ZM113.581 90.1723C113.092 90.8888 112.17 91.4693 111.163 91.6958C110.209 91.9101 108.202 91.831 104.757 91.4436C98.8606 90.7801 96.8199 91.4506 94.6178 94.775C93.6082 96.2989 91.4319 100.315 91.6156 100.315C91.6683 100.315 92.7118 99.5353 93.9345 98.5823C97.4634 95.8314 99.0676 95.1737 101.845 95.3387C103.926 95.4624 103.961 95.6995 101.912 95.8011C99.9918 95.8964 98.7935 96.272 96.9395 97.3603C95.5583 98.1708 93.2904 99.8612 92.1707 100.915L91.3108 101.724L91.9867 101.493C93.7854 100.88 95.2404 100.748 98.8939 100.865C102.867 100.992 104.097 100.848 106.495 99.9769C109.832 98.7645 112.603 95.916 113.496 92.7798C113.742 91.9159 114.089 89.7735 113.998 89.6818C113.971 89.655 113.783 89.8757 113.581 90.1723ZM28.5147 90.6894C27.6609 91.2214 27.3587 92.3338 27.823 93.2353C28.152 93.874 28.7304 94.1927 29.5611 94.1927C30.1768 94.1927 30.3657 94.1125 30.8174 93.659C31.2691 93.2054 31.349 93.0158 31.349 92.3976C31.349 91.9859 31.237 91.4983 31.0913 91.2749C30.5617 90.4635 29.3273 90.1829 28.5147 90.6894ZM15.8717 94.1122C15.4834 94.5819 15.8174 95.0891 16.8478 95.5949C18.1213 96.2201 19.8713 96.4734 21.3381 96.2449C23.1893 95.9565 23.3011 95.8127 21.7332 95.7365C20.3939 95.6714 20.2402 95.6249 18.5467 94.7734C16.6956 93.8426 16.1964 93.7193 15.8717 94.1122ZM25.4557 94.1957C24.9447 94.4001 24.5928 95.0265 24.7147 95.5141C24.9238 96.3504 26.0586 96.6788 26.6584 96.0766C27.4861 95.2455 26.5378 93.7627 25.4557 94.1957ZM47.2561 95.7668C49.7517 97.019 50.8388 99.725 49.7776 102.043C49.0176 103.703 47.6731 104.614 45.9639 104.626C43.5416 104.643 41.7456 102.43 42.523 100.386C43.0046 99.1198 44.2512 98.2571 45.2337 98.51C45.6311 98.6124 45.6077 98.6366 44.8229 98.9328C43.8215 99.3107 43.3896 99.9105 43.3889 100.925C43.3881 101.849 43.8532 102.564 44.7338 102.992C47.0496 104.118 49.4035 101.404 48.2274 98.9645C47.6723 97.8133 46.5847 97.1702 45.1643 97.153C42.4132 97.1201 40.6341 100.211 41.9166 102.796C43.2153 105.412 46.6221 105.996 48.8519 103.983C50.9317 102.105 51.0635 99.0463 49.1549 96.9496C48.435 96.1587 47.0663 95.2916 46.5378 95.2916C46.412 95.2916 46.7352 95.5055 47.2561 95.7668ZM27.5991 95.6998C27.6005 95.7775 27.9875 96.0088 28.4589 96.2136C29.4996 96.6659 30.5961 97.6069 31.1074 98.4862C31.3158 98.8446 31.7478 99.8796 32.0676 100.786C32.7666 102.769 33.1214 103.364 34.1096 104.212C36.7041 106.439 40.7928 106.935 42.345 105.212C42.6282 104.898 42.6249 104.895 42.0028 104.979C41.6572 105.026 41.1957 105.019 40.9771 104.964C39.9513 104.705 38.762 103.077 37.4521 100.139C36.291 97.5352 35.3449 96.7147 32.6749 95.9971C31.6239 95.7146 27.5949 95.4786 27.5991 95.6998ZM11.998 96.6926C10.6676 97.0319 9.61577 98.3096 9.61577 99.5862C9.61577 100.395 10.1352 101.339 10.8372 101.806C12.8185 103.122 16.4006 102.346 20.2353 99.7697C21.5081 98.9145 23.4192 97.3246 23.3083 97.2133C23.2631 97.1678 23.1365 97.2042 23.0269 97.294C22.6232 97.6251 21.0973 97.9604 19.9952 97.9604C18.7395 97.9604 17.2519 97.6834 15.3036 97.0866C13.8311 96.6358 12.7339 96.505 11.998 96.6926ZM26.844 97.1921C26.9681 97.5498 26.96 98.1129 26.8133 99.306C26.7034 100.2 26.6566 101.298 26.7092 101.744C26.9063 103.414 28.1303 105.275 29.443 105.901C30.1458 106.236 31.4467 106.41 31.285 106.147C31.2241 106.048 31.0969 105.967 31.0027 105.967C30.6454 105.967 29.8211 105.178 29.7388 104.757C29.6918 104.516 29.792 103.612 29.9617 102.749C30.3808 100.615 30.1208 99.4203 28.9902 98.2851C28.5151 97.808 26.9526 96.7045 26.7522 96.7045C26.7095 96.7045 26.7508 96.924 26.844 97.1921ZM51.0479 97.5491C52.3387 98.5746 53.5971 100.476 54.0241 102.046C54.4159 103.487 54.4558 104.778 54.2877 110.562C54.1004 117.01 54.1365 117.525 54.8978 119.261C55.3459 120.282 56.979 122.829 57.105 122.703C57.1496 122.658 57.0353 122.364 56.8509 122.05C56.3231 121.152 55.8966 119.709 55.8966 118.821C55.8966 118.103 56.0853 117.629 57.5079 114.774C60.1847 109.402 60.6102 107.162 59.5091 104.24C58.8449 102.477 56.4676 99.9663 54.3132 98.7526L53.6294 98.3675L54.4479 99.1895C57.0533 101.806 58.5269 105.828 57.9323 108.7C57.7276 109.689 57.1901 111.086 57.0633 110.958C57.0212 110.916 57.1086 110.606 57.2573 110.269C57.6266 109.432 57.6282 106.735 57.2601 105.37C56.3084 101.841 54.0527 98.5907 51.809 97.516C50.4683 96.8738 50.212 96.8849 51.0479 97.5491ZM22.8257 98.9317C20.976 100.938 19.9164 102.47 18.9912 104.475C17.7241 107.223 17.7205 109.432 18.9808 110.697C20.0654 111.786 21.5257 111.822 22.6979 110.789C23.9103 109.72 24.0881 108.527 23.4522 105.729C22.7375 102.583 22.7723 100.239 23.5569 98.6948C23.7269 98.3604 23.8352 98.0564 23.798 98.0188C23.7607 97.9815 23.3232 98.3923 22.8257 98.9317ZM24.857 99.0986C24.3054 101.038 24.5839 104.016 25.4161 105.079C25.8492 105.631 26.611 105.662 26.7436 105.131C26.8363 104.76 26.6335 104.158 25.7029 102.042C25.2449 101.001 25.1852 100.706 25.1861 99.4911C25.1868 98.7356 25.1758 98.1174 25.1616 98.1174C25.1475 98.1174 25.0104 98.559 24.857 99.0986ZM113.357 98.7334C112.721 98.8911 111.975 99.294 111.704 99.6256C111.221 100.216 108.687 102.223 107.953 102.596C107.526 102.814 106.896 103.008 106.554 103.027C106.212 103.047 105.931 103.084 105.931 103.109C105.928 103.269 108.401 104.287 109.434 104.551C111.612 105.109 112.97 104.897 114.92 103.696C117.215 102.281 117.968 102.093 119.357 102.585C119.711 102.71 120.001 102.763 120 102.702C119.996 102.464 118.785 101.076 117.969 100.376C116.503 99.1168 114.576 98.4309 113.357 98.7334ZM60.0154 101.89C61.2984 103.316 62.9569 105.857 63.4816 107.199C63.9744 108.461 64.4743 109.107 64.9576 109.107C65.2744 109.107 65.348 108.911 65.2834 108.243C65.1937 107.315 63.3542 104.791 61.2966 102.771C59.5937 101.1 58.8363 100.579 60.0154 101.89ZM18.335 102.287C17.928 102.499 16.7948 102.984 15.8169 103.363C12.7318 104.561 11.7392 105.198 11.1917 106.334C10.1047 108.588 12.0127 110.91 14.1985 109.993C14.8063 109.738 16.0024 108.44 16.5752 107.413C16.8026 107.006 17.3092 105.931 17.701 105.025C18.0928 104.118 18.5811 103.041 18.7861 102.631C18.9909 102.221 19.1399 101.888 19.1169 101.893C19.094 101.896 18.7422 102.074 18.335 102.287ZM96.3141 102.132C96.1421 102.172 95.3858 102.323 94.6333 102.467C93.8809 102.612 93.2652 102.787 93.2652 102.857C93.2652 102.927 93.3613 102.984 93.4788 102.984C93.5962 102.984 94.1999 103.239 94.8203 103.551C95.6874 103.986 96.4109 104.563 97.9484 106.044C99.0486 107.104 100.257 108.15 100.633 108.368C101.571 108.913 102.845 109.264 103.887 109.264C104.864 109.264 107.337 108.812 107.337 108.634C107.337 108.57 107.113 108.473 106.84 108.418C106.106 108.271 105.199 107.215 104.157 105.294C102.709 102.626 101.971 102.199 98.6594 102.112C97.5415 102.083 96.4861 102.092 96.3141 102.132ZM51.2059 103.671C50.1926 104.758 48.589 105.933 47.0626 106.707C45.3638 107.569 43.888 108.58 42.7918 109.634C39.0796 113.203 38.0344 117.814 40.0127 121.894L40.549 123L40.5648 122.372C40.6098 120.597 41.7776 119.491 45.5608 117.64C49.0306 115.942 50.2661 115.206 51.2333 114.26C52.8183 112.71 53.2212 110.864 52.9233 106.516C52.7538 104.04 52.6969 103.61 52.5618 103.782C52.5337 103.818 52.2083 104.731 51.839 105.81C51.4696 106.889 50.9258 108.286 50.6304 108.914C49.7264 110.837 47.9297 112.479 45.9637 113.178C45.4282 113.368 45.3686 113.422 47.1723 112.083C48.4505 111.134 49.0783 110.33 50.0839 108.35C50.8546 106.833 52.1968 103.236 52.1111 102.917C52.0862 102.824 51.6789 103.164 51.2059 103.671ZM64.7149 110.896C64.2703 111.343 64.1843 111.542 64.1888 112.113C64.1955 112.934 64.4401 113.418 65.0537 113.825C66.4034 114.718 68.1116 113.568 67.891 111.915C67.7568 110.911 67.1032 110.362 66.0414 110.362C65.3458 110.362 65.1801 110.429 64.7149 110.896Z" fill="#EDCECB"/>
</svg>
