<svg width="252" height="48" viewBox="0 0 252 48" fill="none" xmlns="http://www.w3.org/2000/svg">
<path fill-rule="evenodd" clip-rule="evenodd" d="M126.48 46.0844C128.459 43.6994 130.616 36.2764 130.616 31.8504C130.616 26.7304 127.057 21.6534 124.228 22.7384C121.641 23.7314 119.348 30.1364 120.078 34.3324C120.909 39.1094 123.838 47.4204 124.691 47.4204C125.065 47.4204 125.87 46.8194 126.48 46.0844ZM237.103 37.2864C245.623 35.2924 251.616 28.3544 251.616 20.4844C251.616 8.76141 238.59 -0.132587 221.616 0.00141144C211.822 0.0784111 201.306 2.92641 179.616 11.3724C169.991 15.1204 160.766 18.6534 159.116 19.2244C157.466 19.7954 156.864 20.2984 157.778 20.3414C158.692 20.3844 169.164 17.0604 181.049 12.9544C202.381 5.58541 214.958 2.42041 222.911 2.42041C233.932 2.42041 246.579 9.22741 248.698 16.2994C250.14 21.1124 249.27 26.3194 246.418 29.9444C243.798 33.2754 237.274 36.3684 232.807 36.3984C230.86 36.4114 229.752 36.8324 230.116 37.4204C230.83 38.5764 231.66 38.5604 237.103 37.2864ZM21.6162 37.4654C21.6162 36.8904 20.4772 36.4204 19.0842 36.4204C12.4342 36.4204 4.2422 30.4574 2.62021 24.4364C0.594208 16.9134 5.26021 9.74441 15.1162 5.23541C19.3242 3.31041 21.7002 2.96241 30.1162 3.03741C41.1042 3.13441 48.2542 4.97741 77.6162 15.2814C97.3992 22.2244 98.5062 21.6904 79.6162 14.3174C47.7362 1.87441 41.6072 0.130409 29.6162 0.0884094C10.6042 0.0224075 -2.93478 11.2344 0.547211 24.1644C2.60422 31.8034 7.96921 36.0364 17.8662 37.8314C20.2412 38.2614 21.6162 38.1274 21.6162 37.4654ZM143.979 35.1444C144.995 34.4014 145.47 33.2034 145.115 32.2794C144.506 30.6914 140.539 28.4204 138.374 28.4204C137.742 28.4204 135.963 27.2114 134.421 25.7334L131.616 23.0464V26.0104C131.616 29.6774 133.832 32.9634 137.627 34.9264C141.148 36.7464 141.759 36.7674 143.979 35.1444ZM113.632 34.5674C116.098 33.2564 117.541 31.5144 118.572 28.6064C120.264 23.8314 119.443 22.2034 116.891 25.2704C115.915 26.4444 113.342 28.0064 111.174 28.7424C106.371 30.3734 104.685 32.5944 106.546 34.8364C108.237 36.8744 109.375 36.8304 113.632 34.5674ZM228.045 26.8494C231.294 23.5994 229.54 17.4664 224.636 14.9304C220.273 12.6744 220.087 13.0534 223.595 17.0494C225.712 19.4614 226.586 21.3064 226.199 22.5494C225.878 23.5784 225.339 25.3204 224.999 26.4204C224.26 28.8174 225.852 29.0414 228.045 26.8494ZM163.116 26.9444C166.416 26.2194 173.841 23.7314 179.616 21.4154C185.391 19.0994 194.166 16.1204 199.116 14.7964C206.922 12.7084 207.387 12.4724 202.616 13.0214C195.858 13.7994 182.588 17.5644 174.303 21.0554C166.166 24.4834 159.758 26.3964 156.366 26.4094C154.853 26.4154 153.616 26.8704 153.616 27.4204C153.616 28.6894 155.625 28.5884 163.116 26.9444ZM98.0322 27.5564C98.3252 27.0814 96.3472 26.4304 93.6352 26.1094C90.9242 25.7884 83.6232 23.5164 77.4112 21.0614C65.3042 16.2774 57.1082 13.9534 49.1162 13.0394C44.9572 12.5634 45.5452 12.8684 52.6162 14.8524C57.2912 16.1644 66.0662 19.1224 72.1162 21.4274C78.1662 23.7314 86.0412 26.2404 89.6162 27.0014C97.3712 28.6534 97.3552 28.6514 98.0322 27.5564ZM27.0822 26.6704C25.2222 22.3224 25.4702 19.7474 28.0422 16.6904C30.3952 13.8944 30.4492 13.6514 28.6172 14.1304C25.9812 14.8194 21.6162 20.0354 21.6162 22.4974C21.6162 24.5794 24.9282 28.4204 26.7232 28.4204C27.3962 28.4204 27.5362 27.7334 27.0822 26.6704ZM126.966 19.6624C127.224 19.2464 127.733 17.3114 128.099 15.3644C128.602 12.6814 128.308 11.2614 126.883 9.50241L125.003 7.18041L123.276 9.81741C121.835 12.0154 121.726 13.1154 122.621 16.4374C123.594 20.0514 125.741 21.6454 126.966 19.6624ZM133.116 17.2404C133.708 15.8674 135.137 14.7984 136.616 14.6214C141.229 14.0694 141.978 13.5614 140.606 11.9084C137.528 8.19941 130.998 12.2904 131.789 17.4324C132.11 19.5224 132.134 19.5194 133.116 17.2404ZM119.616 18.1024C119.616 13.2064 115.05 9.27241 111.118 10.7814C108.375 11.8334 109.388 14.4204 112.543 14.4204C114.515 14.4204 116.148 15.2804 117.543 17.0554C118.997 18.9034 119.616 19.2164 119.616 18.1024ZM235.616 14.9394C235.616 14.1254 234.378 13.1874 232.866 12.8564C231.354 12.5244 229.553 12.0804 228.866 11.8684C226.815 11.2364 227.449 13.1904 229.839 14.8634C232.649 16.8324 235.616 16.8714 235.616 14.9394ZM22.6272 13.9084L24.9872 11.3964L21.5522 12.0494C17.9122 12.7404 15.6162 14.0924 15.6162 15.5424C15.6162 17.4084 20.3832 16.2974 22.6272 13.9084Z" fill="#FBF1F1"/>
</svg>
