<svg width="164" height="214" viewBox="0 0 164 214" fill="none" xmlns="http://www.w3.org/2000/svg">
<g clip-path="url(#clip0_4_262)">
<path d="M133.77 123.64L149.77 182.53C149.77 182.53 166.61 185.59 161.34 165.85C125.6 63.04 91.9399 46.36 91.9399 46.36L90.9399 36.83C90.9399 36.83 98.8699 18.04 98.2199 8.08998C98.1703 7.25778 97.9407 6.44625 97.5468 5.71147C97.153 4.97669 96.6043 4.33619 95.9388 3.83415C95.2732 3.33212 94.5066 2.98055 93.6918 2.80373C92.8771 2.6269 92.0337 2.62904 91.2199 2.80998C82.6899 4.68998 80.3499 13 80.3499 13C80.3499 13 74.5099 -2.88002 64.8399 2.67998C55.1699 8.23998 69.8399 37.17 69.8399 37.17L68.8399 46.36C68.8399 46.36 16.9399 95.9 1.61994 174.67C1.32899 176.159 1.55994 177.703 2.27392 179.042C2.98789 180.38 4.14128 181.432 5.53994 182.02C14.8399 185.95 16.5399 185.95 16.5399 185.95" stroke="#1A1C16" stroke-width="3" stroke-miterlimit="10"/>
<path d="M131.39 197.53C149.77 201.22 149.77 182.53 149.77 182.53" stroke="#1A1C16" stroke-width="3" stroke-miterlimit="10"/>
<path d="M82.71 158.02V205.65C82.71 205.65 100.71 222.36 112.32 201.59C112.32 201.59 118.32 201.33 122.78 204.46C123.632 205.094 124.639 205.485 125.696 205.593C126.752 205.7 127.818 205.52 128.78 205.07C133.14 202.85 131.36 197.51 131.36 197.51L117.74 147.81" stroke="#1A1C16" stroke-width="3" stroke-miterlimit="10"/>
<path d="M107.23 166.87L112.33 201.6" stroke="#1A1C16" stroke-width="3" stroke-miterlimit="10"/>
<path d="M51.39 164.83L46.94 197.99C46.94 197.99 45.38 207.27 59.14 207.08C62.6522 206.951 66.0748 205.936 69.09 204.13C71.1981 202.819 73.6864 202.256 76.1536 202.531C78.6209 202.807 80.9234 203.906 82.69 205.65" stroke="#1A1C16" stroke-width="3" stroke-miterlimit="10"/>
<path d="M26.54 146.44C26.54 146.44 16.12 171.63 16.54 188.3C16.5954 190.547 17.4835 192.694 19.0318 194.323C20.5802 195.953 22.6785 196.95 24.9199 197.12C36.3799 197.99 46.9199 197.99 46.9199 197.99" stroke="#1A1C16" stroke-width="3" stroke-miterlimit="10"/>
<path d="M69.77 37.17L90.88 36.83" stroke="#1A1C16" stroke-width="3" stroke-miterlimit="10"/>
<path d="M91.9 46.36H67.05" stroke="#1A1C16" stroke-width="3" stroke-miterlimit="10"/>
</g>
<defs>
<clipPath id="clip0_4_262">
<rect width="163.87" height="213.51" fill="white"/>
</clipPath>
</defs>
</svg>
