<svg width="183" height="198" viewBox="0 0 183 198" fill="none" xmlns="http://www.w3.org/2000/svg">
<g clip-path="url(#clip0_4_300)">
<path d="M44.64 2.02C48.93 6.46 57.39 12.02 67.7701 2.02C68.0406 1.76207 68.3826 1.59162 68.7514 1.5309C69.1202 1.47018 69.4988 1.52201 69.8377 1.67961C70.1767 1.83721 70.4603 2.09329 70.6516 2.41444C70.8429 2.73559 70.9329 3.1069 70.9101 3.47999C70.1301 14.95 68.9101 24.48 68.2201 29.4C67.8356 32.0715 68.2423 34.7972 69.39 37.24C76.25 51.77 104.86 100.24 181.26 99.56C181.01 122.79 170.8 127.39 170.8 127.39C170.8 127.39 163.65 130.45 160.58 141.68C157.51 152.91 162.12 155.47 151.14 158.28C143.23 160.28 142.61 166.7 142.88 170.12C142.97 171.077 143.171 172.02 143.48 172.93C143.99 174.58 136.19 182.18 128.78 179.8C128.036 179.569 127.259 179.461 126.48 179.48C122.11 179.12 120.3 182.48 119.61 184.58C118.999 186.374 118.018 188.02 116.73 189.41C113.73 192.75 107.98 197.02 100.33 194.03C93.48 191.34 91.3301 192.14 90.7101 193.26C90.2909 194.151 89.6213 194.901 88.7831 195.417C87.9449 195.934 86.9744 196.196 85.9901 196.17C83.7301 195.98 80.6601 194.92 76.8401 191.76C75.7059 190.814 74.2626 190.319 72.7865 190.371C71.3104 190.423 69.9053 191.017 68.8401 192.04C65.8401 195.04 63.8401 198.67 56.0301 189.95C55.5236 189.405 55.0621 188.82 54.6501 188.2C54.2077 187.464 53.528 186.901 52.7228 186.603C51.9176 186.305 51.035 186.29 50.2201 186.56C48.6942 186.939 47.3602 187.864 46.4701 189.16C44.6001 191.81 39.47 197.28 31.39 192.03C29.405 190.681 27.8113 188.832 26.7701 186.67C24.5001 182.18 20.5601 185.21 18.7701 186.93C17.9889 187.694 17.0691 188.301 16.0601 188.72C12.6301 190.15 5.25004 192.64 1.79004 189.17C27.33 129.5 43.7901 41.95 46.5601 26.58C46.8401 25.0406 46.8198 23.4616 46.5001 21.93L42.6201 3.09001C42.5751 2.83966 42.6109 2.58151 42.7223 2.35283C42.8336 2.12414 43.0147 1.93673 43.2395 1.81767C43.4642 1.69861 43.721 1.65405 43.9728 1.69041C44.2245 1.72678 44.4582 1.8422 44.64 2.02Z" stroke="#1A1C16" stroke-width="3" stroke-miterlimit="10"/>
<path d="M46.71 25.24H68.78" stroke="#1A1C16" stroke-width="3" stroke-miterlimit="10"/>
<path d="M68.22 33.34L45.54 32.08" stroke="#1A1C16" stroke-width="3" stroke-miterlimit="10"/>
<path d="M126.63 110.03C126.63 110.03 165.43 129.68 170.8 127.39" stroke="#1A1C16" stroke-width="3" stroke-miterlimit="10"/>
<path d="M106.97 116.66C106.97 116.66 126.15 143.47 154.47 157.26" stroke="#1A1C16" stroke-width="3" stroke-miterlimit="10"/>
<path d="M110.8 135.82L143.04 171.19" stroke="#1A1C16" stroke-width="3" stroke-miterlimit="10"/>
<path d="M81.95 105.43C81.95 105.43 106.42 178.05 119.08 185.91" stroke="#1A1C16" stroke-width="3" stroke-miterlimit="10"/>
<path d="M81.1801 127.57C81.1801 127.57 94.04 185.43 102.04 194.57" stroke="#1A1C16" stroke-width="3" stroke-miterlimit="10"/>
<path d="M64.08 108.5L76.84 191.76" stroke="#1A1C16" stroke-width="3" stroke-miterlimit="10"/>
<path d="M49.0099 136.96L46.4399 189.16" stroke="#1A1C16" stroke-width="3" stroke-miterlimit="10"/>
<path d="M37.52 118.8L26.75 186.67" stroke="#1A1C16" stroke-width="3" stroke-miterlimit="10"/>
</g>
<defs>
<clipPath id="clip0_4_300">
<rect width="182.78" height="197.68" fill="white"/>
</clipPath>
</defs>
</svg>
