<svg width="67" height="216" viewBox="0 0 67 216" fill="none" xmlns="http://www.w3.org/2000/svg">
<g clip-path="url(#clip0_4_286)">
<path d="M55.86 200.46C57.7645 200.389 59.6166 199.817 61.2299 198.802C62.8432 197.787 64.1608 196.366 65.05 194.68C56.2 187.87 54.05 160.29 54.05 160.29L52.82 114.34C52.82 114.34 57.7 69.21 48.98 47.63C48.228 45.8681 47.2893 44.1918 46.18 42.63C37.66 30.13 47.37 9.47 47.37 9.47L37.84 1.98001L28.31 9.47L21.16 1.98001L10.6 9.81003C10.6 9.81003 21.38 25.66 14.6 40.81C13.0738 44.0972 11.9103 47.5408 11.13 51.08C6.42997 74.16 8.90997 108.85 8.90997 108.85C8.90997 108.85 21.51 172.51 2.09998 196.34C10.61 203.83 12.03 201.66 12.03 201.66" stroke="#1A1C16" stroke-width="3" stroke-miterlimit="10"/>
<path d="M48.35 166.76L56.18 203.19C56.18 203.19 52.44 213.06 41.88 207.61" stroke="#1A1C16" stroke-width="3" stroke-miterlimit="10"/>
<path d="M37.1399 170.89L41.8999 211.06C41.8999 211.06 37.8199 206.97 26.8999 211.06C21.8999 206.79 23.1599 168.16 23.1599 168.16" stroke="#1A1C16" stroke-width="3" stroke-miterlimit="10"/>
<path d="M16.3501 153.15C16.3501 153.15 19.4201 192.98 10.5601 203.87C14.6701 215.1 25.3501 207.89 25.3501 207.89" stroke="#1A1C16" stroke-width="3" stroke-miterlimit="10"/>
</g>
<defs>
<clipPath id="clip0_4_286">
<rect width="66.97" height="215.14" fill="white"/>
</clipPath>
</defs>
</svg>
