<svg width="126" height="124" viewBox="0 0 126 124" fill="none" xmlns="http://www.w3.org/2000/svg">
<g clip-path="url(#clip0_4_291)">
<path d="M56.32 13.89C56.32 13.89 72.97 -2.10998 81.48 3.68002C83.87 13.55 83.48 17.04 83.48 17.04L73.38 10.97C73.3397 10.9443 73.2918 10.9331 73.2442 10.9383C73.1967 10.9434 73.1524 10.9647 73.1185 10.9985C73.0847 11.0324 73.0634 11.0767 73.0583 11.1243C73.0531 11.1718 73.0643 11.2197 73.09 11.26C74.54 13.58 77.86 20.52 69.18 25.17C68.76 37.12 68.5 38.83 68.5 38.83C68.5 38.83 84.5 71.17 122.63 86.14C129.49 100.03 101.86 104.53 101.86 104.53C101.86 104.53 96.03 105.75 90.78 113.4C89.3971 115.488 87.3245 117.023 84.9245 117.738C82.5245 118.452 79.9497 118.301 77.65 117.31H77.57C77.0557 117.071 76.4904 116.961 75.9238 116.99C75.3572 117.02 74.8065 117.188 74.32 117.48L68.44 120.94C67.1691 121.703 65.6837 122.028 64.2103 121.868C62.7369 121.707 61.3566 121.069 60.28 120.05C59.4407 119.25 58.4199 118.666 57.3052 118.347C56.1906 118.029 55.0153 117.985 53.88 118.22L47.44 119.54C45.4788 119.935 43.4458 119.77 41.5745 119.062C39.7031 118.355 38.0691 117.134 36.86 115.54L35.37 113.6C34.4668 112.422 33.1524 111.629 31.6896 111.379C30.2267 111.128 28.7233 111.44 27.48 112.25C26.4136 112.94 25.1196 113.185 23.8748 112.932C22.6301 112.68 21.5336 111.951 20.82 110.9C17.99 106.8 12.73 101.38 5.51001 103.13C-0.54999 96.83 2.11002 94.62 2.11002 94.62L45.68 38.1V25.1C45.68 25.1 35.81 19.01 43.68 10.84C43.89 8.3 30.4 15.27 30.4 15.27L33.17 1.58002L37.32 2.08002C42.0202 2.64139 46.4247 4.66699 49.91 7.87003L56.32 13.89Z" stroke="#1A1C16" stroke-width="3" stroke-miterlimit="10"/>
<path d="M45.65 31L68.87 32.02" stroke="#1A1C16" stroke-width="3" stroke-miterlimit="10"/>
<path d="M68.46 38.83L45.65 38.15" stroke="#1A1C16" stroke-width="3" stroke-miterlimit="10"/>
<path d="M84.8 69.29C84.8 69.29 102.93 92.29 114.67 94.57" stroke="#1A1C16" stroke-width="3" stroke-miterlimit="10"/>
<path d="M68.87 64.23C68.87 64.23 74.87 109.61 83.65 118.07" stroke="#1A1C16" stroke-width="3" stroke-miterlimit="10"/>
<path d="M57.26 73.38C57.26 73.38 61.06 100.12 52.38 118.03" stroke="#1A1C16" stroke-width="3" stroke-miterlimit="10"/>
<path d="M51.1 55C51.1 55 36.64 105.23 26 112.93" stroke="#1A1C16" stroke-width="3" stroke-miterlimit="10"/>
<path d="M39.87 58.83C39.87 58.83 21.23 100.17 12.04 103.5" stroke="#1A1C16" stroke-width="3" stroke-miterlimit="10"/>
</g>
<defs>
<clipPath id="clip0_4_291">
<rect width="125.18" height="123.41" fill="white"/>
</clipPath>
</defs>
</svg>
