<svg width="130" height="213" viewBox="0 0 130 213" fill="none" xmlns="http://www.w3.org/2000/svg">
<g clip-path="url(#clip0_4_278)">
<path d="M123.02 182.87C124.29 181.8 125.31 180.87 126.13 180.05C127.231 178.947 127.986 177.547 128.302 176.021C128.619 174.495 128.482 172.91 127.91 171.46L72.81 34.27C71.7098 31.5124 71.7098 28.4376 72.81 25.68C74.07 22.54 76.12 17.52 79.3 10.02C79.6434 8.5687 79.4459 7.04202 78.7446 5.72586C78.0432 4.4097 76.8861 3.39436 75.49 2.87C68.91 0.469996 62.06 6.22 62.06 6.22C62.06 6.22 57.14 -0.250019 49.85 1.97998C49.0669 2.22554 48.3402 2.62366 47.7116 3.15137C47.0831 3.67908 46.5652 4.32598 46.1878 5.05475C45.8104 5.78352 45.581 6.57977 45.5127 7.39761C45.4444 8.21546 45.5386 9.03875 45.79 9.82001C48.12 17.17 50.15 22.66 51.36 25.77C52.108 27.6952 52.1364 29.8255 51.44 31.77L1.92 171.32C1.48259 172.556 1.38547 173.886 1.63881 175.172C1.89215 176.458 2.48664 177.653 3.36 178.63L7.19001 182.87" stroke="#1A1C16" stroke-width="3" stroke-miterlimit="10"/>
<path d="M101.23 113.1L123.09 183.42C123.544 184.876 123.454 186.448 122.836 187.842C122.218 189.236 121.114 190.359 119.73 191L112.98 194.13" stroke="#1A1C16" stroke-width="3" stroke-miterlimit="10"/>
<path d="M92.04 121.27L113.42 194.97C113.854 196.465 113.731 198.067 113.075 199.479C112.419 200.891 111.273 202.018 109.85 202.65C102.681 205.934 94.6285 206.764 86.9401 205.01" stroke="#1A1C16" stroke-width="3" stroke-miterlimit="10"/>
<path d="M76.72 128.42L86.33 202.7C86.5157 204.143 86.2089 205.606 85.4594 206.853C84.7098 208.1 83.5614 209.057 82.2 209.57C80.2978 210.309 78.3188 210.832 76.3 211.13C75.3743 211.237 74.4364 211.15 73.5462 210.875C72.656 210.599 71.8331 210.141 71.1301 209.529C70.4271 208.917 69.8594 208.166 69.4633 207.322C69.0673 206.479 68.8516 205.562 68.83 204.63C68.24 187.28 64.83 138.98 64.83 138.98" stroke="#1A1C16" stroke-width="3" stroke-miterlimit="10"/>
<path d="M48.49 131.15L44.7 202.57C44.6164 204.115 45.0813 205.639 46.0127 206.874C46.9441 208.109 48.2819 208.976 49.79 209.32L54.84 210.47C57.1136 210.991 59.4978 210.701 61.58 209.65L68.89 205.94" stroke="#1A1C16" stroke-width="3" stroke-miterlimit="10"/>
<path d="M36.55 116.51L19.31 194.73C18.8836 196.628 19.1883 198.616 20.1632 200.299C21.1382 201.982 22.7117 203.236 24.57 203.81C28.43 204.97 34.57 205.94 44.38 205.94" stroke="#1A1C16" stroke-width="3" stroke-miterlimit="10"/>
<path d="M24.98 121.27L7.19996 182.87C6.82714 184.143 6.88696 185.505 7.37007 186.74C7.85318 187.976 8.73233 189.017 9.86996 189.7L19.18 195.32" stroke="#1A1C16" stroke-width="3" stroke-miterlimit="10"/>
</g>
<defs>
<clipPath id="clip0_4_278">
<rect width="129.99" height="212.69" fill="white"/>
</clipPath>
</defs>
</svg>
