<svg width="217" height="217" viewBox="0 0 217 217" fill="none" xmlns="http://www.w3.org/2000/svg">
<g clip-path="url(#clip0_4_271)">
<path d="M142.667 171.043C155.955 178.893 170.324 184.751 185.316 188.429C209.018 193.958 214.552 182.518 214.552 182.518C214.552 182.518 175.837 171.078 143.851 164.367C127.852 161.017 120.45 148.14 117.039 136.005C114.165 125.516 113.879 114.487 116.204 103.864C119.383 88.7959 124.824 58.8341 120.206 48.3562C117.161 44.3511 115.07 39.7054 114.092 34.7719C113.142 30.3786 113.932 25.7883 116.296 21.9643C119.359 16.9919 122.747 9.48114 117.387 6.89643C109.092 2.94402 101.585 13.6074 101.585 13.6074C101.585 13.6074 91.7122 -0.208632 86.1898 6.89643C82.2335 11.9731 86.3522 20.6661 89.0206 25.2212C90.5231 27.7866 91.0812 30.7959 90.5984 33.7288C89.8643 38.0644 88.1806 42.1845 85.6677 45.7946C82.0438 51.1432 80.3124 57.548 80.7485 63.9919C81.6418 79.5582 87.1527 97.0485 88.5913 101.372C88.8631 102.185 89.0878 103.013 89.2642 103.852C90.9001 111.711 96.4342 137.303 63.6475 158.803C21.591 183.665 7.16992 191.953 7.16992 191.953C7.16992 191.953 12.7968 191.651 18.8413 196.369C20.0514 197.302 21.0848 198.445 21.8926 199.742C24.213 203.474 32.0442 207.206 36.0004 197.864" stroke="#1A1C16" stroke-width="3" stroke-miterlimit="10"/>
<path d="M124.104 1.36771L117.387 6.89644" stroke="#1A1C16" stroke-width="3" stroke-miterlimit="10"/>
<path d="M120.74 166.303L149.373 204.181C149.373 204.181 163.202 209.709 170.256 201.863C174.794 196.898 179.82 192.401 185.257 188.441" stroke="#1A1C16" stroke-width="3" stroke-miterlimit="10"/>
<path d="M99.2186 173.014C99.2186 173.014 89.3455 208.527 82.628 207.785C75.9106 207.044 98.0352 206.105 109.486 213.303C118.176 219.619 130.369 208.968 130.369 208.968C130.369 208.968 142.076 202.512 149.327 204.227" stroke="#1A1C16" stroke-width="3" stroke-miterlimit="10"/>
<path d="M73.5438 166.303L36.0236 197.864C36.0236 197.864 46.6856 197.284 53.0086 206.058C59.3316 214.833 82.628 207.739 82.628 207.739" stroke="#1A1C16" stroke-width="3" stroke-miterlimit="10"/>
<path d="M79.0779 1.36771L86.1898 6.89644" stroke="#1A1C16" stroke-width="3" stroke-miterlimit="10"/>
</g>
<defs>
<clipPath id="clip0_4_271">
<rect width="217" height="217" fill="white"/>
</clipPath>
</defs>
</svg>
