<svg width="119" height="52" viewBox="0 0 119 52" fill="none" xmlns="http://www.w3.org/2000/svg">
<path d="M6.9515 51.568C4.7755 51.3973 3.3675 50.8427 2.7275 49.904C2.13017 49.008 1.8315 47.856 1.8315 46.448C1.8315 44.8693 2.10883 42.9707 2.6635 40.752C3.26083 38.5333 4.0075 36.144 4.9035 33.584C5.84217 31.024 6.84483 28.464 7.9115 25.904C7.3995 25.9467 6.71683 26.0107 5.8635 26.096C5.01017 26.1813 4.09283 26.288 3.1115 26.416C2.13017 26.5013 1.1915 26.6293 0.2955 26.8C0.4235 25.52 0.892834 24.5387 1.7035 23.856C2.55683 23.1307 3.64483 22.6187 4.9675 22.32C6.33283 21.9787 7.80483 21.7867 9.3835 21.744C10.5355 18.5867 11.7088 15.5147 12.9035 12.528C14.0982 9.54133 15.2928 6.81066 16.4875 4.336C16.1888 4.29333 15.8475 4.272 15.4635 4.272C15.1222 4.22933 14.6742 4.208 14.1195 4.208C11.4742 4.208 9.42617 4.48533 7.9755 5.04C6.52483 5.59466 5.52217 6.40533 4.9675 7.472C4.4555 8.53866 4.1995 9.86133 4.1995 11.44C4.1995 12.464 4.28483 13.4027 4.4555 14.256C4.62617 15.1093 4.9035 16.0053 5.2875 16.944C3.4955 16.6453 2.19417 16.0267 1.3835 15.088C0.6155 14.1493 0.2315 12.976 0.2315 11.568C0.2315 9.34933 1.04217 7.408 2.6635 5.744C4.28483 4.03733 6.46083 2.69333 9.1915 1.712C11.9648 0.730665 15.0582 0.239998 18.4715 0.239998C20.7328 0.239998 22.9515 0.389332 25.1275 0.688C27.3462 0.986665 29.4368 1.136 31.3995 1.136C32.4235 1.136 33.3835 1.072 34.2795 0.943996C35.1755 0.815998 36.1782 0.602665 37.2875 0.303997C35.4102 2.39466 33.8528 3.80267 32.6155 4.528C31.4208 5.25333 30.2262 5.616 29.0315 5.616C28.0075 5.616 26.6848 5.488 25.0635 5.232C23.4848 4.93333 21.7355 4.69866 19.8155 4.528C19.2608 5.936 18.6635 7.57867 18.0235 9.456C17.3835 11.2907 16.7222 13.2747 16.0395 15.408C15.3568 17.4987 14.6528 19.632 13.9275 21.808C16.1462 21.9787 18.1515 22.1707 19.9435 22.384C21.7782 22.5973 23.6768 22.7467 25.6395 22.832C25.2128 23.472 24.7435 23.984 24.2315 24.368C23.7195 24.7093 23.0368 24.9653 22.1835 25.136C21.3302 25.264 20.1568 25.3707 18.6635 25.456C17.1702 25.5413 15.2288 25.6053 12.8395 25.648C12.4982 26.8 12.1355 28.016 11.7515 29.296C11.3675 30.576 11.0262 31.728 10.7275 32.752C10.4715 33.7333 10.2795 34.3733 10.1515 34.672C9.04217 38.512 8.2315 41.776 7.7195 44.464C7.2075 47.1093 6.9515 49.4773 6.9515 51.568ZM27.892 49.008C26.5267 49.008 25.3533 48.5387 24.372 47.6C23.348 46.704 22.836 45.3387 22.836 43.504C22.836 41.968 23.1773 40.3253 23.86 38.576C24.5427 36.8267 25.4813 35.0987 26.676 33.392C27.8707 31.6853 29.236 30.128 30.772 28.72C32.308 27.312 33.9293 26.1813 35.636 25.328C37.3853 24.4747 39.1133 24.048 40.82 24.048C42.612 24.048 44.1053 24.5173 45.3 25.456C46.5373 26.352 47.156 27.5467 47.156 29.04C47.156 30.192 46.7933 31.0027 46.068 31.472C45.3427 31.9413 44.4467 32.0907 43.38 31.92C43.4653 31.5787 43.5293 31.216 43.572 30.832C43.6573 30.4053 43.7 30 43.7 29.616C43.7 28.72 43.508 27.9307 43.124 27.248C42.74 26.5653 41.9933 26.224 40.884 26.224C39.6893 26.224 38.4733 26.6293 37.236 27.44C35.9987 28.2507 34.804 29.3173 33.652 30.64C32.5 31.9627 31.476 33.4133 30.58 34.992C29.684 36.5707 28.98 38.128 28.468 39.664C27.956 41.2 27.7 42.5653 27.7 43.76C27.7 45.2107 28.2333 45.936 29.3 45.936C30.2813 45.936 31.348 45.4667 32.5 44.528C33.6947 43.5893 34.8893 42.3947 36.084 40.944C37.3213 39.4933 38.4947 38.0213 39.604 36.528C40.7133 34.992 41.6733 33.648 42.484 32.496C42.6547 32.2827 42.804 32.176 42.932 32.176C43.1453 32.2187 43.4867 32.3253 43.956 32.496C44.4253 32.624 44.852 32.816 45.236 33.072C45.62 33.328 45.812 33.6693 45.812 34.096C45.812 34.5227 45.62 35.0773 45.236 35.76C44.852 36.4 44.4253 37.1253 43.956 37.936C43.4867 38.7467 43.06 39.5573 42.676 40.368C42.292 41.1787 42.1 41.968 42.1 42.736C42.1 43.2907 42.2493 43.8453 42.548 44.4C42.8893 44.912 43.4227 45.168 44.148 45.168C45.2147 45.168 46.6653 44.4 48.5 42.864C50.3773 41.2853 52.276 38.7253 54.196 35.184L55.22 36.208C54.2387 38.512 53.0227 40.5387 51.572 42.288C50.164 44.0373 48.6707 45.4027 47.092 46.384C45.5133 47.408 43.9347 47.92 42.356 47.92C40.6493 47.92 39.3907 47.3867 38.58 46.32C37.7693 45.296 37.3213 44.1653 37.236 42.928C37.236 42.8 37.236 42.672 37.236 42.544C37.2787 42.3733 37.3 42.224 37.3 42.096C35.5507 44.272 33.9507 45.9573 32.5 47.152C31.0493 48.3893 29.5133 49.008 27.892 49.008ZM85.838 47.984C84.2167 47.984 83.022 47.4933 82.254 46.512C81.486 45.5733 81.102 44.4427 81.102 43.12C81.102 42.096 81.2513 41.0933 81.55 40.112C81.8487 39.088 82.1473 38.0853 82.446 37.104C82.7873 36.1227 82.958 35.2267 82.958 34.416C82.958 33.648 82.7873 33.1147 82.446 32.816C82.1473 32.5173 81.7847 32.368 81.358 32.368C80.334 32.368 79.182 33.1573 77.902 34.736C76.622 36.272 75.0007 38.4907 73.038 41.392C72.3553 42.416 71.7367 43.4827 71.182 44.592C70.6273 45.7013 70.1153 46.6613 69.646 47.472C69.3047 47.472 68.8353 47.408 68.238 47.28C67.6407 47.152 67.1073 46.9813 66.638 46.768C66.2113 46.5547 65.998 46.2773 65.998 45.936C65.998 45.552 66.2113 44.8053 66.638 43.696C67.0647 42.5867 67.5553 41.2853 68.11 39.792C68.6647 38.2987 69.134 36.8267 69.518 35.376C69.9447 33.8827 70.158 32.624 70.158 31.6C70.158 30.96 70.0513 30.4693 69.838 30.128C69.6247 29.744 69.262 29.552 68.75 29.552C67.854 29.552 66.766 30.1067 65.486 31.216C64.206 32.2827 62.862 33.6907 61.454 35.44C60.046 37.1893 58.7233 39.152 57.486 41.328C56.2913 43.4613 55.31 45.5947 54.542 47.728C54.0727 47.728 53.518 47.6427 52.878 47.472C52.238 47.3013 51.6833 47.088 51.214 46.832C50.7447 46.576 50.51 46.3413 50.51 46.128C50.51 46 50.6807 45.3387 51.022 44.144C51.3633 42.9493 51.79 41.4773 52.302 39.728C52.7713 37.9787 53.2193 36.1867 53.646 34.352C54.1153 32.5173 54.478 30.896 54.734 29.488C54.9047 29.104 55.3527 28.7413 56.078 28.4C56.8033 28.0587 57.4647 27.888 58.062 27.888C58.6593 27.888 59.1287 28.0587 59.47 28.4C59.854 28.7413 60.046 29.2107 60.046 29.808C60.046 30.2773 59.9393 31.024 59.726 32.048C59.5127 33.0293 59.2353 34.1387 58.894 35.376C59.79 34.096 60.75 32.8373 61.774 31.6C62.798 30.32 63.8647 29.168 64.974 28.144C66.126 27.12 67.2567 26.3093 68.366 25.712C69.518 25.072 70.6487 24.752 71.758 24.752C73.2513 24.752 74.254 25.2853 74.766 26.352C75.3207 27.4187 75.598 28.6133 75.598 29.936C75.598 30.6613 75.5127 31.408 75.342 32.176C75.214 32.944 75.0433 33.6693 74.83 34.352C74.6593 35.0347 74.446 35.7173 74.19 36.4C75.0007 35.0773 75.918 33.8187 76.942 32.624C77.966 31.4293 79.054 30.4907 80.206 29.808C81.358 29.0827 82.5953 28.72 83.918 28.72C85.4967 28.72 86.5847 29.1893 87.182 30.128C87.7793 31.0667 88.078 32.112 88.078 33.264C88.078 34.3733 87.886 35.568 87.502 36.848C87.1607 38.0853 86.798 39.28 86.414 40.432C86.03 41.5413 85.838 42.5013 85.838 43.312C85.838 43.7813 85.9447 44.208 86.158 44.592C86.414 44.976 86.8833 45.168 87.566 45.168C88.718 45.168 89.8273 44.6347 90.894 43.568C91.9607 42.5013 92.942 41.2 93.838 39.664C94.734 38.0853 95.502 36.592 96.142 35.184L97.102 36.336C96.4193 38.128 95.5447 39.92 94.478 41.712C93.4113 43.504 92.1527 44.9973 90.702 46.192C89.2513 47.3867 87.63 47.984 85.838 47.984ZM101.92 48.816C99.2315 48.816 97.1835 48.0907 95.7755 46.64C94.3675 45.1893 93.6635 43.376 93.6635 41.2C93.6635 39.28 94.1328 37.2747 95.0715 35.184C96.0528 33.0507 97.3542 31.0667 98.9755 29.232C100.597 27.3547 102.368 25.84 104.288 24.688C106.25 23.4933 108.192 22.896 110.112 22.896C111.178 22.896 112.181 23.1733 113.12 23.728C114.101 24.2827 114.592 25.392 114.592 27.056C114.592 28.6773 114.101 30.2133 113.12 31.664C112.181 33.072 110.922 34.3307 109.344 35.44C107.808 36.5493 106.08 37.4667 104.16 38.192C102.282 38.8747 100.405 39.3013 98.5275 39.472C98.4848 39.728 98.4422 39.984 98.3995 40.24C98.3568 40.496 98.3355 40.8373 98.3355 41.264C98.3355 41.6053 98.3782 42.0747 98.4635 42.672C98.5915 43.2267 98.8048 43.8027 99.1035 44.4C99.4448 44.9547 99.9568 45.424 100.64 45.808C101.322 46.192 102.218 46.384 103.328 46.384C105.12 46.384 106.912 45.872 108.704 44.848C110.538 43.824 112.245 42.48 113.824 40.816C115.402 39.1093 116.725 37.232 117.792 35.184L118.88 36.08C117.728 38.64 116.256 40.88 114.464 42.8C112.672 44.6773 110.688 46.1493 108.512 47.216C106.378 48.2827 104.181 48.816 101.92 48.816ZM99.1035 37.488C100.213 37.2747 101.472 36.848 102.88 36.208C104.288 35.5253 105.632 34.6933 106.912 33.712C108.192 32.688 109.237 31.5787 110.048 30.384C110.901 29.1893 111.328 27.9733 111.328 26.736C111.328 26.2667 111.242 25.9253 111.072 25.712C110.901 25.4987 110.602 25.392 110.176 25.392C109.152 25.392 108.085 25.776 106.976 26.544C105.909 27.2693 104.842 28.2293 103.776 29.424C102.752 30.576 101.834 31.8773 101.024 33.328C100.213 34.736 99.5728 36.1227 99.1035 37.488Z" fill="#241E1F"/>
</svg>
