<svg width="389" height="103" viewBox="0 0 389 103" fill="none" xmlns="http://www.w3.org/2000/svg">
<path fill-rule="evenodd" clip-rule="evenodd" d="M193.673 1.02717C192.515 2.53722 191.547 4.5265 190.795 6.94094L190.129 9.07896L188.27 8.9742C186.002 8.84653 185.705 9.18189 186.742 10.7005C187.203 11.3746 187.598 12.5035 187.724 13.5077C188.169 17.03 189.275 18.3946 191.684 18.3946C192.603 18.3946 192.736 18.5241 193.329 19.9982C193.95 21.5384 194.311 25.367 194.329 30.5866C194.34 33.8687 194.577 31.8791 194.78 26.794C194.951 22.5381 195.106 21.3124 195.64 19.9982C196.24 18.5254 196.374 18.3946 197.293 18.3946C199.704 18.3946 200.801 17.0342 201.235 13.5077C201.362 12.4769 201.744 11.3923 202.223 10.7005C203.285 9.16723 202.975 8.8111 200.75 9.01146C199.759 9.10065 198.871 9.05086 198.778 8.9009C198.684 8.75093 198.409 7.86976 198.166 6.94247C197.665 5.03321 196.261 2.17559 195.184 0.874452L194.46 0L193.673 1.02717ZM195.214 9.61958C195.357 11.261 195.565 12.6941 195.676 12.8046C195.787 12.9149 196.281 12.622 196.773 12.1541C197.981 11.0044 198.423 11.3419 197.845 12.9711C197.176 14.8541 195.95 16.8024 195.077 17.3705C194.349 17.8446 194.273 17.8333 193.524 17.139C192.182 15.8956 190.378 11.8743 190.993 11.4971C191.167 11.3902 191.719 11.6935 192.221 12.1709C193.386 13.279 193.708 12.8694 193.715 10.2753C193.717 9.25336 193.883 7.60709 194.083 6.61688C194.426 4.92234 194.462 4.86981 194.7 5.72593C194.839 6.22623 195.07 7.97849 195.214 9.61958ZM247.925 15.9991C246.851 16.2942 246.143 17.1436 245.704 18.6625C245.362 19.8491 245.526 19.861 246.492 18.7205C249.332 15.369 253.423 18.5923 252.174 23.1972C251.746 24.7776 250.504 26.2849 249.177 26.8356C247.678 27.4577 243.951 27.3581 241.586 26.6327C240.476 26.2922 237.807 25.2595 235.655 24.3377C229.675 21.777 227.299 21.109 223.488 20.9181C217.486 20.617 213.424 21.999 208.566 25.9947C207.851 26.5827 207.309 27.1065 207.362 27.1587C207.415 27.2109 208.593 26.5762 209.98 25.7479C214.039 23.3252 218.858 21.7526 222.211 21.7565C225.036 21.7599 228.742 22.8042 234.598 25.2476C241.313 28.0493 243.697 28.7802 246.11 28.7763C250.307 28.7699 253.994 25.4855 253.994 21.7544C253.994 19.77 252.606 16.9692 251.293 16.3036C250.386 15.8434 248.961 15.7148 247.925 15.9991ZM138.023 16.6387C135.755 18.1314 134.826 22.1163 136.147 24.6878C136.955 26.2604 138.867 27.9782 140.398 28.5069C141.054 28.7335 142.56 28.9058 143.744 28.8902C146.253 28.8569 148.714 28.082 154.969 25.3573C163.066 21.8298 166.955 21.2565 172.28 22.8051C175.061 23.6139 178.37 25.1267 180.803 26.7015C182.15 27.5738 182.138 27.5518 180.341 25.8725C176.869 22.6273 172.294 20.9978 166.81 21.0531C162.723 21.094 160.312 21.7312 153.739 24.5079C145.337 28.0567 141.409 28.4311 138.722 25.9394C136.526 23.9037 136.373 19.9511 138.423 18.2376C139.89 17.0116 141.885 17.4209 143.241 19.226C144.011 20.2507 144.077 19.7682 143.398 18.0837C142.546 15.9674 140.059 15.2991 138.023 16.6387ZM181.612 21.4939C183.195 23.149 183.403 23.5549 184.368 26.867C184.797 28.3386 185.44 29.8523 185.797 30.2301C186.579 31.0588 188.331 31.1562 189.153 30.417C189.942 29.7078 190.521 30.2802 190.93 32.1742C191.404 34.3684 191.363 35.5193 190.818 35.3116C190.461 35.1757 190.484 35.427 190.938 36.6191C192.129 39.7465 193.909 48.0215 193.391 48.0215C192.979 48.0215 189.614 43.1474 188.337 40.7022C186.122 36.457 183.894 34.0868 180.41 32.2689C176.583 30.2711 172.329 30.5655 168.519 33.092C165.301 35.2258 164.154 37.8244 164.796 41.5195C165.495 45.5347 167.917 48.0215 171.13 48.0215C176.125 48.0215 179.705 43.9312 177.247 41.0305C176.35 39.9713 174.609 39.4817 173.88 40.0831C172.862 40.9218 173.705 43.1346 175.042 43.1346C176.57 43.1346 175.5 45.017 173.553 45.7555C171.944 46.3661 170.008 46.2012 168.835 45.3536C168.398 45.0375 167.718 44.1682 167.325 43.422C166.299 41.4737 166.502 38.4294 167.778 36.6265C171.197 31.7945 178.452 31.9335 183.892 36.935C185.707 38.6041 189.414 43.6896 189.414 44.5112C189.414 44.7421 189.575 45.0304 189.773 45.152C190.016 45.3004 190.069 45.2064 189.937 44.8646C189.489 43.7043 190.085 44.4837 190.955 46.1957C192 48.2521 191.995 48.2595 189.567 48.3942C188.032 48.4797 188.03 48.4809 188.03 49.5487V50.6177L190.413 50.7069C191.724 50.7561 192.797 50.8996 192.797 51.0258C192.797 51.1522 192.001 51.4983 191.028 51.7951C187.337 52.9219 184.196 55.7438 182.922 59.0791C182.31 60.6808 182.19 61.5387 182.205 64.2094C182.227 67.9302 182.874 70.0105 184.649 72.0706C185.616 73.1931 185.723 73.4982 185.723 75.143V76.9691L188.239 77.839C190.637 78.668 190.842 78.8133 192.596 80.9361C193.608 82.1612 194.561 83.1221 194.714 83.0714C194.867 83.0207 195.709 82.0277 196.585 80.8649C198.119 78.8295 198.274 78.7165 200.716 77.8521L203.253 76.9542V75.1353C203.253 73.4991 203.361 73.1919 204.327 72.0706C206.165 69.9384 206.769 67.9381 206.747 64.0567C206.732 61.3414 206.596 60.3579 206.041 58.93C204.706 55.4976 200.683 52.2096 196.973 51.5184C195.25 51.1974 196.044 50.8117 198.64 50.709L200.946 50.6177V49.5487V48.4797L199.024 48.3887C197.967 48.3389 197.102 48.2317 197.102 48.151C197.102 47.6037 199.027 44.3689 199.265 44.5155C199.429 44.6157 199.562 44.5674 199.562 44.4077C199.562 44.2482 200.369 42.9 201.355 41.4117C205.534 35.1033 211.013 32.1363 216.208 33.3681C220.072 34.2841 222.32 36.9713 222.32 40.6719C222.32 42.3377 221.31 44.5094 220.141 45.3536C218.352 46.6462 214.68 46.1709 213.58 44.5039C212.901 43.474 212.958 43.3008 214.09 42.9688C214.769 42.7696 215.182 42.4034 215.386 41.8204C215.785 40.6768 215.3 39.9542 214.052 39.8311C213.269 39.7538 212.852 39.9539 211.968 40.832C210.939 41.8543 210.874 42.028 211.027 43.3719C211.166 44.5973 211.398 45.0011 212.568 46.0536C214.1 47.4321 215.678 48.0215 217.835 48.0215C219.696 48.0215 220.728 47.4693 222.238 45.6666C223.753 43.8576 224.278 42.3402 224.28 39.7749C224.281 37.3971 223.69 36.0141 221.918 34.2545C220.455 32.8016 219.161 32.0926 216.645 31.3663C210.655 29.6373 204.183 33.4466 200.612 40.8023C200.052 41.9557 199.393 43.1239 199.147 43.3985C198.901 43.6734 198.013 44.8912 197.175 46.1046C196.337 47.3181 195.582 48.2427 195.498 48.159C195.1 47.7634 196.715 40.3353 198.008 36.6109C198.492 35.2181 198.529 34.9048 198.174 35.1977C197.787 35.5162 197.717 35.4301 197.717 34.6351C197.717 33.1265 198.337 30.6828 198.821 30.2842C199.174 29.9931 199.382 30.0206 199.823 30.417C200.565 31.0841 202.413 31.0643 203.014 30.3828C203.761 29.5371 204.369 28.1523 204.791 26.3359C205.315 24.0796 205.85 23.072 207.361 21.4939L208.635 20.1643L207.559 20.3857C203.962 21.1258 200.276 24.6016 198.115 29.2906L197.321 31.012L196.481 29.1733C195.663 27.3853 194.66 26.1703 195.076 27.4727C195.529 28.8902 196.14 32.7478 196.202 34.5825C196.255 36.1628 196.181 36.54 195.84 36.4313C195.176 36.2196 193.621 36.2737 193.066 36.5275C192.626 36.7294 192.583 36.5116 192.698 34.6766C192.826 32.6308 193.549 28.3551 193.934 27.3563C194.075 26.991 194.019 26.9156 193.734 27.0906C193.515 27.2247 192.958 28.162 192.496 29.1733L191.655 31.012L190.841 29.246C188.683 24.5653 185.028 21.1289 181.418 20.3857L180.341 20.1643L181.612 21.4939ZM279.252 20.566C277.213 21.1744 275.839 22.5155 275.396 24.327L275.179 25.2195L276.41 24.1151C278.042 22.6505 279.252 22.0598 280.619 22.0598C283.007 22.0598 285.093 24.0308 285.876 27.0258C286.632 29.9232 286.249 32.4903 284.519 36.1097C282.478 40.3784 278.258 43.6212 273.434 44.6273C271.109 45.1123 266.972 45.0472 264.21 44.4825C257.716 43.1551 252.366 40.2782 241.817 32.4414C230.285 23.8741 224.604 21.8039 217.526 23.59C213.675 24.5619 210.435 26.262 207.89 28.6468C206.672 29.7872 205.524 31.0035 205.337 31.3495C205.151 31.6953 205.906 31.1556 207.015 30.1498C209.601 27.8053 211.826 26.4867 215.07 25.3765C223.132 22.6163 228.209 24.4113 240.837 34.486C250.175 41.9358 256.654 45.1807 264.607 46.3896C275.53 48.0499 284.698 43.1465 286.738 34.5541C287.284 32.2536 287.351 27.9299 286.875 25.7268C286.498 23.981 285.06 21.9044 283.668 21.0971C282.475 20.405 280.562 20.175 279.252 20.566ZM106.224 20.9487C103.796 22.0696 102.405 24.791 102.158 28.9082C101.725 36.1216 104.782 41.7257 110.745 44.645C114.377 46.4238 116.98 46.9003 121.909 46.688C128.498 46.4043 133.525 44.7528 140.207 40.6765C141.85 39.6744 144.291 37.8861 153.109 31.2228C159.97 26.0378 163.457 24.5033 168.377 24.5033C173.104 24.5033 178.403 26.6883 182.41 30.2894C184.651 32.3028 184.307 31.4286 181.979 29.1913C177.597 24.9807 170.51 22.4505 165.378 23.2647C160.344 24.0635 155.968 26.3847 147.127 32.946C139.202 38.828 133.868 42.0778 129.879 43.4553C127.233 44.3695 122.569 45.2742 120.568 45.262C112.216 45.2106 105.883 40.7978 103.762 33.552C102.399 28.8969 103.751 24.1554 106.869 22.6566C108.814 21.7214 110.659 22.207 113.038 24.28L114.171 25.2669L113.949 24.3869C113.659 23.2382 112.925 22.2892 111.655 21.4221C110.391 20.5595 107.595 20.3161 106.224 20.9487ZM195.663 41.7522C195.549 42.0925 195.229 43.3157 194.951 44.4703L194.446 46.5692L193.946 44.3111C193.671 43.0693 193.369 41.8497 193.273 41.6011C193.136 41.2443 193.391 41.1475 194.485 41.1414C195.74 41.134 195.85 41.1912 195.663 41.7522ZM146.973 44.0311C142.928 45.2577 139.757 48.9675 138.916 53.4573L138.563 55.3424L137.723 53.8962C137.262 53.1009 136.439 52.0034 135.895 51.4576C135.045 50.6046 134.693 50.465 133.39 50.465C130.187 50.465 127.948 52.8324 128.414 55.7254C128.712 57.5794 129.984 58.8506 131.54 58.8506C132.32 58.8506 133.014 58.638 133.417 58.2755C134.159 57.6087 134.265 56.1265 133.617 55.4829C132.941 54.8116 131.401 54.9362 130.859 55.7059C130.47 56.2572 130.315 56.3012 129.918 55.9741C128.413 54.7334 130.854 51.6846 133.349 51.6879C134.58 51.6895 136.023 52.6647 136.609 53.8916C136.886 54.4719 137.711 56.522 138.441 58.4471C140.722 64.4571 143.66 68.0545 148.005 70.1586C154.407 73.2581 163.482 71.636 170.108 66.2082C171.957 64.6935 174.964 61.2422 174.956 60.6438C174.954 60.5051 174.585 60.8549 174.136 61.4211C172.908 62.9685 168.996 65.9409 166.627 67.1254C160.761 70.0594 153.623 70.2949 148.514 67.7234C142.965 64.9309 140.219 59.8304 141.093 53.9371C141.884 48.6012 144.932 45.4141 149.601 45.042C153.407 44.7384 156.812 46.4751 158.445 49.5542C159.242 51.0554 159.32 51.4537 159.199 53.4051C159.051 55.8064 158.326 57.3421 156.904 58.2672C154.851 59.6032 152.273 59.3463 151.269 57.7053L150.675 56.7364L151.665 56.2719C154.322 55.0263 153.466 52.0294 150.51 52.227C150.172 52.2496 149.569 52.643 149.17 53.1015C148.133 54.2933 148.327 56.945 149.569 58.5614C152.534 62.4223 158.463 60.4938 160.415 55.0327C160.713 54.2004 161.059 53.5193 161.185 53.5193C161.31 53.5193 161.866 53.7936 162.42 54.1289C162.974 54.4643 163.73 54.7392 164.101 54.7398C164.878 54.7413 165.733 53.6864 165.733 52.727C165.733 52.1669 165.499 52.0401 164.137 51.8605C162.399 51.6317 162.004 51.3061 158.276 47.0362C155.995 44.4232 154.335 43.7333 150.421 43.7718C148.948 43.7861 147.396 43.9028 146.973 44.0311ZM234.544 44.1648C232.856 44.7873 231.455 45.9522 229.562 48.3092C227.364 51.045 226.624 51.5878 224.74 51.8449L223.173 52.059L223.351 53.1461C223.644 54.9408 224.875 55.2416 226.751 53.9775C228.098 53.0691 228.163 53.0587 228.167 53.7484C228.172 54.6173 229.545 57.2917 230.598 58.4826C231.879 59.9315 233.829 60.6682 235.869 60.4737C238.57 60.2159 240.199 58.5131 240.398 55.7377C240.564 53.4375 239.786 52.2951 238.059 52.3022C236.748 52.3077 236.389 52.497 235.884 53.4487C235.383 54.3935 236.009 55.6586 237.279 56.267C238.083 56.6524 238.197 56.8342 237.984 57.3958C237.597 58.4166 236.284 59.1157 234.795 59.0934C231.79 59.0482 229.93 56.945 229.755 53.3941C229.661 51.4842 229.753 51.031 230.534 49.5542C232.759 45.3463 238.564 43.7082 242.916 46.0607C245.724 47.5784 247.26 50.1082 247.878 54.231C248.732 59.9343 245.83 65.123 240.345 67.6978C237.439 69.0618 235.349 69.5074 231.974 69.4827C226.057 69.439 220.678 67.0707 215.583 62.265L213.921 60.697L215.321 62.5421C219.132 67.5625 224.767 70.7222 231.363 71.5361C237.045 72.2374 241.708 70.7454 245.266 67.0878C247.754 64.5304 249.099 62.3081 250.611 58.2608C252.605 52.9231 253.573 51.6849 255.75 51.6879C256.918 51.6895 258.477 52.684 259.056 53.796C259.643 54.9225 259.645 55.0853 259.086 55.8281C258.648 56.4102 258.632 56.4084 258.147 55.7337C257.808 55.263 257.338 55.0465 256.655 55.0465C255.401 55.0465 254.92 55.5165 254.92 56.7401C254.92 58.0354 255.873 58.8506 257.387 58.8506C258.877 58.8506 260.025 57.8537 260.484 56.1631C260.96 54.4078 260.601 53.0783 259.317 51.8397C256.538 49.1599 253.153 50.0676 251.122 54.0379L250.424 55.4008L250.083 53.5773C249.345 49.6391 247.071 46.4534 243.798 44.7723C242.367 44.0375 241.743 43.9174 238.928 43.8344C236.712 43.7693 235.336 43.8729 234.544 44.1648ZM28.5949 51.5581C23.7733 53.3037 20.6687 57.602 20.0994 63.3194C19.8334 65.9935 20.5635 69.213 22.1234 72.2444C23.6488 75.2083 24.4465 76.3171 26.8588 78.8231L28.7244 80.7611L26.1232 79.4749C22.7181 77.7911 19.7999 75.8635 17.4211 73.7273C15.244 71.7722 12.8846 70.0184 11.4662 69.3019C9.95526 68.538 6.8119 68.1361 5.36892 68.5218C3.65624 68.98 1.58527 70.5349 0.707857 72.0218C-1.39909 75.5929 1.4807 80.6887 5.6128 80.7009C6.56433 80.704 8.27302 78.7626 8.27302 77.679C8.27302 76.4994 7.32272 75.5089 6.19713 75.515C5.06692 75.5214 4.7234 75.7786 4.2258 76.9924L3.8057 78.0162L3.08729 77.4386C2.14468 76.6805 1.8762 74.5486 2.52787 72.9994C3.202 71.3971 5.06876 70.4934 7.24368 70.7163C9.47058 70.9445 12.7007 72.6949 15.5965 75.2428C21.9834 80.8628 27.9814 83.6169 36.1973 84.7027C39.789 85.1776 50.293 84.8951 54.0964 84.2219C64.1043 82.4498 71.3241 77.941 75.6266 70.7762C76.2423 69.7512 75.8852 70.0029 73.4071 72.3412C66.6544 78.7132 59.3719 82.0579 51.3968 82.4504C47.042 82.6648 44.6223 82.1056 42.4173 80.3744C40.8051 79.1087 39.3997 76.6848 39.2739 74.9527C39.1758 73.6036 38.8461 73.4649 38.2873 74.5379C36.9348 77.1356 37.0209 79.4819 38.5509 81.7211C38.9651 82.3273 39.2072 82.8777 39.0888 82.944C38.7416 83.1383 34.9846 82.2919 33.645 81.7174C26.9603 78.8515 22.8547 73.1769 22.4952 66.3071C22.195 60.5751 23.8914 57.1057 28.0158 55.0159C29.7952 54.1143 33.4343 53.8928 35.7037 54.548C38.4715 55.347 40.0483 57.6869 39.5356 60.2333C39.1414 62.1899 38.4669 63.2528 37.2171 63.886C35.7218 64.6437 34.7891 64.6807 33.8394 64.0201L33.1277 63.525L34.0783 62.6627C35.175 61.6679 35.2848 60.7984 34.4215 59.941C32.8971 58.427 30.641 58.9633 30.4777 60.8787C30.3427 62.4596 31.968 64.7531 33.8963 65.7024C35.2205 66.3548 35.5062 66.3936 36.5922 66.0704C39.9373 65.0753 42.4834 60.2477 41.526 56.7166C41.0017 54.7826 39.5199 53.0434 37.603 52.1122C35.4204 51.0514 30.7821 50.7661 28.5949 51.5581ZM87.4724 52.2212C87.116 54.1271 85.2836 57.2022 83.0066 59.7153C80.8809 62.0619 80.4008 63.1401 81.325 63.4926C82.2169 63.8322 84.1067 61.4706 86.6759 56.8061L87.9777 54.4423L89.4702 57.4737C90.9061 60.3897 92.1067 61.7617 92.8328 61.3161C93.3372 61.0067 93.2221 60.6001 92.222 59.1564C90.991 57.3797 89.5932 54.4124 89.1162 52.5642C88.6294 50.6782 87.7935 50.5038 87.4724 52.2212ZM299.86 52.5642C299.38 54.4264 297.983 57.383 296.728 59.1945C296.201 59.9554 295.846 60.7764 295.94 61.0192C296.531 62.5491 298.73 59.7608 300.649 55.0465C300.951 54.3049 300.985 54.3315 301.809 55.9628C303.148 58.6139 306.339 63.2711 306.949 63.4633C307.254 63.5595 307.643 63.5521 307.814 63.4477C308.515 63.017 308.016 61.9731 306.103 59.8671C303.61 57.1225 302.067 54.6509 301.582 52.6223C301.09 50.5636 300.382 50.5398 299.86 52.5642ZM352.557 51.6259C350.443 52.3519 349.174 53.3141 348.238 54.8993C346.457 57.9169 347.161 61.8179 349.977 64.5423C350.963 65.4959 351.825 66.0371 352.584 66.1785C356.103 66.834 360.456 60.9367 357.616 59.3616C356.675 58.839 355.426 59.0754 354.555 59.941C353.691 60.7984 353.801 61.6679 354.898 62.6627L355.848 63.525L355.137 64.0201C354.192 64.6773 353.255 64.6441 351.789 63.9009C350.346 63.1703 349.649 61.9618 349.425 59.8027C349.032 56.0208 352.351 53.7511 357.567 54.2349C361.294 54.5807 363.997 56.4398 365.513 59.7006C366.338 61.4737 366.403 61.8811 366.403 65.2784C366.403 68.5294 366.306 69.2026 365.55 71.2344C364.013 75.3638 360.736 78.9923 356.731 80.9999C354.614 82.061 352.023 82.8408 350.615 82.8408C349.623 82.8408 349.58 82.8026 350.018 82.3063C351.739 80.3564 352.109 77.1509 350.865 74.9536C350.107 73.6128 349.662 73.7038 349.639 75.205C349.606 77.4465 347.391 80.2415 344.652 81.4972C342.821 82.3371 342.508 82.3823 338.57 82.3768C335.223 82.3719 333.912 82.2354 331.804 81.6716C325.822 80.0708 320.413 76.9621 315.525 72.3138C313.08 69.9882 312.738 69.7466 313.348 70.7762C315.394 74.2273 317.903 76.8522 321.43 79.2312C324.754 81.4724 329.542 83.2653 334.765 84.2244C338.39 84.8899 349.198 85.1764 352.785 84.7021C360.065 83.7397 366.117 81.2635 370.767 77.3451C371.864 76.42 373.615 74.997 374.657 74.1824C379.899 70.0862 384.504 69.534 386.311 72.785C387.112 74.227 386.91 76.6176 385.919 77.4145C385.213 77.9817 385.21 77.9804 384.789 76.9856C384.294 75.8155 383.906 75.5214 382.848 75.515C380.241 75.4994 379.904 78.934 382.382 80.2589C385.156 81.743 388.981 78.4594 389 74.5776C389.013 71.9304 386.436 69.1971 383.231 68.4589C381.803 68.1299 378.878 68.6156 377.183 69.4629C375.798 70.1553 373.951 71.5679 371.631 73.7093C369.642 75.5449 366.554 77.5797 363.049 79.3659L360.252 80.7916L362.14 78.8231C365.595 75.2221 368.097 70.5758 368.75 66.5487C369.529 61.7431 367.484 56.318 363.788 53.3877C361.085 51.2435 355.995 50.4454 352.557 51.6259ZM178.376 55.2105C177.539 61.1502 175.303 66.0652 171.19 71.0053C169.785 72.6919 169.988 72.8247 171.974 71.5184C176.565 68.4983 179.353 62.8163 179.382 56.4209C179.4 52.4366 178.858 51.7845 178.376 55.2105ZM197.256 53.2698C199.352 53.7808 202.141 55.5211 203.365 57.0816C204.968 59.1249 205.833 62.1038 205.643 64.925C205.465 67.5734 204.574 69.5884 202.745 71.4842C201.656 72.6137 201.423 73.0712 201.346 74.234L201.254 75.6289L198.905 76.3839C196.703 77.0922 196.502 77.2315 195.688 78.6157C195.211 79.4276 194.745 80.0888 194.654 80.0852C194.563 80.0812 194.006 79.4086 193.416 78.5904C192.445 77.2437 192.125 77.0345 190.033 76.383L187.722 75.6631L187.628 74.1958C187.547 72.9329 187.366 72.5779 186.33 71.6488C185.668 71.0551 184.742 69.7912 184.272 68.8401C183.508 67.2964 183.417 66.7833 183.421 64.0567C183.424 61.4013 183.531 60.7767 184.236 59.2752C185.706 56.146 188.76 53.8815 192.613 53.0642C194.47 52.6702 194.869 52.6876 197.256 53.2698ZM209.827 53.3666C209.391 54.8516 209.566 59.0046 210.163 61.3078C211.319 65.7748 213.869 69.5688 217.076 71.5929C219.005 72.8113 219.174 72.6717 217.787 71.0053C213.592 65.9678 211.751 61.9834 210.626 55.5046C210.162 52.8364 210.062 52.5661 209.827 53.3666ZM108.139 53.9976C102.819 55.2777 98.2722 59.1756 95.3368 64.973C94.6562 66.3169 93.8867 68.2356 93.6266 69.2368C93.1194 71.1895 93.0278 75.5898 93.4417 78.1066C93.6853 79.5879 93.6779 79.6111 93.1926 78.8747C86.8041 69.1809 75.1127 60.1628 65.5061 57.5189C62.0561 56.5694 59.4829 56.4246 56.5505 57.0147C51.9027 57.9499 48.3808 60.3827 46.5238 63.9403C44.7632 67.3135 45.7962 71.8086 48.7612 73.676C51.4494 75.369 54.1071 75.6918 55.5077 74.4955C56.2307 73.8779 56.3107 73.6409 56.1255 72.6607C55.6774 70.289 53.1249 70.0126 52.6949 72.2893C52.5824 72.8849 52.4111 73.3724 52.3139 73.3724C52.217 73.3724 51.5456 73.0877 50.822 72.7398C44.9744 69.9283 49.7287 61.2458 57.8247 59.9511C59.9873 59.605 63.1159 59.9267 66.5806 60.8506C72.7659 62.5002 80.0733 67.2518 85.9236 73.4283C88.2557 75.8904 91.483 79.9074 92.1848 81.2217L92.5437 81.8933L90.7729 81.2785C85.7394 79.5311 82.7806 80.0629 81.2324 82.9935C80.4676 84.4415 80.6072 89.5603 81.4114 89.5603C81.5433 89.5603 81.8257 89.0814 82.0391 88.4958C82.656 86.801 84.7704 84.3743 86.1869 83.7357C88.9108 82.5075 91.9991 83.3405 93.7625 85.7793C95.2033 87.7717 99.1875 90.5936 103.751 92.8534L104.967 93.4561L103.289 93.6683C100.976 93.9609 98.4352 95.1995 98.1947 96.1515C97.8306 97.5913 98.3421 98.9144 99.7672 100.219C100.52 100.908 101.278 101.472 101.451 101.472C101.624 101.472 101.766 100.957 101.766 100.327C101.768 98.7764 102.759 97.2633 104.155 96.6814C105.165 96.2605 105.835 96.2486 109.761 96.5821C123.124 97.7174 133.267 93.4035 140.274 83.6043C141.449 81.9602 143.092 78.8842 142.898 78.6915C142.832 78.6264 142.205 79.4303 141.503 80.478C136.795 87.5032 129.665 92.7166 122.37 94.4661C117.539 95.6246 110.813 94.1118 105.863 90.7524C100.904 87.3874 96.8932 81.7605 95.9082 76.7877C94.9019 71.7075 97.0907 65.0399 101.121 60.9089C104.231 57.7217 107.649 56.2682 112.035 56.2682C116.214 56.2682 119.145 57.27 121.821 59.6127C127.125 64.2571 126.188 72.9872 120.077 75.8586C116.899 77.3516 113.053 76.9896 111.324 75.0342C110.145 73.7004 110.125 73.0208 111.252 72.5257C112.643 71.9139 113.292 69.8639 112.442 68.7643C111.503 67.549 109.746 67.2451 108.213 68.0328C107.079 68.615 106.88 69.3953 107.262 71.7554C107.625 73.9909 108.133 75.0284 109.504 76.3348C111.311 78.0562 113.222 78.7174 116.389 78.7174C118.946 78.7174 119.341 78.6328 121.231 77.6802C123.733 76.4188 126.087 74.0394 127.23 71.6171C127.938 70.1165 128.06 69.4586 128.059 67.111C128.059 64.5888 127.972 64.1896 127.002 62.2687C124.821 57.9496 120.536 54.8757 115.439 53.9741C112.41 53.4381 110.438 53.4445 108.139 53.9976ZM273.972 53.8434C270.136 54.4041 266.07 56.6109 263.911 59.3039C261.824 61.9077 260.986 63.9678 260.824 66.8969C260.69 69.3272 260.73 69.5239 261.803 71.6794C263.12 74.3275 265.553 76.7214 268.144 77.9206C270.504 79.0128 274.629 79.0568 276.909 78.0137C279.738 76.7193 281.22 74.799 281.707 71.7985C282.096 69.3951 281.902 68.6174 280.764 68.0328C278.599 66.9207 276.14 67.9949 276.14 70.0526C276.14 71.0737 277.035 72.4378 277.837 72.6375C278.865 72.8938 278.814 73.72 277.692 74.989C275.522 77.4435 270.033 77.3277 267.017 74.7636C263.72 71.9613 262.73 66.651 264.765 62.6823C266.293 59.7016 269.601 57.3195 273.26 56.5651C275.826 56.0361 280.238 56.3186 282.364 57.1481C289.581 59.9639 294.622 69.3969 293.027 77.099C291.864 82.7131 286.576 89.0884 280.428 92.2902C272.789 96.2682 265.223 95.5996 257.13 90.2316C253.663 87.9323 248.914 83.0787 247.066 79.9477C246.033 78.1964 245.716 78.3366 246.635 80.1386C251.494 89.6684 260.014 95.3467 271.339 96.6035C273.71 96.8668 275.581 96.8589 279.221 96.5699C283.567 96.2254 284.084 96.2376 285.001 96.7086C286.294 97.3723 287.209 98.8711 287.21 100.327C287.211 100.957 287.345 101.472 287.508 101.472C288.002 101.472 289.98 99.6068 290.456 98.693C291.847 96.022 290.195 94.325 285.558 93.6641L284.06 93.4502L286.481 92.1864C290.795 89.9347 293.816 87.7112 295.243 85.7384C297.103 83.1664 300.462 82.3875 303.092 83.9183C304.561 84.7732 306.368 86.932 306.948 88.5255C307.155 89.0945 307.425 89.5603 307.549 89.5603C307.965 89.5603 308.483 86.1849 308.266 84.8887C307.524 80.4501 303.936 79.1505 298.301 81.2782C297.381 81.6258 296.57 81.8524 296.499 81.7821C296.145 81.4306 300.71 75.8262 304.116 72.4323C311.64 64.9327 319.2 60.8252 327.096 59.9459C330.05 59.6166 332.228 59.9496 334.729 61.1117C337.189 62.255 338.946 63.8423 339.937 65.8163C341.433 68.7985 340.738 71.4976 338.154 72.7398C337.43 73.0877 336.75 73.3724 336.642 73.3724C336.534 73.3724 336.352 72.8803 336.239 72.2792C335.967 70.8428 334.937 70.3156 333.821 71.0422C332.951 71.6085 332.567 72.6977 332.847 73.8067C333.25 75.4023 336.604 75.5904 339.414 74.1751C341.21 73.2704 341.739 72.7056 342.609 70.7649C345.915 63.3829 337.021 55.4875 326.919 56.8378C316.534 58.226 303.188 67.6715 295.782 78.8747C295.302 79.6004 295.293 79.5531 295.578 77.8011C295.741 76.7932 295.816 74.5254 295.744 72.7615C295.634 70.0539 295.463 69.1825 294.642 67.1648C291.822 60.2309 286.456 55.2157 280.524 53.9674C278.259 53.4903 276.6 53.4591 273.972 53.8434ZM186.543 58.7495C184.262 60.6169 183.36 63.7229 184.413 66.0869C185.088 67.6022 186.693 69.553 187.687 70.0658C188.333 70.399 188.333 70.3966 187.668 69.6724C186.765 68.6886 185.535 66.1468 185.286 64.7485C185.012 63.214 185.513 61.5259 186.814 59.6072C187.407 58.7315 187.846 57.9694 187.79 57.9139C187.734 57.858 187.173 58.234 186.543 58.7495ZM158.969 61.3411L157.279 62.1026L159.277 63.8881C160.375 64.8698 161.313 65.637 161.361 65.5927C161.531 65.436 161.029 60.5445 160.845 60.562C160.743 60.5714 159.899 60.9221 158.969 61.3411ZM227.856 61.2629C227.856 61.6585 227.764 62.8527 227.653 63.9174L227.449 65.853L228.652 64.7626C229.314 64.1627 230.27 63.3212 230.778 62.8927L231.7 62.1129L229.923 61.3286C228.946 60.8973 228.081 60.5442 228.001 60.5442C227.921 60.5442 227.856 60.8677 227.856 61.2629ZM188.238 62.0399C187.377 63.5616 187.364 65.3957 188.206 66.4589C189.041 67.5139 189.497 67.4919 188.936 66.4238C188.421 65.4431 188.354 63.0809 188.807 61.8961C189.289 60.6389 188.988 60.7147 188.238 62.0399ZM143.389 72.3147C143.146 72.9463 143.993 73.8397 146.175 75.2517C148 76.4322 148.926 76.6906 149.282 76.1185C149.687 75.4673 149.046 74.6949 146.941 73.296C144.669 71.7863 143.698 71.5178 143.389 72.3147ZM241.878 73.4121C239.53 74.9875 238.95 75.9148 240.052 76.3345C241.206 76.7746 245.987 73.351 245.603 72.3583C245.273 71.5022 244.325 71.7704 241.878 73.4121ZM167.886 74.4148C170.989 77.6897 176.414 81.3503 181.031 83.284C190.561 87.2759 199.742 87.0719 209.384 82.6538C212.72 81.1258 217.321 77.9749 220.072 75.3354L222.474 73.03L220.475 74.5376C212.038 80.9007 203.334 84.0671 194.295 84.0607C185.447 84.0546 175.895 80.4608 168.04 74.1833L166.502 72.9545L167.886 74.4148ZM159.352 76.3583C158.397 77.0886 158.021 78.5369 158.495 79.6582C158.991 80.8283 159.605 81.3063 160.879 81.5115C163.005 81.8542 164.764 79.3207 163.75 77.3745C163.484 76.8632 163 76.3033 162.675 76.1304C161.777 75.653 160.126 75.7661 159.352 76.3583ZM225.804 76.547C224.107 77.9966 224.993 80.9761 227.269 81.4724C229.238 81.9019 231.161 79.8121 230.596 77.8564C230.009 75.8259 227.463 75.1298 225.804 76.547ZM150.664 85.5151C150.664 90.3086 149.645 93.6509 147.5 95.8922C146.24 97.2092 144.844 97.6576 143.437 97.1964C141.994 96.723 141.438 95.8418 141.438 94.0266C141.438 92.6176 141.473 92.5501 141.976 92.9863C143.03 93.8992 143.862 94.1821 144.5 93.8433C145.357 93.3876 145.635 91.5718 145.039 90.329C144.403 89.0059 143.344 88.7585 141.598 89.5258C138.474 90.8984 138.003 95.8623 140.778 98.1808C142.074 99.2638 144.73 99.813 146.285 99.3197C149.33 98.3533 151.177 94.7102 151.82 88.3981L152.048 86.1672L153.056 87.4818C155.934 91.2343 161.128 95.4911 165.533 97.708C170.067 99.9899 176.148 101.757 182.125 102.53C186.973 103.157 190.21 103.157 190.452 102.53C190.696 101.898 190.466 101.853 186.031 101.665C181.548 101.476 178.383 100.923 174.334 99.6218C166.178 97.0009 158.354 91.6888 153.088 85.1978L150.664 82.2094V85.5151ZM236.775 84.0964C234.88 86.618 230.658 90.7325 227.756 92.8849C220.034 98.6127 210.522 101.778 201.031 101.778C198.537 101.778 198.332 101.824 198.332 102.388C198.332 102.948 198.537 102.999 200.777 102.999C204.046 102.999 209.786 102.234 213.522 101.3C223.062 98.916 230.349 94.3833 236.078 87.2695L237.062 86.0478L237.083 87.4222C237.143 91.3834 238.788 96.3968 240.615 98.1881C243.072 100.598 248.244 99.5549 249.579 96.3803C250.161 94.9976 250.092 93.0013 249.412 91.5132C248.979 90.5667 248.491 90.092 247.422 89.578C245.019 88.4225 243.351 89.5612 243.662 92.1458C243.904 94.1634 245.255 94.5837 246.847 93.1372L247.539 92.508V93.7633C247.539 95.6704 247.073 96.5544 245.787 97.0879C241.624 98.8158 237.582 91.7994 238.241 83.9861C238.322 83.0201 238.337 82.2354 238.274 82.2421C238.21 82.2488 237.536 83.0833 236.775 84.0964ZM214.171 84.9507C212.199 85.7891 211.66 88.4344 213.195 89.7454C214.379 90.757 216.231 90.7484 217.26 89.7267C219.361 87.64 216.877 83.7995 214.171 84.9507ZM173.539 86.4653C172.239 87.2701 171.76 88.6745 172.326 90.02C172.823 91.2004 173.604 91.6983 174.959 91.6983C176.257 91.6983 177.011 91.2521 177.59 90.1397C178.897 87.6281 175.962 84.9654 173.539 86.4653ZM192.465 90.1476C191.8 90.8086 191.566 91.3302 191.566 92.1564C191.566 93.5324 192.937 95.058 194.172 95.058C195.396 95.058 196.664 94.2765 197.088 93.26C198.318 90.3104 194.733 87.8963 192.465 90.1476Z" fill="black"/>
</svg>
