<svg width="179" height="78" viewBox="0 0 179 78" fill="none" xmlns="http://www.w3.org/2000/svg">
<path d="M10.896 77.352C7.632 77.096 5.52 76.264 4.56 74.856C3.664 73.512 3.216 71.784 3.216 69.672C3.216 67.304 3.632 64.456 4.464 61.128C5.36 57.8 6.48 54.216 7.824 50.376C9.232 46.536 10.736 42.696 12.336 38.856C11.568 38.92 10.544 39.016 9.264 39.144C7.984 39.272 6.608 39.432 5.136 39.624C3.664 39.752 2.256 39.944 0.912 40.2C1.104 38.28 1.808 36.808 3.024 35.784C4.304 34.696 5.936 33.928 7.92 33.48C9.968 32.968 12.176 32.68 14.544 32.616C16.272 27.88 18.032 23.272 19.824 18.792C21.616 14.312 23.408 10.216 25.2 6.504C24.752 6.44 24.24 6.408 23.664 6.408C23.152 6.344 22.48 6.31199 21.648 6.31199C17.68 6.31199 14.608 6.72799 12.432 7.56C10.256 8.392 8.752 9.608 7.92 11.208C7.152 12.808 6.768 14.792 6.768 17.16C6.768 18.696 6.896 20.104 7.152 21.384C7.408 22.664 7.824 24.008 8.4 25.416C5.712 24.968 3.76 24.04 2.544 22.632C1.392 21.224 0.816 19.464 0.816 17.352C0.816 14.024 2.032 11.112 4.464 8.616C6.896 6.056 10.16 4.04 14.256 2.568C18.416 1.096 23.056 0.359997 28.176 0.359997C31.568 0.359997 34.896 0.583998 38.16 1.032C41.488 1.48 44.624 1.704 47.568 1.704C49.104 1.704 50.544 1.608 51.888 1.41599C53.232 1.224 54.736 0.903997 56.4 0.455996C53.584 3.592 51.248 5.704 49.392 6.792C47.6 7.88 45.808 8.424 44.016 8.424C42.48 8.424 40.496 8.232 38.064 7.848C35.696 7.4 33.072 7.048 30.192 6.792C29.36 8.904 28.464 11.368 27.504 14.184C26.544 16.936 25.552 19.912 24.528 23.112C23.504 26.248 22.448 29.448 21.36 32.712C24.688 32.968 27.696 33.256 30.384 33.576C33.136 33.896 35.984 34.12 38.928 34.248C38.288 35.208 37.584 35.976 36.816 36.552C36.048 37.064 35.024 37.448 33.744 37.704C32.464 37.896 30.704 38.056 28.464 38.184C26.224 38.312 23.312 38.408 19.728 38.472C19.216 40.2 18.672 42.024 18.096 43.944C17.52 45.864 17.008 47.592 16.56 49.128C16.176 50.6 15.888 51.56 15.696 52.008C14.032 57.768 12.816 62.664 12.048 66.696C11.28 70.664 10.896 74.216 10.896 77.352ZM42.3068 73.512C40.2588 73.512 38.4988 72.808 37.0267 71.4C35.4907 70.056 34.7227 68.008 34.7227 65.256C34.7227 62.952 35.2347 60.488 36.2587 57.864C37.2827 55.24 38.6908 52.648 40.4828 50.088C42.2748 47.528 44.3228 45.192 46.6268 43.08C48.9308 40.968 51.3628 39.272 53.9228 37.992C56.5468 36.712 59.1388 36.072 61.6988 36.072C64.3868 36.072 66.6268 36.776 68.4188 38.184C70.2748 39.528 71.2028 41.32 71.2028 43.56C71.2028 45.288 70.6588 46.504 69.5708 47.208C68.4828 47.912 67.1388 48.136 65.5388 47.88C65.6668 47.368 65.7628 46.824 65.8268 46.248C65.9548 45.608 66.0188 45 66.0188 44.424C66.0188 43.08 65.7308 41.896 65.1548 40.872C64.5788 39.848 63.4588 39.336 61.7948 39.336C60.0028 39.336 58.1788 39.944 56.3228 41.16C54.4668 42.376 52.6748 43.976 50.9468 45.96C49.2188 47.944 47.6828 50.12 46.3388 52.488C44.9948 54.856 43.9388 57.192 43.1708 59.496C42.4028 61.8 42.0188 63.848 42.0188 65.64C42.0188 67.816 42.8188 68.904 44.4188 68.904C45.8908 68.904 47.4908 68.2 49.2188 66.792C51.0108 65.384 52.8028 63.592 54.5948 61.416C56.4508 59.24 58.2108 57.032 59.8748 54.792C61.5388 52.488 62.9788 50.472 64.1948 48.744C64.4508 48.424 64.6748 48.264 64.8668 48.264C65.1868 48.328 65.6988 48.488 66.4028 48.744C67.1068 48.936 67.7468 49.224 68.3228 49.608C68.8988 49.992 69.1868 50.504 69.1868 51.144C69.1868 51.784 68.8988 52.616 68.3228 53.64C67.7468 54.6 67.1068 55.688 66.4028 56.904C65.6988 58.12 65.0588 59.336 64.4828 60.552C63.9068 61.768 63.6188 62.952 63.6188 64.104C63.6188 64.936 63.8428 65.768 64.2908 66.6C64.8028 67.368 65.6028 67.752 66.6908 67.752C68.2908 67.752 70.4668 66.6 73.2188 64.296C76.0348 61.928 78.8828 58.088 81.7628 52.776L83.2988 54.312C81.8268 57.768 80.0028 60.808 77.8268 63.432C75.7148 66.056 73.4748 68.104 71.1068 69.576C68.7388 71.112 66.3708 71.88 64.0028 71.88C61.4428 71.88 59.5548 71.08 58.3388 69.48C57.1228 67.944 56.4508 66.248 56.3228 64.392C56.3228 64.2 56.3228 64.008 56.3228 63.816C56.3868 63.56 56.4188 63.336 56.4188 63.144C53.7948 66.408 51.3948 68.936 49.2188 70.728C47.0428 72.584 44.7388 73.512 42.3068 73.512ZM129.226 71.976C126.794 71.976 125.002 71.24 123.85 69.768C122.698 68.36 122.122 66.664 122.122 64.68C122.122 63.144 122.346 61.64 122.794 60.168C123.242 58.632 123.69 57.128 124.138 55.656C124.65 54.184 124.906 52.84 124.906 51.624C124.906 50.472 124.65 49.672 124.138 49.224C123.69 48.776 123.146 48.552 122.506 48.552C120.97 48.552 119.242 49.736 117.322 52.104C115.402 54.408 112.97 57.736 110.026 62.088C109.002 63.624 108.074 65.224 107.242 66.888C106.41 68.552 105.642 69.992 104.938 71.208C104.426 71.208 103.722 71.112 102.826 70.92C101.93 70.728 101.13 70.472 100.426 70.152C99.7858 69.832 99.4658 69.416 99.4658 68.904C99.4658 68.328 99.7858 67.208 100.426 65.544C101.066 63.88 101.802 61.928 102.634 59.688C103.466 57.448 104.17 55.24 104.746 53.064C105.386 50.824 105.706 48.936 105.706 47.4C105.706 46.44 105.546 45.704 105.226 45.192C104.906 44.616 104.362 44.328 103.594 44.328C102.25 44.328 100.618 45.16 98.6978 46.824C96.7778 48.424 94.7618 50.536 92.6498 53.16C90.5378 55.784 88.5538 58.728 86.6978 61.992C84.9058 65.192 83.4338 68.392 82.2818 71.592C81.5778 71.592 80.7458 71.464 79.7858 71.208C78.8257 70.952 77.9937 70.632 77.2897 70.248C76.5857 69.864 76.2337 69.512 76.2337 69.192C76.2337 69 76.4897 68.008 77.0017 66.216C77.5137 64.424 78.1537 62.216 78.9217 59.592C79.6258 56.968 80.2978 54.28 80.9378 51.528C81.6418 48.776 82.1858 46.344 82.5698 44.232C82.8258 43.656 83.4978 43.112 84.5858 42.6C85.6738 42.088 86.6658 41.832 87.5618 41.832C88.4578 41.832 89.1618 42.088 89.6738 42.6C90.2498 43.112 90.5378 43.816 90.5378 44.712C90.5378 45.416 90.3778 46.536 90.0578 48.072C89.7378 49.544 89.3218 51.208 88.8098 53.064C90.1538 51.144 91.5938 49.256 93.1298 47.4C94.6658 45.48 96.2658 43.752 97.9298 42.216C99.6578 40.68 101.354 39.464 103.018 38.568C104.746 37.608 106.442 37.128 108.106 37.128C110.346 37.128 111.85 37.928 112.618 39.528C113.45 41.128 113.866 42.92 113.866 44.904C113.866 45.992 113.738 47.112 113.482 48.264C113.29 49.416 113.034 50.504 112.714 51.528C112.458 52.552 112.138 53.576 111.754 54.6C112.97 52.616 114.346 50.728 115.882 48.936C117.418 47.144 119.05 45.736 120.778 44.712C122.506 43.624 124.362 43.08 126.346 43.08C128.714 43.08 130.346 43.784 131.242 45.192C132.138 46.6 132.586 48.168 132.586 49.896C132.586 51.56 132.298 53.352 131.722 55.272C131.21 57.128 130.666 58.92 130.09 60.648C129.514 62.312 129.226 63.752 129.226 64.968C129.226 65.672 129.386 66.312 129.706 66.888C130.09 67.464 130.794 67.752 131.818 67.752C133.546 67.752 135.21 66.952 136.81 65.352C138.41 63.752 139.882 61.8 141.226 59.496C142.57 57.128 143.722 54.888 144.682 52.776L146.122 54.504C145.098 57.192 143.786 59.88 142.186 62.568C140.586 65.256 138.698 67.496 136.522 69.288C134.346 71.08 131.914 71.976 129.226 71.976ZM153.348 73.224C149.316 73.224 146.244 72.136 144.132 69.96C142.02 67.784 140.964 65.064 140.964 61.8C140.964 58.92 141.668 55.912 143.076 52.776C144.548 49.576 146.5 46.6 148.932 43.848C151.364 41.032 154.02 38.76 156.9 37.032C159.844 35.24 162.756 34.344 165.636 34.344C167.236 34.344 168.74 34.76 170.148 35.592C171.62 36.424 172.356 38.088 172.356 40.584C172.356 43.016 171.62 45.32 170.148 47.496C168.74 49.608 166.852 51.496 164.484 53.16C162.18 54.824 159.588 56.2 156.708 57.288C153.892 58.312 151.076 58.952 148.26 59.208C148.196 59.592 148.132 59.976 148.068 60.36C148.004 60.744 147.972 61.256 147.972 61.896C147.972 62.408 148.036 63.112 148.164 64.008C148.356 64.84 148.676 65.704 149.124 66.6C149.636 67.432 150.404 68.136 151.428 68.712C152.452 69.288 153.796 69.576 155.46 69.576C158.148 69.576 160.836 68.808 163.524 67.272C166.276 65.736 168.836 63.72 171.204 61.224C173.572 58.664 175.556 55.848 177.156 52.776L178.788 54.12C177.06 57.96 174.852 61.32 172.164 64.2C169.476 67.016 166.5 69.224 163.236 70.824C160.036 72.424 156.74 73.224 153.348 73.224ZM149.124 56.232C150.788 55.912 152.676 55.272 154.788 54.312C156.9 53.288 158.916 52.04 160.836 50.568C162.756 49.032 164.324 47.368 165.54 45.576C166.82 43.784 167.46 41.96 167.46 40.104C167.46 39.4 167.332 38.888 167.076 38.568C166.82 38.248 166.372 38.088 165.732 38.088C164.196 38.088 162.596 38.664 160.932 39.816C159.332 40.904 157.732 42.344 156.132 44.136C154.596 45.864 153.22 47.816 152.004 49.992C150.788 52.104 149.828 54.184 149.124 56.232Z" fill="white"/>
</svg>
