<svg width="157" height="50" viewBox="0 0 157 50" fill="none" xmlns="http://www.w3.org/2000/svg">
<g clip-path="url(#clip0_25_5)">
<path d="M28.3815 24.6156C28.3815 30.2568 23.356 34.8309 17.148 34.8309C15.174 34.8309 13.3335 34.3674 11.7124 33.5628L5.49487 35.3732L7.52606 29.8895C6.46545 28.2992 5.90444 26.4711 5.90492 24.6069C5.91446 18.957 10.9495 14.3828 17.1575 14.3828C23.3464 14.3828 28.3815 18.957 28.3815 24.6156ZM17.148 16.0008C11.9413 16.0008 7.70724 19.8578 7.70724 24.5981C7.70724 26.4785 8.37477 28.219 9.50003 29.6358L8.31755 32.8369L11.9413 31.7873C13.488 32.7172 15.2985 33.2098 17.148 33.2042C22.3547 33.2042 26.5887 29.356 26.5887 24.6069C26.5761 22.3197 25.5753 20.1304 23.8056 18.5188C22.0359 16.9072 19.6418 16.0049 17.148 16.0096M22.8219 26.9595C22.7456 26.8546 22.5645 26.7934 22.2879 26.6709C22.0209 26.5485 20.6668 25.9363 20.4093 25.8576C20.1614 25.7701 19.9706 25.7264 19.7895 25.98C19.5987 26.2336 19.0743 26.7934 18.9217 26.9595C18.7596 27.1345 18.5974 27.152 18.3209 27.0295C18.0444 26.8983 17.1575 26.6359 16.1085 25.7788C15.5095 25.2739 14.9953 24.6903 14.5828 24.0471C14.4111 23.7935 14.5542 23.6623 14.6972 23.5399C14.8212 23.4262 14.9737 23.2425 15.1072 23.1026C15.2503 22.9539 15.298 22.8402 15.3838 22.6828C15.4792 22.5078 15.4315 22.3679 15.3647 22.2455C15.2884 22.1143 14.7449 20.8811 14.5065 20.3826C14.2776 19.8753 14.0487 19.9628 13.8962 19.9628C13.734 19.9628 13.5433 19.9365 13.3621 19.9365C13.1714 19.9365 12.8853 20.0065 12.6279 20.2514C12.3799 20.505 11.6743 21.1085 11.6743 22.3504C11.6743 23.5749 12.6565 24.7643 12.79 24.9392C12.9235 25.1054 14.6972 27.7117 17.4913 28.7175C20.2949 29.7233 20.2949 29.3909 20.8003 29.3472C21.3057 29.3035 22.4214 28.735 22.6598 28.1578C22.8887 27.5718 22.8887 27.0645 22.8219 26.9595Z" fill="#EFDEE0"/>
</g>
<path d="M83.3622 15.0359C83.0664 15.0482 82.7878 15.125 82.5402 15.211H82.5368C82.2857 15.3001 81.0923 15.7488 79.2798 16.4279C77.4673 17.11 75.1149 17.995 72.7796 18.8738C68.116 20.6284 63.5314 22.3553 63.5314 22.3553L63.5865 22.3368C63.5865 22.3368 63.27 22.429 62.9399 22.6318C62.7713 22.7301 62.5856 22.8653 62.424 23.0774C62.2623 23.2894 62.1316 23.6151 62.1798 23.95C62.2589 24.5185 62.6716 24.8596 62.9674 25.047C63.2666 25.2375 63.5521 25.3266 63.5521 25.3266H63.5589L67.858 26.6203C68.0506 27.1734 69.1684 30.4551 69.4366 31.211C69.5948 31.6627 69.7496 31.9454 69.9422 32.1605C70.0351 32.2711 70.1451 32.3633 70.2758 32.437C70.3274 32.4647 70.3824 32.4862 70.4375 32.5046C70.4547 32.5139 70.4718 32.5169 70.4925 32.52L70.4478 32.5108C70.4615 32.5139 70.4719 32.5231 70.4822 32.5262C70.5166 32.5354 70.5406 32.5385 70.5853 32.5446C71.2663 32.729 71.8132 32.351 71.8132 32.351L71.8441 32.3295L74.3823 30.2646L78.6367 33.1807L78.733 33.2175C79.6203 33.5648 80.5179 33.3712 80.9925 33.0301C81.4706 32.6859 81.6563 32.2465 81.6563 32.2465L81.6873 32.1759L84.9752 17.1285C85.0681 16.7566 85.0921 16.4094 84.989 16.0714C84.8858 15.7334 84.621 15.4169 84.3011 15.2479C83.9778 15.0758 83.658 15.0236 83.3622 15.0359ZM83.2728 16.6491C83.2693 16.6983 83.2797 16.6921 83.2556 16.7874V16.7966L79.9986 31.6873C79.9848 31.7088 79.9608 31.7549 79.8954 31.801C79.8266 31.8501 79.7716 31.8809 79.4861 31.7795L74.2825 28.215L71.1391 30.7747L71.7994 27.0074C71.7994 27.0074 79.9504 20.2197 80.3013 19.9278C80.6521 19.6358 80.5351 19.5744 80.5351 19.5744C80.5592 19.2179 80.0055 19.4699 80.0055 19.4699L69.2853 25.4035L69.2819 25.3881L64.1436 23.8425V23.8394C64.1402 23.8394 64.1333 23.8363 64.1299 23.8363C64.1333 23.8363 64.1574 23.8271 64.1574 23.8271L64.1849 23.8148L64.2124 23.8056C64.2124 23.8056 68.8004 22.0787 73.464 20.3241C75.7993 19.4453 78.1517 18.5604 79.9608 17.8782C81.7698 17.1991 83.1077 16.7013 83.1834 16.6737C83.2556 16.6491 83.2212 16.6491 83.2728 16.6491Z" fill="#EFDEE0"/>
<g clip-path="url(#clip1_25_5)">
<mask id="path-3-inside-1_25_5" fill="white">
<path d="M135.666 16.1661C134.087 16.1524 132.895 16.2208 131.897 16.6922C131.487 16.8836 131.196 17.1295 130.973 17.4165C130.854 17.56 130.742 17.6898 130.69 17.9905C130.66 18.134 130.638 18.3731 130.801 18.6328C130.965 18.8992 131.316 19.0769 131.554 19.111C131.733 19.1315 132.113 19.275 132.18 19.357C132.336 19.562 132.396 19.7123 132.418 19.7943C132.441 19.8763 132.433 19.8217 132.433 19.8217V19.9037C132.433 19.9037 132.493 20.7646 132.455 21.6529C132.433 22.0902 132.388 22.548 132.314 22.8554C132.239 23.1629 132.053 23.2381 132.321 23.0946C132.135 23.1971 132.202 23.2381 131.971 23.1287C131.733 23.0262 131.114 22.548 130.302 21.2087C129.49 19.8627 128.902 19.1657 128.768 19.0154C128.715 18.8787 128.589 18.5986 128.157 18.2911C127.598 17.8948 127.024 17.888 127.024 17.888L126.972 17.8811H122.808C122.808 17.8811 122.569 17.888 122.294 17.9426C122.018 17.9973 121.623 18.0588 121.251 18.4824H121.243C120.863 18.9266 120.93 19.3297 120.96 19.5757C120.997 19.8285 121.079 20.0266 121.079 20.0266L121.094 20.0676L121.116 20.1086C121.116 20.1086 124.298 26.3333 128.097 30.1255C131.666 33.6923 135.8 33.6239 135.8 33.6239H138.147L138.199 33.6171C138.199 33.6171 138.952 33.6513 139.585 33.0021C139.905 32.6673 139.98 32.353 140.017 32.1207C140.062 31.8816 140.062 31.6902 140.062 31.6902V31.7449C140.062 31.7449 140.092 31.2939 140.226 30.8225C140.293 30.5902 140.39 30.3579 140.479 30.228C140.524 30.1529 140.524 30.1734 140.539 30.1529C140.703 30.2622 140.971 30.515 141.254 30.8361C141.835 31.4716 142.491 32.353 143.407 32.9612C144.07 33.3916 144.696 33.5829 145.173 33.6513C145.493 33.6991 145.724 33.6923 145.88 33.6786L149.121 33.6239H149.151C149.151 33.6239 149.822 33.6103 150.492 33.2208C150.82 33.0295 151.2 32.681 151.326 32.1822C151.461 31.6834 151.312 31.1436 150.999 30.6448C151.103 30.8156 150.976 30.5902 150.879 30.4125C150.783 30.2349 150.634 29.9957 150.41 29.6951C149.978 29.1074 149.263 28.2807 148.078 27.2284C147.519 26.7365 147.162 26.4632 146.938 26.2718C147.005 26.183 147.013 26.1762 147.266 25.9029C147.668 25.4724 148.257 24.8369 149.002 23.8872C149.896 22.7393 150.544 21.8032 150.961 21.0242C151.379 20.2521 151.714 19.6098 151.341 18.8172C151.14 18.3868 150.783 18.2228 150.522 18.1203C150.254 18.0178 150.015 17.9768 149.792 17.9426C149.352 17.8811 148.965 17.8811 148.965 17.8811L145.188 17.9085C145.076 17.888 144.644 17.8128 144.085 18.1408C143.534 18.4551 143.407 18.7899 143.377 18.8924C143.288 19.0086 142.662 19.8217 141.79 21.2429C140.911 22.6778 140.315 23.0672 140.241 23.1014C140.218 23.0809 140.263 23.0877 140.159 23.0331C140.114 22.9989 140.069 22.9716 140.032 22.6026C140.002 22.2336 140.04 21.6529 140.04 20.9696C140.04 19.5005 140.181 18.7352 140.099 18.0041C140.062 17.6352 139.898 17.1842 139.54 16.8836C139.183 16.5897 138.795 16.4804 138.393 16.3848C137.76 16.2413 136.903 16.1798 135.666 16.1661ZM135.651 17.9153C136.806 17.929 137.618 18.011 137.916 18.0793C138.17 18.1408 138.207 18.1681 138.199 18.1545C138.199 18.1681 138.199 18.1613 138.199 18.1818C138.229 18.4756 138.132 19.4185 138.132 20.9696C138.132 21.5777 138.08 22.1653 138.132 22.7529C138.185 23.3406 138.415 24.058 139.093 24.4816H139.101C139.019 24.4338 139.958 25.0761 140.852 24.7823C141.746 24.4816 142.453 23.73 143.459 22.097C144.338 20.6484 144.986 19.8353 144.986 19.8353L145.046 19.7533L145.091 19.6713C145.091 19.6713 145.076 19.6645 145.091 19.6577L148.965 19.6303C148.965 19.6303 149.233 19.6303 149.494 19.6713C149.501 19.6713 149.509 19.6713 149.516 19.6713C149.479 19.685 149.509 19.7738 149.248 20.259C148.913 20.8807 148.309 21.769 147.452 22.8691C146.745 23.7642 146.216 24.345 145.821 24.7686C145.426 25.1854 145.128 25.3836 144.934 25.9302C144.837 26.1967 144.86 26.593 145.001 26.8595C145.135 27.1191 145.299 27.2626 145.463 27.4061C145.791 27.6931 146.178 27.9732 146.745 28.4857C147.855 29.4696 148.48 30.1939 148.831 30.6722C149.009 30.9181 149.114 31.089 149.181 31.212C149.248 31.3349 149.203 31.2871 149.352 31.5194C149.479 31.7312 149.456 31.7586 149.456 31.7449C149.33 31.8132 149.009 31.8747 149.002 31.8747L145.761 31.9294L145.672 31.9499C145.672 31.9499 145.679 31.9567 145.478 31.9294C145.27 31.8952 144.942 31.8132 144.525 31.5399C144.01 31.2051 143.362 30.4262 142.722 29.7156C142.409 29.3671 142.088 29.0255 141.686 28.7521C141.284 28.4788 140.65 28.226 140.002 28.4242C139.444 28.5882 139.079 28.964 138.848 29.3124C138.617 29.6677 138.483 30.0367 138.378 30.3715C138.185 31.048 138.155 31.6561 138.155 31.6561V31.7107C138.155 31.7107 138.155 31.7517 138.14 31.8132C138.103 31.8269 138.05 31.8611 138.021 31.8747H135.741C135.741 31.8747 132.59 32.0251 129.498 28.9503C126.19 25.6364 123.247 20.095 123.001 19.6303H126.838C126.875 19.644 127.009 19.6918 126.995 19.685C126.905 19.6167 127.039 19.767 127.039 19.767L127.099 19.8968L127.203 20.0061C127.203 20.0061 127.792 20.6621 128.634 22.056C129.535 23.5524 130.295 24.3313 131.144 24.7071C131.994 25.0829 132.888 24.8164 133.267 24.6183C133.975 24.2425 134.057 23.7164 134.176 23.2312C134.296 22.7461 134.333 22.2268 134.355 21.7212C134.4 20.7509 134.34 19.9242 134.34 19.8627C134.333 19.8422 134.333 19.603 134.258 19.3434C134.176 19.0769 134.027 18.7284 133.744 18.3594C133.625 18.2091 133.513 18.2843 133.387 18.175C133.916 18.0383 134.482 17.9016 135.651 17.9153Z"/>
</mask>
<path d="M135.666 16.1661C134.087 16.1524 132.895 16.2208 131.897 16.6922C131.487 16.8836 131.196 17.1295 130.973 17.4165C130.854 17.56 130.742 17.6898 130.69 17.9905C130.66 18.134 130.638 18.3731 130.801 18.6328C130.965 18.8992 131.316 19.0769 131.554 19.111C131.733 19.1315 132.113 19.275 132.18 19.357C132.336 19.562 132.396 19.7123 132.418 19.7943C132.441 19.8763 132.433 19.8217 132.433 19.8217V19.9037C132.433 19.9037 132.493 20.7646 132.455 21.6529C132.433 22.0902 132.388 22.548 132.314 22.8554C132.239 23.1629 132.053 23.2381 132.321 23.0946C132.135 23.1971 132.202 23.2381 131.971 23.1287C131.733 23.0262 131.114 22.548 130.302 21.2087C129.49 19.8627 128.902 19.1657 128.768 19.0154C128.715 18.8787 128.589 18.5986 128.157 18.2911C127.598 17.8948 127.024 17.888 127.024 17.888L126.972 17.8811H122.808C122.808 17.8811 122.569 17.888 122.294 17.9426C122.018 17.9973 121.623 18.0588 121.251 18.4824H121.243C120.863 18.9266 120.93 19.3297 120.96 19.5757C120.997 19.8285 121.079 20.0266 121.079 20.0266L121.094 20.0676L121.116 20.1086C121.116 20.1086 124.298 26.3333 128.097 30.1255C131.666 33.6923 135.8 33.6239 135.8 33.6239H138.147L138.199 33.6171C138.199 33.6171 138.952 33.6513 139.585 33.0021C139.905 32.6673 139.98 32.353 140.017 32.1207C140.062 31.8816 140.062 31.6902 140.062 31.6902V31.7449C140.062 31.7449 140.092 31.2939 140.226 30.8225C140.293 30.5902 140.39 30.3579 140.479 30.228C140.524 30.1529 140.524 30.1734 140.539 30.1529C140.703 30.2622 140.971 30.515 141.254 30.8361C141.835 31.4716 142.491 32.353 143.407 32.9612C144.07 33.3916 144.696 33.5829 145.173 33.6513C145.493 33.6991 145.724 33.6923 145.88 33.6786L149.121 33.6239H149.151C149.151 33.6239 149.822 33.6103 150.492 33.2208C150.82 33.0295 151.2 32.681 151.326 32.1822C151.461 31.6834 151.312 31.1436 150.999 30.6448C151.103 30.8156 150.976 30.5902 150.879 30.4125C150.783 30.2349 150.634 29.9957 150.41 29.6951C149.978 29.1074 149.263 28.2807 148.078 27.2284C147.519 26.7365 147.162 26.4632 146.938 26.2718C147.005 26.183 147.013 26.1762 147.266 25.9029C147.668 25.4724 148.257 24.8369 149.002 23.8872C149.896 22.7393 150.544 21.8032 150.961 21.0242C151.379 20.2521 151.714 19.6098 151.341 18.8172C151.14 18.3868 150.783 18.2228 150.522 18.1203C150.254 18.0178 150.015 17.9768 149.792 17.9426C149.352 17.8811 148.965 17.8811 148.965 17.8811L145.188 17.9085C145.076 17.888 144.644 17.8128 144.085 18.1408C143.534 18.4551 143.407 18.7899 143.377 18.8924C143.288 19.0086 142.662 19.8217 141.79 21.2429C140.911 22.6778 140.315 23.0672 140.241 23.1014C140.218 23.0809 140.263 23.0877 140.159 23.0331C140.114 22.9989 140.069 22.9716 140.032 22.6026C140.002 22.2336 140.04 21.6529 140.04 20.9696C140.04 19.5005 140.181 18.7352 140.099 18.0041C140.062 17.6352 139.898 17.1842 139.54 16.8836C139.183 16.5897 138.795 16.4804 138.393 16.3848C137.76 16.2413 136.903 16.1798 135.666 16.1661ZM135.651 17.9153C136.806 17.929 137.618 18.011 137.916 18.0793C138.17 18.1408 138.207 18.1681 138.199 18.1545C138.199 18.1681 138.199 18.1613 138.199 18.1818C138.229 18.4756 138.132 19.4185 138.132 20.9696C138.132 21.5777 138.08 22.1653 138.132 22.7529C138.185 23.3406 138.415 24.058 139.093 24.4816H139.101C139.019 24.4338 139.958 25.0761 140.852 24.7823C141.746 24.4816 142.453 23.73 143.459 22.097C144.338 20.6484 144.986 19.8353 144.986 19.8353L145.046 19.7533L145.091 19.6713C145.091 19.6713 145.076 19.6645 145.091 19.6577L148.965 19.6303C148.965 19.6303 149.233 19.6303 149.494 19.6713C149.501 19.6713 149.509 19.6713 149.516 19.6713C149.479 19.685 149.509 19.7738 149.248 20.259C148.913 20.8807 148.309 21.769 147.452 22.8691C146.745 23.7642 146.216 24.345 145.821 24.7686C145.426 25.1854 145.128 25.3836 144.934 25.9302C144.837 26.1967 144.86 26.593 145.001 26.8595C145.135 27.1191 145.299 27.2626 145.463 27.4061C145.791 27.6931 146.178 27.9732 146.745 28.4857C147.855 29.4696 148.48 30.1939 148.831 30.6722C149.009 30.9181 149.114 31.089 149.181 31.212C149.248 31.3349 149.203 31.2871 149.352 31.5194C149.479 31.7312 149.456 31.7586 149.456 31.7449C149.33 31.8132 149.009 31.8747 149.002 31.8747L145.761 31.9294L145.672 31.9499C145.672 31.9499 145.679 31.9567 145.478 31.9294C145.27 31.8952 144.942 31.8132 144.525 31.5399C144.01 31.2051 143.362 30.4262 142.722 29.7156C142.409 29.3671 142.088 29.0255 141.686 28.7521C141.284 28.4788 140.65 28.226 140.002 28.4242C139.444 28.5882 139.079 28.964 138.848 29.3124C138.617 29.6677 138.483 30.0367 138.378 30.3715C138.185 31.048 138.155 31.6561 138.155 31.6561V31.7107C138.155 31.7107 138.155 31.7517 138.14 31.8132C138.103 31.8269 138.05 31.8611 138.021 31.8747H135.741C135.741 31.8747 132.59 32.0251 129.498 28.9503C126.19 25.6364 123.247 20.095 123.001 19.6303H126.838C126.875 19.644 127.009 19.6918 126.995 19.685C126.905 19.6167 127.039 19.767 127.039 19.767L127.099 19.8968L127.203 20.0061C127.203 20.0061 127.792 20.6621 128.634 22.056C129.535 23.5524 130.295 24.3313 131.144 24.7071C131.994 25.0829 132.888 24.8164 133.267 24.6183C133.975 24.2425 134.057 23.7164 134.176 23.2312C134.296 22.7461 134.333 22.2268 134.355 21.7212C134.4 20.7509 134.34 19.9242 134.34 19.8627C134.333 19.8422 134.333 19.603 134.258 19.3434C134.176 19.0769 134.027 18.7284 133.744 18.3594C133.625 18.2091 133.513 18.2843 133.387 18.175C133.916 18.0383 134.482 17.9016 135.651 17.9153Z" fill="#EFDEE0" stroke="#EFDEE0" stroke-width="5" mask="url(#path-3-inside-1_25_5)"/>
</g>
<defs>
<clipPath id="clip0_25_5">
<rect width="22.8866" height="20.9904" fill="white" transform="translate(5.49487 14.3828)"/>
</clipPath>
<clipPath id="clip1_25_5">
<rect width="30.5155" height="27.9872" fill="white" transform="translate(120.99 10.8843)"/>
</clipPath>
</defs>
</svg>
