<svg width="252" height="48" viewBox="0 0 252 48" fill="none" xmlns="http://www.w3.org/2000/svg">
<path fill-rule="evenodd" clip-rule="evenodd" d="M125.136 1.336C123.157 3.721 121 11.144 121 15.57C121 20.69 124.559 25.767 127.388 24.682C129.975 23.689 132.268 17.284 131.538 13.088C130.707 8.311 127.778 0 126.925 0C126.551 0 125.746 0.601 125.136 1.336ZM14.513 10.134C5.993 12.128 0 19.066 0 26.936C0 38.659 13.026 47.553 30 47.419C39.794 47.342 50.31 44.494 72 36.048C81.625 32.3 90.85 28.767 92.5 28.196C94.15 27.625 94.752 27.122 93.838 27.079C92.924 27.036 82.452 30.36 70.567 34.466C49.235 41.835 36.658 45 28.705 45C17.684 45 5.037 38.193 2.918 31.121C1.476 26.308 2.346 21.101 5.198 17.476C7.818 14.145 14.342 11.052 18.809 11.022C20.756 11.009 21.864 10.588 21.5 10C20.786 8.844 19.956 8.86 14.513 10.134ZM230 9.955C230 10.53 231.139 11 232.532 11C239.182 11 247.374 16.963 248.996 22.984C251.022 30.507 246.356 37.676 236.5 42.185C232.292 44.11 229.916 44.458 221.5 44.383C210.512 44.286 203.362 42.443 174 32.139C154.217 25.196 153.11 25.73 172 33.103C203.88 45.546 210.009 47.29 222 47.332C241.012 47.398 254.551 36.186 251.069 23.256C249.012 15.617 243.647 11.384 233.75 9.589C231.375 9.159 230 9.293 230 9.955ZM107.637 12.276C106.621 13.019 106.146 14.217 106.501 15.141C107.11 16.729 111.077 19 113.242 19C113.874 19 115.653 20.209 117.195 21.687L120 24.374V21.41C120 17.743 117.784 14.457 113.989 12.494C110.468 10.674 109.857 10.653 107.637 12.276ZM137.984 12.853C135.518 14.164 134.075 15.906 133.044 18.814C131.352 23.589 132.173 25.217 134.725 22.15C135.701 20.976 138.274 19.414 140.442 18.678C145.245 17.047 146.931 14.826 145.07 12.584C143.379 10.546 142.241 10.59 137.984 12.853ZM23.571 20.571C20.322 23.821 22.076 29.954 26.98 32.49C31.343 34.746 31.529 34.367 28.021 30.371C25.904 27.959 25.03 26.114 25.417 24.871C25.738 23.842 26.277 22.1 26.617 21C27.356 18.603 25.764 18.379 23.571 20.571ZM88.5 20.476C85.2 21.201 77.775 23.689 72 26.005C66.225 28.321 57.45 31.3 52.5 32.624C44.694 34.712 44.229 34.948 49 34.399C55.758 33.621 69.028 29.856 77.313 26.365C85.45 22.937 91.858 21.024 95.25 21.011C96.763 21.005 98 20.55 98 20C98 18.731 95.991 18.832 88.5 20.476ZM153.584 19.864C153.291 20.339 155.269 20.99 157.981 21.311C160.692 21.632 167.993 23.904 174.205 26.359C186.312 31.143 194.508 33.467 202.5 34.381C206.659 34.857 206.071 34.552 199 32.568C194.325 31.256 185.55 28.298 179.5 25.993C173.45 23.689 165.575 21.18 162 20.419C154.245 18.767 154.261 18.769 153.584 19.864ZM224.534 20.75C226.394 25.098 226.146 27.673 223.574 30.73C221.221 33.526 221.167 33.769 222.999 33.29C225.635 32.601 230 27.385 230 24.923C230 22.841 226.688 19 224.893 19C224.22 19 224.08 19.687 224.534 20.75ZM124.65 27.758C124.392 28.174 123.883 30.109 123.517 32.056C123.014 34.739 123.308 36.159 124.733 37.918L126.613 40.24L128.34 37.603C129.781 35.405 129.89 34.305 128.995 30.983C128.022 27.369 125.875 25.775 124.65 27.758ZM118.5 30.18C117.908 31.553 116.479 32.622 115 32.799C110.387 33.351 109.638 33.859 111.01 35.512C114.088 39.221 120.618 35.13 119.827 29.988C119.506 27.898 119.482 27.901 118.5 30.18ZM132 29.318C132 34.214 136.566 38.148 140.498 36.639C143.241 35.587 142.228 33 139.073 33C137.101 33 135.468 32.14 134.073 30.365C132.619 28.517 132 28.204 132 29.318ZM16 32.481C16 33.295 17.238 34.233 18.75 34.564C20.262 34.896 22.063 35.34 22.75 35.552C24.801 36.184 24.167 34.23 21.777 32.557C18.967 30.588 16 30.549 16 32.481ZM228.989 33.512L226.629 36.024L230.064 35.371C233.704 34.68 236 33.328 236 31.878C236 30.012 231.233 31.123 228.989 33.512Z" fill="#FBF1F1"/>
</svg>
